<?xml version="1.0" encoding="utf-8"?>
<!-- Generator: Adobe Illustrator 15.0.2, SVG Export Plug-In . SVG Version: 6.00 Build 0)  -->
<!DOCTYPE svg PUBLIC "-//W3C//DTD SVG 1.1//EN" "http://www.w3.org/Graphics/SVG/1.1/DTD/svg11.dtd">
<svg version="1.1" id="Layer_1" xmlns="http://www.w3.org/2000/svg" xmlns:xlink="http://www.w3.org/1999/xlink" x="0px" y="0px"
	 width="10px" height="10px" viewBox="0 0 10 10" enable-background="new 0 0 10 10" xml:space="preserve">
<path fill="#414042" d="M-0.533-18.543c-3.751-3.255-9.062-3.563-13.624-5.007c-7.619-2.407-15.002-6.776-23.232-6.4
	c-1.943,0.089-8.494-0.492-7.511,2.326c0.954,2.735,3.938,4.24,6.225,5.703c3.208,2.052,6.472,4.055,10.132,5.197
	c3.295,1.03,7.743,1.915,9.401,5.444c1.299,2.769,1.273,6.511,1.794,9.494c0.248,1.418-0.028,3.102,1.133,4.152
	c1.209,1.095,3.039,0.928,0.727,2.476c-4.429,2.961-9.591,4.55-14.658,6.119c-2.615,0.812-12.199,2.693-12.805,6.031
	c1.708,0.656,4.507-0.139,6.404-0.137c1.774,0.003,3.604-0.089,5.284,0.186c0.323,2.825-2.273,4.555-3.605,6.702
	c-1.111,1.795-1.97,4.294-1.602,6.402c3.076-0.473,5.292-2.567,7.647-4.396c5.959-4.627,12.067-8.118,19.293-10.302
	c1.154-0.349,2.254-1.251,3.458-1.391c1.66-0.19,3.514,1.088,5.086,1.546c2.148,0.624,4.383,0.891,6.601,1.142
	c3.791,0.429,7.832,0.432,11.388,1.977c5.121,2.224,9.155,6.475,13.449,10.017c4.959,4.09,10.528,5.887,16.148,8.821
	c2.519,1.316,5.393,2.793,8.327,2.325c0.769-3.729-4.94-8.869-6.796-11.782c-1.22-1.912-2.256-3.884-3.635-5.702
	c-2.432-3.206-5.269-6.065-7.961-9.047c-2.497-2.766-4.731-5.862-7.771-8.074c-2.322-1.69-5.333-1.923-7.81-3.327
	c-0.689-0.391-2.438-0.948-2.543-1.85c-0.093-0.814,2.065-2.681,2.492-3.564c0.965-1.992,1.742-4.072,2.332-6.206
	c0.157-0.567,0.365-1.165,0.487-1.773c0.096-0.482-0.064-1.656,0.153-2.088c0.545-1.091,1.522-0.856,1.748-2.699
	c-1.662,0.201-4.061,0.221-5.92,0.129c-2.2-0.109-4.381,0.226-6.429,0.614c-2.066,0.393-3.401,0.988-4.981,2.163
	c-1.773,1.315-4.857-0.026-5.142,0.124C3.154-13.197,1.065-17.153-0.533-18.543z"/>
</svg>
