<?xml version="1.0" encoding="utf-8"?>
<!-- Generator: Adobe Illustrator 15.0.2, SVG Export Plug-In . SVG Version: 6.00 Build 0)  -->
<!DOCTYPE svg PUBLIC "-//W3C//DTD SVG 1.1//EN" "http://www.w3.org/Graphics/SVG/1.1/DTD/svg11.dtd">
<svg version="1.1" id="Layer_1" xmlns="http://www.w3.org/2000/svg" xmlns:xlink="http://www.w3.org/1999/xlink" x="0px" y="0px"
	 width="10px" height="10px" viewBox="0 0 10 10" enable-background="new 0 0 10 10" xml:space="preserve">
<path fill="#414042" d="M-45,28.629c0,0,21.941-20.254,28.27-24.472c0,0,2.955-9.282,5.486-10.97c0,0,3.796-2.109-1.688-3.376
	c0,0-10.971-2.11-13.081-4.642l12.658-1.267l2.111-2.531c0,0,10.968,5.063,15.611,4.221c4.641-0.846,22.362-3.798,31.645,0.421
	C45.295-9.768,55-3.016,55-3.016S36.012-7.659,32.637-9.768c0,0-7.596-1.688-5.484,0.846c0,0,4.641,5.485,3.797,8.016
	c0,0-1.688,0.844-3.375,1.688c0,0-12.236,7.172-24.474,3.376C3.101,4.157-15.042,25.254-45,28.629z"/>
</svg>
