<?xml version="1.0" encoding="utf-8"?>
<!-- Generator: Adobe Illustrator 15.0.2, SVG Export Plug-In . SVG Version: 6.00 Build 0)  -->
<!DOCTYPE svg PUBLIC "-//W3C//DTD SVG 1.1//EN" "http://www.w3.org/Graphics/SVG/1.1/DTD/svg11.dtd">
<svg version="1.1" id="Layer_1" xmlns="http://www.w3.org/2000/svg" xmlns:xlink="http://www.w3.org/1999/xlink" x="0px" y="0px"
	 width="10px" height="10px" viewBox="0 0 10 10" enable-background="new 0 0 10 10" xml:space="preserve">
<path d="M5.972,4.28c1.081-0.36,1.224-1.008,1.224-2.088l0.072-3.312C7.34-3.785,6.477-7.385,2.012-7.385
	c-2.016,0-4.464,1.008-4.608,3.24c-0.072,1.152-0.144,2.016-0.72,2.448c-1.08,0.864-3.024,1.368-4.104,1.368
	c-0.648,0-1.008-0.36-1.008-1.008c0-3.744,8.137-8.856,13.394-8.856c5.184,0,7.705,3.024,7.489,8.425L12.021,10.76
	c-0.144,3.312,0.505,6.266,3.312,6.266c0.72,0,1.368-0.217,1.8-0.433c0.36-0.216,0.721-0.504,0.937-0.504
	c0.288,0,0.504,0.433,0.504,0.937c0,0.359-2.521,3.168-6.048,3.168c-1.729,0-3.457-0.648-4.682-2.232
	c-0.287-0.432-0.719-1.008-1.151-1.008c-0.505,0-1.368,0.648-2.808,1.439C2.3,19.257,0.716,20.193-1.3,20.193
	c-2.088,0-3.816-0.576-5.041-1.656c-1.368-1.225-2.232-3.024-2.232-5.041c0-2.808,1.368-4.464,5.977-6.12L5.972,4.28z M1.508,16.953
	c1.44,0,3.672-1.08,4.393-1.801c0.863-0.863,0.863-1.871,0.936-3.384L6.98,7.52c0-0.791-0.288-0.936-0.721-0.936
	c-0.432,0-1.656,0.288-2.952,0.721c-4.249,1.439-6.337,2.52-6.337,5.328C-3.029,13.856-2.165,16.953,1.508,16.953z"/>
<path d="M-7.43-10.373c0-4.249-0.072-4.681-2.232-5.977l-0.72-0.433c-0.36-0.216-0.36-1.224,0-1.439
	c1.656-0.648,5.112-1.585,7.849-3.024c0.288,0,0.576,0.144,0.72,0.432c-0.144,2.521-0.288,5.761-0.288,8.929V1.724
	c0,1.224,0.288,1.512,0.72,1.512c1.872-1.08,4.752-2.376,8.28-2.376c8.209,0,13.754,6.192,13.754,14.113
	c0,9.577-6.913,16.273-16.562,16.273c-2.664,0-4.68-0.504-6.121-0.937c-1.512-0.504-2.448-0.936-3.024-0.936
	c-0.576,0-1.152,0.576-1.512,1.08c-0.072,0.072-0.144,0.072-0.288,0.072c-0.288,0-0.576-0.145-0.72-0.433
	c0.072-1.008,0.144-2.376,0.144-6.12V-10.373z M-2.102,20.445c0,2.521,0.576,4.752,1.8,6.265c1.224,1.512,3.168,2.376,5.472,2.376
	c6.769,0,9.433-5.761,9.433-11.953c0-7.417-3.816-13.177-10.945-13.177c-2.16,0-3.888,0.504-4.896,1.151
	c-0.72,0.505-0.864,1.297-0.864,4.104V20.445z"/>
<path d="M15.801-8.969c0.576,0.504,1.08,1.656,1.08,2.88c0,1.296-0.721,2.665-1.584,2.665c-0.36,0-0.721-0.144-1.008-0.504
	c-1.584-1.944-4.248-3.816-7.201-3.816c-5.04,0-9.937,3.96-9.937,11.593c0,5.617,3.888,12.312,11.593,12.312
	c4.176,0,6.336-1.871,7.992-4.32c0.576-0.144,1.225,0.361,1.297,1.009c-2.448,5.328-7.85,7.345-12.025,7.345
	c-3.816,0-7.345-1.225-9.865-3.672c-2.52-2.449-4.176-5.977-4.176-10.658c0-7.776,5.473-16.057,17.426-16.057
	C11.049-10.193,13.856-9.833,15.801-8.969z"/>
<path d="M16.215,19.365c0,5.688,0.072,8.353,2.088,8.353c0.793,0,2.017-0.359,3.097-0.72c0.504,0.144,0.576,1.944-0.072,2.304
	c-3.024,0.433-7.488,1.513-9.505,2.305c-0.432,0-0.792-0.216-0.792-0.576v-1.224c0-1.081,0-1.944-0.144-2.232h-0.288
	c-3.168,2.16-5.616,3.312-9.073,3.312c-7.993,0-13.321-6.265-13.321-13.825C-11.795,6.98-4.163,0.5,5.63,0.5
	c2.448,0,4.032,0.359,4.824,0.647c0.36,0,0.433-0.432,0.433-1.008v-10.873c0-4.248-0.072-4.681-2.232-5.977l-0.72-0.432
	c-0.36-0.217-0.36-1.225,0-1.44c1.8-0.576,5.185-1.656,7.776-3.024c0.288,0,0.576,0.145,0.72,0.433
	c-0.071,2.16-0.216,5.76-0.216,8.929V19.365z M10.887,8.564c0-1.44-0.288-2.088-0.792-2.809c-1.08-1.512-3.24-3.024-6.048-3.024
	c-6.553,0-9.937,5.688-9.937,11.953c0,6.553,3.672,12.745,10.729,12.745c1.944,0,4.392-0.864,5.544-2.016
	c0.432-0.433,0.504-1.513,0.504-2.664V8.564z"/>
<path d="M-0.544,0.751c-1.872,0-1.944,0.144-1.944,1.944c0,7.273,4.249,13.464,11.954,13.464c2.376,0,4.393-0.719,6.624-3.527
	c0.72-0.217,1.224,0.216,1.296,0.863c-2.376,4.896-7.561,6.697-11.305,6.697c-4.68,0-8.353-2.017-10.441-4.752
	c-2.16-2.809-3.024-6.193-3.024-9.361c0-8.857,5.833-16.273,14.473-16.273c6.193,0,10.225,4.248,10.225,8.569
	c0,1.008-0.144,1.584-0.287,1.872c-0.217,0.432-1.225,0.504-4.248,0.504H-0.544z M3.92-1.409c5.328,0,6.912-0.288,7.488-0.72
	c0.217-0.144,0.433-0.432,0.433-1.368c0-2.016-1.368-4.536-5.545-4.536c-4.248,0-7.92,3.888-7.993,6.265c0,0.144,0,0.36,0.504,0.36
	H3.92z"/>
<path d="M2.781,5.288c-1.224,0-1.224,0.144-1.224,2.089V22.57c0,5.184,0.144,6.048,2.736,6.264l2.592,0.217
	c0.504,0.359,0.36,1.584-0.144,1.799c-3.24-0.144-5.329-0.215-7.849-0.215c-2.592,0-4.752,0.071-6.913,0.215
	c-0.504-0.215-0.648-1.439-0.144-1.799l1.656-0.217c2.664-0.359,2.736-1.08,2.736-6.264V7.377c0-1.945,0-2.089-1.44-2.089h-2.52
	C-8.164,5-8.236,4.352-7.948,3.92l3.097-1.512c0.576-0.288,1.08-0.72,1.08-1.44c0-4.176,0.504-8.641,2.232-12.673
	c1.8-4.104,5.833-9.145,12.96-9.145c3.816,0,7.057,1.728,7.057,4.32c0,1.44-1.368,2.592-2.735,2.592
	c-0.793,0-1.225-0.288-1.729-0.864c-1.368-1.584-3.385-3.168-5.761-3.168c-2.232,0-4.032,1.368-5.112,3.96
	C1.845-10.697,1.557-5.441,1.557-1.84v2.088c0,1.944,0,2.016,1.224,2.016h8.208c0.792,0.72,0.288,2.736-0.504,3.024H2.781z"/>
<path d="M19.798-16.782c0.792,0.36,0.648,2.808-0.432,2.952h-5.185c0.144,1.224,0.144,2.448,0.144,3.672
	c0,4.968-2.952,11.449-12.097,11.449c-1.296,0-2.304-0.144-3.168-0.216c-0.864,0.504-3.168,1.872-3.168,3.96
	c0,1.655,1.656,3.024,5.041,3.024c2.448,0,5.401-0.217,8.569-0.217c4.032,0,10.081,0.721,10.081,7.922
	c0,7.848-8.569,13.608-17.93,13.608c-8.857,0-11.953-4.753-11.953-8.353c0-1.152,0.288-2.088,0.792-2.664
	c1.224-1.297,3.24-3.168,4.896-4.824c0.648-0.648,1.224-1.297,0.576-1.729c-2.808-0.721-5.256-3.168-5.256-5.688
	c0-0.36,0.288-0.648,1.08-1.224C-6.988,4.1-5.62,2.876-4.396,1.58c0.36-0.432,0.72-1.008,0.72-1.368
	c-2.448-1.296-5.4-4.104-5.4-8.712c0-6.193,5.329-10.873,11.737-10.873c2.736,0,5.257,0.72,6.913,1.44
	c2.304,1.008,2.808,1.152,4.393,1.152H19.798z M4.749,12.309c-2.304,0-5.185,0.145-6.192,0.792c-1.728,1.08-3.457,3.312-3.457,6.049
	c0,3.888,3.096,7.128,9.649,7.128c6.409,0,10.657-3.6,10.657-7.704c0-4.393-3.024-6.265-8.208-6.265H4.749z M9.213-8.285
	c0-4.896-2.016-9.001-6.409-9.001c-3.456,0-6.048,3.168-6.048,8.065c0,5.112,3.096,8.425,6.553,8.425
	C7.197-0.796,9.213-3.893,9.213-8.285z"/>
<path d="M-7.385-9.977c0-4.249-0.072-4.681-2.232-5.977l-0.72-0.432c-0.36-0.216-0.36-1.224,0-1.44
	c1.8-0.576,5.184-1.656,7.776-3.024c0.288,0,0.576,0.144,0.72,0.432c-0.072,2.16-0.216,5.76-0.216,8.929V3.632
	c0,0.648,0.072,1.224,0.288,1.368C0.823,2.984,4.28,1.256,7.952,1.256c6.841,0,9.289,4.248,9.289,9.289V22.57
	c0,5.184,0.144,5.976,2.736,6.264l1.944,0.217c0.504,0.359,0.359,1.584-0.145,1.799c-2.592-0.144-4.681-0.215-7.2-0.215
	c-2.593,0-4.753,0.071-6.697,0.215c-0.504-0.215-0.647-1.439-0.144-1.799l1.44-0.217c2.664-0.432,2.735-1.08,2.735-6.264V12.272
	c0-4.608-2.231-7.705-6.84-7.705c-2.448,0-4.32,0.864-5.617,1.944c-1.296,1.08-1.512,1.44-1.512,3.961V22.57
	c0,5.184,0.144,5.904,2.736,6.264l1.512,0.217c0.504,0.287,0.36,1.584-0.144,1.799c-2.16-0.144-4.248-0.215-6.769-0.215
	c-2.593,0-4.753,0.071-7.057,0.215c-0.504-0.215-0.648-1.439-0.145-1.799l1.801-0.217c2.664-0.288,2.736-1.08,2.736-6.264V-9.977z"
	/>
<path d="M2.335,6.691c0-2.808,0-3.167-1.944-4.464l-0.647-0.432C-0.544,1.508-0.544,0.716-0.185,0.5
	c1.656-0.576,5.761-2.448,7.417-3.528c0.36,0,0.648,0.144,0.72,0.432C7.809-0.077,7.664,3.38,7.664,6.332v12.961
	c0,5.185,0.145,5.904,2.736,6.265l1.513,0.216c0.504,0.36,0.359,1.584-0.145,1.801C9.608,27.43,7.521,27.357,5,27.357
	c-2.592,0-4.752,0.072-6.769,0.217c-0.504-0.217-0.647-1.44-0.144-1.801l1.512-0.216c2.664-0.36,2.736-1.08,2.736-6.265V6.691z
	 M8.312-13.83c0,2.592-1.8,3.744-3.817,3.744c-2.232,0-3.672-1.656-3.672-3.6c0-2.376,1.728-3.888,3.888-3.888
	C6.872-17.574,8.312-15.846,8.312-13.83z"/>
<path d="M6.124-2.885c0-2.809,0-3.168-1.943-4.465L3.533-7.781c-0.288-0.288-0.288-1.08,0.072-1.296
	c1.656-0.576,5.759-2.448,7.416-3.528c0.36,0,0.648,0.144,0.721,0.432c-0.145,2.521-0.288,5.977-0.288,8.929v17.426
	c0,5.185-0.504,8.785-1.513,11.233C7.78,30.598,3.964,34.055-1.003,37.15c-0.864-0.144-1.296-0.936-1.009-1.656
	c1.873-0.936,3.24-2.088,4.249-3.24c2.592-3.023,3.887-8.208,3.887-16.993V-2.885z M12.101-23.406c0,2.52-1.8,3.744-3.816,3.744
	c-2.231,0-3.671-1.656-3.671-3.673c0-2.376,1.728-3.815,3.888-3.815S12.101-25.423,12.101-23.406z"/>
<path d="M-7.511-9.977c0-4.249-0.072-4.681-2.232-5.977l-0.72-0.432c-0.36-0.216-0.36-1.224,0-1.44
	c1.8-0.576,5.184-1.656,7.776-3.024c0.288,0,0.576,0.144,0.72,0.432c-0.072,2.16-0.216,5.76-0.216,8.929v24.698
	c0,0.936,0.072,1.08,1.296,1.08c1.584,0,2.952-0.793,4.896-2.809l2.952-3.168C8.979,6.152,9.482,5.36,9.482,5
	s-0.36-0.576-1.584-0.72L6.17,4.064c-0.647-0.216-0.647-1.584,0-1.8h1.656c3.168,0,7.417-0.144,11.449-0.576
	c0.504,0.216,0.576,1.44,0.144,1.8L17.115,3.92c-1.44,0.288-2.664,1.008-4.536,2.52c-2.809,2.232-5.257,4.825-6.553,6.049
	c-0.864,0.793-0.937,1.152-0.504,1.729c1.224,1.656,2.376,3.024,4.824,5.761c2.808,3.168,5.328,5.977,6.769,7.345
	c1.008,0.936,2.448,1.367,3.744,1.584l1.008,0.145c0.504,0.359,0.433,1.584-0.144,1.799c-2.089-0.144-4.536-0.215-6.841-0.215
	c-2.88,0-5.4,0.071-7.488,0.215c-0.576-0.287-0.648-1.512-0.145-1.799l1.296-0.217c1.08-0.145,1.801-0.288,1.801-0.72
	c0-0.433-0.288-0.937-1.225-2.017l-7.704-8.929c-0.648-0.72-1.44-1.008-2.232-1.008c-1.296,0-1.368,0.216-1.368,2.448v3.961
	c0,5.184,0.144,5.904,2.736,6.264l1.728,0.217c0.505,0.359,0.36,1.584-0.144,1.799c-2.376-0.144-4.464-0.215-6.984-0.215
	c-2.593,0-4.753,0.071-6.913,0.215c-0.504-0.215-0.647-1.439-0.071-1.799l1.584-0.217c2.664-0.359,2.736-1.08,2.736-6.264V-9.977z"
	/>
<path d="M7.628,22.57c0,5.184,0.144,5.904,2.736,6.264l1.728,0.217c0.505,0.359,0.36,1.584-0.144,1.799
	c-2.376-0.144-4.464-0.215-6.984-0.215c-2.593,0-4.753,0.071-6.913,0.215c-0.504-0.215-0.647-1.439-0.144-1.799l1.656-0.217
	C2.228,28.475,2.3,27.754,2.3,22.57V-9.977c0-4.249-0.072-4.681-2.232-5.977l-0.72-0.432c-0.36-0.216-0.36-1.224,0-1.44
	c1.8-0.576,5.184-1.656,7.776-3.024c0.288,0,0.576,0.144,0.72,0.432c-0.072,2.16-0.216,5.76-0.216,8.929V22.57z"/>
<path d="M21.417,1.58c0-4.896-2.16-7.417-6.696-7.417c-2.736,0-4.969,1.224-5.977,2.521c-0.864,1.08-1.08,1.8-1.08,4.32v11.018
	c0,5.184,0.144,5.904,2.736,6.264l1.512,0.217c0.504,0.359,0.36,1.584-0.144,1.799C9.608,20.157,7.52,20.086,5,20.086
	c-2.593,0-4.536,0.071-6.553,0.215c-0.504-0.215-0.648-1.439-0.145-1.799l1.297-0.217c2.664-0.432,2.736-1.08,2.736-6.264V1.58
	c0-4.825-2.16-7.417-6.625-7.417c-2.952,0-4.969,1.296-6.049,2.592c-0.72,0.864-1.08,1.8-1.08,4.104v11.162
	c0,5.184,0.145,5.832,2.736,6.264l1.296,0.217c0.505,0.359,0.36,1.584-0.144,1.799c-1.944-0.144-4.032-0.215-6.553-0.215
	c-2.592,0-4.752,0.071-6.984,0.215c-0.504-0.215-0.648-1.439-0.145-1.799l1.729-0.217c2.664-0.359,2.736-1.08,2.736-6.264V-0.581
	c0-2.808,0-3.168-1.944-4.464l-0.647-0.432c-0.288-0.288-0.288-1.08,0.071-1.296c1.656-0.576,5.761-2.448,7.201-3.528
	c0.288,0,0.647,0.144,0.792,0.504c-0.145,1.656-0.145,2.736-0.145,3.385c0,0.432,0.288,0.792,0.792,0.792
	c2.736-1.944,6.121-3.672,9.577-3.672c3.601,0,5.616,1.296,7.633,4.248c0.648,0.144,1.152-0.144,1.8-0.576
	c2.881-2.016,6.409-3.672,9.793-3.672c5.761,0,8.569,3.96,8.569,8.929v12.386c0,5.184,0.144,5.904,2.735,6.264l1.729,0.217
	c0.504,0.359,0.36,1.584-0.144,1.799c-2.377-0.144-4.465-0.215-6.985-0.215c-2.592,0-4.536,0.071-6.552,0.215
	c-0.505-0.215-0.648-1.439-0.145-1.799l1.296-0.217c2.664-0.432,2.736-1.08,2.736-6.264V1.58z"/>
<path d="M-7.349-0.581c0-2.808,0-3.168-1.944-4.464l-0.647-0.432c-0.288-0.288-0.288-1.08,0.071-1.296
	c1.656-0.576,5.761-2.448,7.201-3.528c0.288,0,0.647,0.144,0.792,0.504c-0.145,1.656-0.145,2.736-0.145,3.385
	c0,0.432,0.288,0.792,0.792,0.792C1.795-7.493,5.18-9.293,8.852-9.293c5.977,0,8.425,4.104,8.425,8.929v12.386
	c0,5.184,0.145,5.904,2.736,6.264l1.584,0.217c0.504,0.359,0.36,1.584-0.144,1.799c-2.16-0.144-4.249-0.215-6.769-0.215
	c-2.593,0-4.753,0.071-6.697,0.215c-0.504-0.215-0.647-1.439-0.144-1.799l1.368-0.217c2.664-0.432,2.736-1.08,2.736-6.264V1.292
	c0-4.104-1.872-7.129-6.768-7.129c-2.736,0-5.112,1.152-6.121,2.521c-0.936,1.224-1.08,2.232-1.08,4.32v11.018
	c0,5.184,0.145,5.832,2.736,6.264l1.296,0.217c0.505,0.359,0.36,1.584-0.144,1.799c-1.944-0.144-4.032-0.215-6.553-0.215
	c-2.592,0-4.752,0.071-6.769,0.215c-0.504-0.215-0.647-1.439-0.144-1.799l1.512-0.217c2.664-0.359,2.736-1.08,2.736-6.264V-0.581z"
	/>
<path d="M19.977,4.712c0,9.001-6.191,15.481-15.193,15.481c-8.28,0-14.761-5.832-14.761-14.833c0-9.073,6.84-15.553,15.337-15.553
	C13.424-10.193,19.977-4.145,19.977,4.712z M4.496-8.033c-4.752,0-8.28,4.536-8.28,12.457c0,6.553,2.952,13.609,9.289,13.609
	c6.335,0,8.281-6.625,8.281-12.169C13.785-0.257,11.336-8.033,4.496-8.033z"/>
<path d="M-6.653-9.582c0-2.808,0-3.168-1.943-4.464l-0.648-0.432c-0.288-0.288-0.288-1.08,0.072-1.296
	c1.872-0.792,5.256-2.52,7.128-3.888c0.433,0,0.721,0.144,0.864,0.504c-0.144,1.296-0.288,2.376-0.288,3.312
	c0,0.504,0.145,0.936,0.648,0.936c0.936-0.432,5.473-3.384,10.082-3.384c7.271,0,11.953,5.904,11.953,13.177
	c0,10.009-7.346,17.209-17.571,17.209c-1.296,0-3.312-0.144-3.96-0.288c-0.648,0.145-1.008,0.504-1.008,2.016v7.561
	c0,5.113,0.144,5.762,2.736,6.121l2.808,0.359c0.504,0.361,0.36,1.585-0.144,1.801c-3.456-0.145-5.545-0.216-8.064-0.216
	c-2.593,0-4.753,0.071-6.769,0.216c-0.505-0.216-0.648-1.439-0.145-1.801l1.513-0.215c2.664-0.361,2.735-1.08,2.735-6.266V-9.582z
	 M-1.324,3.812c0,2.304,0.72,3.168,2.16,4.321c1.439,1.08,3.672,1.584,5.185,1.584c5.904,0,9.359-5.473,9.359-12.961
	c0-5.761-3.24-11.593-9.72-11.593c-3.097,0-5.328,1.152-6.12,2.016c-0.648,0.792-0.864,1.873-0.864,4.249V3.812z"/>
<path d="M16.4,20.697c0,5.185,0.216,5.688,2.736,6.121l2.088,0.359c0.504,0.36,0.36,1.584-0.145,1.801
	c-2.736-0.145-4.824-0.217-7.345-0.217c-2.592,0-4.752,0.072-7.488,0.217c-0.504-0.217-0.648-1.44-0.144-1.801l2.231-0.216
	c2.665-0.288,2.736-1.08,2.736-6.265v-9.361c0-1.367-0.071-1.728-0.647-1.728c-1.872,1.08-4.537,1.8-7.345,1.8
	c-10.729,0-14.617-8.497-14.617-14.113c0-10.441,7.992-16.273,17.281-16.273c2.376,0,4.969,0.432,5.977,0.72
	c1.08,0.288,1.872,0.504,2.521,0.504c0.575,0,1.151-0.504,1.943-1.224c0.36,0,0.648,0.288,0.793,0.648
	c-0.433,1.728-0.576,4.176-0.576,8.713V20.697z M11.071-6.233c0-3.745-0.359-6.121-0.936-7.201c-1.009-1.8-3.097-3.312-6.192-3.312
	c-5.473,0-9.434,4.969-9.434,11.737c0,7.92,4.608,13.537,11.377,13.537c3.169,0,4.32-0.72,4.681-1.152
	c0.36-0.432,0.504-1.296,0.504-2.88V-6.233z"/>
<path d="M-1.144-0.581c0-2.808,0-3.168-1.944-4.464l-0.647-0.432c-0.288-0.288-0.288-1.08,0.071-1.296
	c1.656-0.576,5.473-2.448,7.272-3.528c0.36,0.072,0.576,0.216,0.576,0.504v4.177c0,0.36,0.072,0.576,0.217,0.648
	c2.52-2.088,5.256-4.32,7.92-4.32c1.801,0,3.24,1.152,3.24,2.88c0,2.376-1.943,3.312-3.096,3.312c-0.721,0-1.08-0.216-1.584-0.504
	c-1.08-0.72-2.16-1.152-3.169-1.152c-1.151,0-2.016,0.648-2.592,1.44C4.401-2.309,4.185-0.22,4.185,2.228v9.793
	c0,5.184,0.145,6.048,2.881,6.264l2.592,0.217c0.504,0.359,0.36,1.584-0.144,1.799c-3.385-0.144-5.473-0.215-7.993-0.215
	c-2.592,0-4.752,0.071-6.624,0.215c-0.505-0.215-0.648-1.439-0.145-1.799l1.368-0.217c2.664-0.432,2.736-1.08,2.736-6.264V-0.581z"
	/>
<path d="M13.114-8.897c0.648,1.584,1.152,3.888,1.152,5.833c-0.288,0.504-1.368,0.648-1.729,0.216
	c-1.224-3.168-3.384-5.257-6.336-5.257c-2.809,0-4.608,1.8-4.608,4.393c0,2.952,3.024,4.536,5.544,5.977
	c3.816,2.16,7.345,4.608,7.345,9.721c0,5.473-5.04,8.209-10.369,8.209c-3.384,0-5.904-0.721-7.704-2.16
	c-0.576-1.368-1.008-4.896-0.864-7.273c0.36-0.432,1.296-0.504,1.656-0.071c1.224,3.96,3.528,7.417,7.633,7.417
	c2.592,0,4.824-1.513,4.824-4.609c0-3.312-2.88-5.111-5.545-6.624c-4.176-2.376-7.128-4.896-7.128-8.857
	c0-5.256,4.32-8.208,9.793-8.208C9.802-10.193,12.467-9.474,13.114-8.897z"/>
<path d="M5.937-4.14c-1.224,0-1.296,0.216-1.296,1.729v13.465c0,4.177,0.504,7.993,5.257,7.993c0.72,0,1.368-0.145,1.943-0.36
	c0.648-0.216,1.585-1.008,1.801-1.008c0.576,0,0.864,0.792,0.72,1.224c-1.296,1.513-3.889,3.312-7.561,3.312
	c-6.192,0-7.488-3.456-7.488-7.776V-2.051c0-1.944-0.072-2.089-1.513-2.089h-2.016C-4.648-4.428-4.72-5.22-4.433-5.651
	C-2.344-6.3-0.544-7.235,0.176-7.884C1.112-8.748,2.48-10.692,3.2-12.132c0.36-0.145,1.225-0.145,1.513,0.359v3.24
	c0,1.297,0.071,1.368,1.296,1.368h7.992c0.864,0.648,0.721,2.593,0.072,3.024H5.937z"/>
<path d="M-3.021,8.24c0,4.969,1.224,8.281,6.696,8.281c1.944,0,4.248-0.793,5.833-2.16c0.936-0.865,1.439-1.945,1.439-4.177V-1.625
	c0-4.681-0.504-4.825-2.664-5.688l-0.936-0.36C6.843-7.961,6.843-8.969,7.419-9.257c2.881-0.072,6.841-0.576,8.425-1.296
	c0.36,0.072,0.576,0.216,0.648,0.504c-0.145,1.368-0.216,3.6-0.216,6.265V8.312c0,5.688,0.216,7.849,2.231,7.849
	c0.864,0,1.801-0.144,2.809-0.36c0.432,0.36,0.504,1.801-0.072,2.088c-2.808,0.576-6.984,1.297-9.433,2.664
	c-0.36,0-0.72-0.215-0.864-0.504v-2.951c0-0.648-0.216-1.009-0.647-1.009c-2.16,1.368-5.688,3.745-9.938,3.745
	c-6.336,0-8.713-3.169-8.713-9.002V-1.192c0-4.537,0-5.185-2.16-6.121l-0.863-0.36c-0.433-0.36-0.36-1.368,0.144-1.584
	c3.312-0.072,6.12-0.72,7.705-1.296c0.432,0.072,0.647,0.216,0.72,0.504c-0.144,1.224-0.216,2.736-0.216,6.265V8.24z"/>
<path d="M-5.012-2.524c-1.08-2.665-1.728-4.969-4.32-5.329l-1.44-0.216c-0.432-0.576-0.359-1.584,0.217-1.8
	c1.8,0.144,4.32,0.216,6.769,0.216c1.944,0,3.384-0.072,5.832-0.216c0.504,0.288,0.576,1.439,0.072,1.8L1.252-7.925
	c-2.232,0.359-2.304,0.72-1.584,2.88c1.656,4.969,3.744,10.009,5.4,13.753c0.648,1.44,0.937,2.088,1.153,2.305
	C6.51,10.796,7.014,9.788,7.59,8.276c0.936-2.448,3.384-8.713,4.104-10.585c1.008-2.521,1.296-4.032,1.296-4.465
	c0-0.647-0.433-0.936-1.296-1.08l-1.656-0.216c-0.433-0.504-0.36-1.512,0.144-1.8c2.232,0.144,4.032,0.216,5.4,0.216
	c1.801,0,3.024-0.072,5.041-0.216c0.504,0.288,0.576,1.368,0.144,1.8l-1.08,0.145c-2.521,0.359-3.168,2.231-5.257,6.264
	c-1.008,1.944-5.472,12.386-6.624,15.338c-0.72,1.8-1.44,3.456-2.376,5.904c-0.145,0.216-0.433,0.288-0.721,0.288
	c-0.359,0-0.72-0.072-0.936-0.288c-0.576-2.017-1.656-4.824-2.736-7.488L-5.012-2.524z"/>
<path d="M-13.797-2.669c-1.656-4.032-2.521-4.752-4.32-5.185l-1.152-0.288c-0.359-0.359-0.432-1.439,0.216-1.728
	c2.232,0.144,4.249,0.216,6.409,0.216c2.232,0,4.32-0.072,6.265-0.216c0.576,0.288,0.647,1.368,0.144,1.728l-1.656,0.288
	C-8.9-7.709-9.477-7.277-9.477-6.845c0,0.432,0.36,1.8,1.152,3.744L-3.86,7.916c0.648,1.656,1.297,2.952,1.297,3.097
	c0.216-0.145,0.792-1.368,1.656-3.457l3.528-8.712c0.936-2.305,1.008-3.24,0.647-4.177c-0.647-1.584-1.728-2.16-3.312-2.521
	l-1.151-0.288C-1.7-8.573-1.556-9.653-0.979-9.869c1.8,0.144,4.104,0.216,5.977,0.216c2.232,0,4.393-0.072,6.841-0.216
	c0.647,0.216,0.647,1.368,0.216,1.728l-1.513,0.288c-2.88,0.576-2.736,0.792-1.872,3.312C9.461-2.165,13.35,6.98,14.142,8.924
	c0.432,1.08,0.72,1.872,0.937,2.017c0.144-0.145,0.504-0.864,1.008-2.017c0.936-2.088,3.816-9.721,4.896-12.745
	c0.576-1.656,0.72-2.592,0.72-3.096c0-0.433-0.432-0.792-1.296-0.937l-1.8-0.288c-0.576-0.359-0.433-1.512,0.071-1.728
	c2.089,0.144,3.889,0.216,5.688,0.216c1.368,0,3.097-0.072,4.681-0.216c0.576,0.288,0.648,1.368,0.216,1.728l-1.439,0.288
	c-1.729,0.36-2.377,1.368-3.889,4.537c-1.944,4.032-5.4,12.673-6.769,16.345c-1.008,2.593-1.872,4.681-2.448,6.553
	c-0.288,0.216-0.576,0.288-0.937,0.288c-0.288,0-0.576-0.072-0.792-0.288c-0.432-1.296-1.728-5.04-2.952-7.921L6.581,3.38
	C6.077,2.084,4.997-0.293,4.925-0.293s-1.08,2.232-1.584,3.528l-3.744,9.001c-1.297,3.097-2.305,5.688-2.881,7.345
	c-0.216,0.216-0.504,0.288-0.864,0.288c-0.287,0-0.647-0.072-0.863-0.288c-0.433-1.512-1.584-4.464-2.16-5.977L-13.797-2.669z"/>
<path d="M-4.613-4.289c-1.08-1.584-2.305-2.736-4.32-3.096l-1.152-0.216c-0.432-0.36-0.36-1.585,0.145-1.801
	c2.808,0.145,4.464,0.216,6.264,0.216c1.729,0,3.312-0.071,6.121-0.216c0.504,0.288,0.504,1.44,0.072,1.801l-1.08,0.216
	c-1.944,0.359-1.873,0.792-0.648,2.52l3.456,5.041C4.532,0.607,4.964,1.184,5.18,1.399c0.288-0.216,2.665-3.816,4.176-6.12
	c1.225-1.872,1.009-2.232-0.576-2.664L7.917-7.601C7.484-8.033,7.629-9.186,8.205-9.401c1.656,0.145,3.528,0.216,5.256,0.216
	c1.656,0,3.889-0.071,5.257-0.216c0.576,0.288,0.576,1.44,0.144,1.801l-1.08,0.216c-1.728,0.359-2.808,0.576-3.6,1.224
	c-1.225,1.009-3.889,4.32-6.769,8.209C6.549,3.2,6.549,3.416,7.484,4.712l6.697,9.433c1.655,2.305,2.808,3.24,4.752,3.385
	l1.152,0.072c0.432,0.432,0.359,1.584-0.145,1.8c-2.664-0.145-5.04-0.216-7.128-0.216c-2.665,0-4.537,0.071-6.841,0.216
	c-0.576-0.216-0.721-1.44-0.216-1.8l2.088-0.217c2.088-0.216,2.16-0.863,1.224-2.16l-3.745-5.4C4.459,8.528,4.028,7.952,3.74,7.736
	C3.524,7.952,2.948,8.673,2.444,9.465l-3.024,4.752c-1.44,2.305-1.584,2.88,0.216,3.168l1.225,0.217
	c0.432,0.359,0.359,1.584-0.145,1.8c-1.8-0.145-3.6-0.216-5.328-0.216c-1.8,0-3.385,0.071-5.257,0.216
	c-0.576-0.288-0.647-1.512-0.144-1.8l1.656-0.288c1.296-0.217,2.304-0.792,3.6-2.16c1.513-1.585,4.753-6.409,6.409-8.425
	c0.647-0.792,0.792-1.08,0.216-1.872L-4.613-4.289z"/>
<path d="M-9.827,25.162c0-1.944,1.296-2.881,2.88-2.881h1.368c1.152,0,1.872-0.504,2.376-1.296c2.088-3.24,3.528-6.265,4.177-7.993
	c0.216-0.575,0.72-2.088,0.72-3.096c0-1.44-0.288-2.305-1.224-4.969l-5.617-15.409c-1.224-3.385-1.728-5.112-4.248-5.616l-1.8-0.36
	c-0.433-0.36-0.36-1.584,0.216-1.8c2.304,0.144,4.464,0.216,6.841,0.216c1.943,0,3.96-0.072,6.265-0.216
	c0.575,0.216,0.647,1.439,0.144,1.8l-1.8,0.36c-1.009,0.216-1.585,0.432-1.585,0.936c0,0.864,1.656,5.545,2.089,6.769l2.304,6.625
	C3.71-0.616,5.079,3.2,5.367,3.344C5.583,3.2,6.734,0.968,8.031-1.984l2.447-5.688c1.584-3.745,2.52-6.409,2.52-7.201
	c0-0.504-0.432-1.008-1.727-1.224l-2.232-0.36c-0.504-0.36-0.432-1.584,0.145-1.8c2.303,0.144,4.463,0.216,6.336,0.216
	c1.799,0,3.455-0.072,5.473-0.216c0.576,0.288,0.648,1.368,0.143,1.8l-1.223,0.216c-2.377,0.433-3.674,2.521-6.121,7.633
	L9.758-0.328C7.383,4.496,1.478,17.025-2.05,24.874c-1.225,2.735-2.952,3.384-4.608,3.384C-8.747,28.258-9.827,26.962-9.827,25.162z
	"/>
<path d="M0.536,19.779c-3.889,0-6.696,0.072-7.561,0.216c-0.288-0.144-0.433-0.432-0.433-0.72c1.44-1.729,4.753-6.841,6.913-10.585
	L7.089-4.271c1.151-2.016,0.647-2.16-0.648-2.16H1.472c-2.16,0-3.888,0.216-4.968,1.08C-4.721-4.415-5.44-2.759-6.089-1.174
	c-0.359,0.432-1.439,0.288-1.656-0.288c0.145-1.872,1.368-6.697,2.377-8.425c0.216-0.144,0.647-0.144,0.863,0
	c0.217,1.224,1.009,1.296,5.113,1.296h10.225c1.944,0,3.312,0,4.393-0.216c0.288,0.144,0.432,0.36,0.359,0.72
	c-1.512,2.088-3.24,4.752-5.328,8.208L1.544,14.739c-1.512,2.592-1.368,2.88,1.368,2.88H5.36c2.809,0,6.48,0,8.497-2.16
	c0.792-0.864,1.512-2.376,2.304-4.176c0.504-0.288,1.368-0.145,1.584,0.432c-0.647,3.528-1.728,6.912-2.664,8.28
	c-2.376-0.144-4.752-0.216-8.064-0.216H0.536z"/>
<path d="M12.096,12.524c-0.504-1.584-0.792-1.8-2.952-1.8H-1.729c-1.8,0-2.232,0.216-2.736,1.729l-2.52,7.561
	c-1.08,3.24-1.584,5.185-1.584,5.977c0,0.864,0.36,1.296,2.088,1.439l2.376,0.217c0.504,0.359,0.504,1.512-0.144,1.8
	c-1.872-0.145-4.104-0.145-7.488-0.216c-2.376,0-4.969,0.144-6.913,0.216c-0.432-0.288-0.576-1.44-0.144-1.8l2.376-0.217
	c1.728-0.144,3.312-0.936,4.32-3.528c1.296-3.312,3.312-7.992,6.337-16.057l7.344-19.442c1.008-2.592,1.44-3.96,1.224-5.112
	c1.729-0.504,2.953-1.8,3.745-2.736c0.432,0,0.936,0.145,1.08,0.648c0.936,3.168,2.088,6.48,3.168,9.648l9.865,28.947
	c2.088,6.192,3.023,7.272,6.12,7.632l1.944,0.217c0.504,0.359,0.359,1.512,0,1.8c-2.952-0.145-5.473-0.216-8.713-0.216
	c-3.456,0-6.192,0.144-8.281,0.216c-0.575-0.288-0.647-1.44-0.144-1.8l2.088-0.217c1.513-0.144,2.521-0.575,2.521-1.296
	c0-0.792-0.36-2.088-0.937-3.816L12.096,12.524z M-2.161,6.116c-0.576,1.656-0.504,1.729,1.512,1.729h8.856
	c2.089,0,2.232-0.288,1.585-2.232L5.903-6.125c-0.576-1.728-1.224-3.672-1.656-4.536H4.104c-0.216,0.36-0.936,2.088-1.728,4.248
	L-2.161,6.116z"/>
<path d="M-7.366-9.401c0-5.329-0.288-6.697-3.528-6.985l-2.304-0.216c-0.576-0.432-0.504-1.512,0.072-1.8
	c3.888-0.36,8.785-0.576,15.481-0.576c4.536,0,8.856,0.36,12.097,2.016c3.097,1.512,5.473,4.393,5.473,9.001
	c0,5.185-3.024,7.849-7.345,9.865c0,0.72,0.576,0.936,1.368,1.08c3.889,0.72,9.649,4.321,9.649,12.025
	c0,8.353-6.193,13.97-19.154,13.97c-2.088,0-5.617-0.217-8.641-0.217c-3.168,0-5.617,0.145-8.281,0.217
	c-0.432-0.217-0.576-1.369-0.144-1.801l1.296-0.216c3.816-0.647,3.96-1.44,3.96-9.001V-9.401z M-1.462,0.176
	c0,2.016,0.072,2.16,3.745,2.016c7.344-0.288,11.304-2.448,11.304-9.217c0-7.057-5.256-9.721-10.728-9.721
	c-1.584,0-2.665,0.144-3.312,0.432c-0.72,0.216-1.008,0.576-1.008,1.872V0.176z M-1.462,16.881c0,2.593,0.144,6.265,1.512,7.85
	c1.368,1.656,3.528,2.016,5.688,2.016c6.409,0,11.305-2.881,11.305-10.081c0-5.688-2.881-12.313-14.329-12.313
	c-3.889,0-4.177,0.432-4.177,1.873V16.881z"/>
<path d="M-8.681-13.794c5.256-4.104,11.953-6.12,19.441-6.12c3.889,0,9.361,0.792,12.746,1.728c0.863,0.217,1.367,0.36,2.016,0.288
	c0.072,1.656,0.432,6.193,1.008,10.585C26.17-6.81,25.09-6.737,24.586-7.169c-1.08-4.896-4.32-10.513-14.762-10.513
	c-11.017,0-20.378,6.984-20.378,21.89c0,15.121,9.577,23.474,21.386,23.474c9.289,0,13.394-6.048,15.05-10.297
	c0.504-0.359,1.584-0.216,1.872,0.288c-0.504,3.744-2.377,8.497-3.457,9.865c-0.863,0.144-1.728,0.432-2.52,0.72
	c-1.584,0.576-6.769,1.656-11.377,1.656c-6.48,0-12.673-1.296-17.93-4.824c-5.76-3.961-10.225-10.513-10.225-19.802
	C-17.754-2.705-14.154-9.545-8.681-13.794z"/>
<path d="M-13.699-9.581c0-5.041-0.36-6.553-3.384-6.985l-1.584-0.216c-0.576-0.36-0.648-1.512,0.072-1.8
	c6.121-0.36,11.953-0.576,18.074-0.576c6.048,0,11.161,0.432,15.841,2.16C25.04-13.47,29.937-5.261,29.937,4.244
	c0,9.145-4.393,16.993-12.601,21.457c-4.681,2.521-10.585,3.457-16.13,3.457c-4.608,0-9.217-0.576-11.737-0.576
	c-3.024,0-5.617,0.072-9.001,0.216c-0.432-0.216-0.576-1.368-0.144-1.8l1.656-0.217c4.176-0.575,4.32-1.439,4.32-9V-9.581z
	 M-7.795,16.125c0,3.816,0.216,6.121,1.44,7.849c1.584,2.232,4.32,2.952,8.856,2.952c13.97,0,20.234-9.145,20.234-22.538
	c0-7.92-3.816-21.313-22.682-21.313c-4.249,0-6.553,0.576-7.129,1.008c-0.576,0.432-0.72,2.232-0.72,5.473V16.125z"/>
<path d="M-7.507-7.961c0-7.489-0.144-8.569-4.393-9.073l-1.152-0.144c-0.432-0.288-0.288-1.584,0.144-1.8
	c3.097,0.144,5.544,0.216,8.497,0.216H9.127c4.608,0,8.856,0,9.721-0.216c0.432,1.224,0.864,6.409,1.152,9.577
	c-0.288,0.432-1.44,0.576-1.801,0.144c-1.08-3.384-1.728-5.904-5.473-6.84c-1.512-0.36-3.816-0.432-6.984-0.432H0.558
	c-2.16,0-2.16,0.144-2.16,2.88V0.752c0,2.016,0.216,2.016,2.376,2.016H4.95c3.024,0,5.257-0.144,6.12-0.432
	c0.864-0.288,1.368-0.72,1.729-2.52l0.576-2.953c0.36-0.432,1.584-0.432,1.872,0.072c0,1.728-0.288,4.536-0.288,7.272
	c0,2.593,0.288,5.329,0.288,6.913c-0.288,0.504-1.512,0.504-1.872,0.072l-0.648-2.809c-0.288-1.297-0.792-2.377-2.231-2.736
	C9.486,5.36,7.759,5.288,4.95,5.288H0.773c-2.16,0-2.376,0.072-2.376,1.944v10.152c0,3.816,0.216,6.266,1.368,7.489
	c0.864,0.864,2.376,1.655,8.713,1.655c5.545,0,7.633-0.287,9.217-1.08c1.296-0.719,3.24-3.24,5.112-6.984
	c0.504-0.359,1.513-0.144,1.801,0.504c-0.505,2.521-2.305,8.065-3.241,10.01c-6.48-0.145-12.889-0.217-19.297-0.217h-6.48
	c-3.097,0-5.545,0.072-9.793,0.217c-0.432-0.217-0.576-1.369-0.144-1.801l2.376-0.216c4.104-0.36,4.465-1.44,4.465-9.001V-7.961z"/>
<path d="M0.99,1.544c0,1.944,0.216,1.944,2.376,1.944h4.897c2.952,0,5.257-0.144,6.121-0.432c0.792-0.288,1.368-0.648,1.8-2.521
	l0.648-2.88c0.359-0.432,1.584-0.432,1.872,0c0,1.729-0.288,4.608-0.288,7.273c0,2.592,0.288,5.328,0.288,6.984
	c-0.288,0.433-1.368,0.433-1.872,0l-0.721-2.808c-0.359-1.296-0.936-2.304-2.304-2.736c-1.008-0.288-2.809-0.36-5.545-0.36H3.366
	c-2.16,0-2.376,0.072-2.376,1.945v10.008c0,7.561,0.145,8.641,4.393,9.001l2.449,0.216c0.432,0.289,0.288,1.584-0.144,1.801
	c-4.25-0.145-6.698-0.217-9.578-0.217c-3.168,0-5.616,0.072-9.001,0.217c-0.432-0.217-0.576-1.369-0.144-1.801l1.8-0.216
	c4.177-0.504,4.32-1.44,4.32-9.001V-7.961c0-7.561-0.144-8.569-4.32-9.073l-1.152-0.144c-0.432-0.288-0.288-1.584,0.145-1.8
	c3.023,0.144,5.472,0.216,8.353,0.216h13.25c4.608,0,8.785,0,9.721-0.216c0,3.312,0.072,6.769,0.216,9.505
	c-0.216,0.432-1.224,0.648-1.728,0.216c-0.576-3.24-1.44-5.904-5.041-6.84c-1.584-0.432-3.96-0.432-6.984-0.432H3.15
	c-2.16,0-2.16,0.144-2.16,2.88V1.544z"/>
<path d="M24.378,21.417c0,2.881,0.432,4.608,1.728,5.112c0.217,0.217,0.217,0.648-0.071,0.864c-0.864,0-2.16,0.288-3.528,0.648
	c-3.816,1.008-9.001,1.872-12.89,1.872c-8.568,0-16.417-2.376-21.962-7.993c-4.32-4.32-6.624-10.009-6.624-16.345
	c0-6.121,2.016-12.313,6.48-17.065c4.824-5.041,11.953-8.425,22.826-8.425c4.104,0,7.92,0.792,9.145,1.08
	c1.368,0.288,3.601,0.792,4.464,0.647c0,2.377,0.433,6.121,1.08,10.441c-0.216,0.576-1.512,0.648-1.943,0.216
	c-2.017-7.776-7.417-10.225-14.762-10.225c-13.969,0-20.09,9.937-20.09,20.737c0,13.825,7.129,24.698,21.603,24.698
	c4.464,0,7.128-0.936,7.92-2.16c0.36-0.504,0.721-1.8,0.721-4.104v-2.88c0-6.049-0.217-6.48-4.681-6.984l-3.168-0.36
	c-0.576-0.288-0.505-1.584,0-1.8c2.088,0.144,6.048,0.216,10.297,0.216c2.808,0,5.256-0.072,7.632-0.216
	c0.505,0.288,0.576,1.368,0.072,1.8l-1.152,0.145c-3.023,0.359-3.096,2.376-3.096,6.048V21.417z"/>
<path d="M-5.261,5.504c-3.456,0-3.601,0.144-3.601,2.304v10.152c0,7.561,0.36,8.568,4.393,9.001l2.088,0.216
	c0.433,0.289,0.288,1.584-0.144,1.801c-3.889-0.145-6.337-0.217-9.145-0.217c-3.097,0-5.545,0.145-8.354,0.217
	c-0.432-0.217-0.575-1.369-0.144-1.801l1.224-0.216c4.033-0.72,4.177-1.44,4.177-9.001V-7.961c0-7.561-0.504-8.785-4.248-9.073
	l-1.872-0.144c-0.433-0.288-0.288-1.584,0.144-1.8c3.528,0.072,5.977,0.216,9.073,0.216c2.808,0,5.256-0.072,8.353-0.216
	c0.432,0.216,0.576,1.512,0.144,1.8l-1.368,0.144c-4.176,0.432-4.32,1.512-4.32,9.073V0.32c0,2.232,0.145,2.304,3.601,2.304h20.594
	c3.456,0,3.601-0.072,3.601-2.304v-8.281c0-7.561-0.145-8.641-4.393-9.073l-1.368-0.144c-0.432-0.288-0.288-1.584,0.144-1.8
	c3.312,0.144,5.761,0.216,8.713,0.216c2.809,0,5.257-0.072,8.497-0.216c0.432,0.216,0.576,1.512,0.144,1.8l-1.512,0.144
	c-4.177,0.432-4.32,1.512-4.32,9.073v25.922c0,7.561,0.144,8.497,4.32,9.001l1.729,0.216c0.432,0.289,0.288,1.584-0.145,1.801
	c-3.456-0.145-5.904-0.217-8.713-0.217c-2.952,0-5.544,0.072-8.713,0.217c-0.432-0.217-0.575-1.369-0.144-1.801l1.368-0.216
	c4.393-0.72,4.393-1.44,4.393-9.001V7.809c0-2.16-0.145-2.304-3.601-2.304H-5.261z"/>
<path d="M2.048-7.817c0-7.633-0.144-8.857-4.393-9.217l-1.8-0.144c-0.433-0.288-0.288-1.584,0.144-1.8
	c3.601,0.144,6.049,0.216,9.073,0.216c2.88,0,5.328-0.072,8.929-0.216c0.432,0.216,0.576,1.512,0.144,1.8l-1.8,0.144
	c-4.248,0.36-4.393,1.584-4.393,9.217v25.634c0,7.632,0.145,8.641,4.393,9.145l1.8,0.216c0.433,0.289,0.288,1.584-0.144,1.801
	c-3.601-0.145-6.049-0.217-8.929-0.217c-3.024,0-5.473,0.072-9.073,0.217c-0.432-0.217-0.576-1.369-0.144-1.801l1.8-0.216
	c4.249-0.504,4.393-1.513,4.393-9.145V-7.817z"/>
<path d="M5.698-14.945c0-7.993-0.72-8.857-4.969-9.217l-1.8-0.145c-0.432-0.288-0.288-1.584,0.144-1.8
	c4.177,0.144,6.625,0.216,9.649,0.216c2.88,0,5.328-0.072,8.209-0.216c0.432,0.216,0.575,1.512,0.144,1.8l-1.08,0.145
	c-4.248,0.576-4.393,1.584-4.393,9.217v26.714c0,5.688-0.288,10.657-1.656,13.97c-2.376,5.76-7.488,10.368-14.184,10.368
	c-0.864,0-3.097-0.071-3.097-1.512c0-1.225,1.08-3.312,2.593-3.312c0.863,0,1.728,0.145,2.664,0.433
	c1.008,0.288,2.016,0.504,3.024,0.504c1.512,0,2.376-0.864,2.88-1.872c1.656-3.385,1.872-14.186,1.872-18.074V-14.945z"/>
<path d="M-12.344-7.961c0-7.561-0.144-8.713-4.32-9.073l-1.8-0.144c-0.433-0.288-0.288-1.584,0.144-1.8
	c3.528,0.144,5.833,0.216,9.073,0.216c2.808,0,5.256-0.072,8.353-0.216c0.432,0.216,0.576,1.512,0.144,1.8l-1.368,0.144
	c-4.176,0.432-4.32,1.512-4.32,9.073V0.32c0,1.368,0.145,2.736,0.937,2.736c0.647,0,1.512-0.432,2.016-0.792
	C-2.479,1.4-0.606-0.472,0.186-1.192l7.776-7.705c1.368-1.296,4.896-4.969,5.616-5.977c0.36-0.504,0.505-0.864,0.505-1.152
	c0-0.288-0.288-0.504-1.225-0.72l-1.944-0.432c-0.504-0.504-0.432-1.44,0.145-1.8c2.52,0.144,5.4,0.216,7.92,0.216
	c2.521,0,4.969-0.072,7.129-0.216c0.504,0.36,0.576,1.368,0.145,1.8c-1.872,0.144-4.681,0.864-6.697,2.016
	c-2.016,1.152-6.048,4.537-10.08,8.353L2.993-0.688C1.985,0.32,1.338,0.968,1.338,1.544c0,0.504,0.432,1.08,1.367,2.232
	c6.841,7.849,12.386,14.33,18.002,20.234c1.729,1.729,3.312,2.664,5.761,2.952l1.944,0.216c0.504,0.36,0.359,1.584-0.145,1.801
	c-1.872-0.145-4.681-0.217-8.064-0.217c-2.952,0-5.473,0.072-8.785,0.217c-0.504-0.145-0.72-1.369-0.288-1.801l1.656-0.287
	c1.009-0.145,1.729-0.361,1.729-0.721c0-0.432-0.504-1.008-1.008-1.656c-1.368-1.729-3.24-3.672-5.977-6.769l-5.761-6.48
	c-4.104-4.608-5.257-6.048-6.984-6.048c-1.08,0-1.225,0.936-1.225,3.456v9.289c0,7.561,0.145,8.568,4.177,9.001l1.944,0.216
	c0.432,0.289,0.288,1.584-0.145,1.801c-3.528-0.145-5.977-0.217-8.784-0.217c-2.953,0-5.401,0.072-8.354,0.217
	c-0.432-0.217-0.575-1.297-0.144-1.801l1.44-0.216c3.816-0.575,3.96-1.44,3.96-9.001V-7.961z"/>
<path d="M-6.931-7.961c0-7.561-0.144-8.713-4.681-9.073l-1.8-0.144c-0.433-0.288-0.288-1.584,0.144-1.8
	c4.033,0.144,6.48,0.216,9.361,0.216c2.809,0,5.256-0.072,8.856-0.216c0.433,0.216,0.576,1.512,0.145,1.8l-1.729,0.144
	c-4.248,0.36-4.393,1.512-4.393,9.073v25.059c0,4.536,0.216,6.408,1.513,7.776c0.792,0.792,2.16,1.655,7.849,1.655
	c6.12,0,7.633-0.287,8.784-0.936c1.44-0.863,3.312-3.456,4.753-7.129c0.432-0.359,1.8-0.072,1.8,0.433
	c0,0.792-2.016,8.137-3.024,10.081c-3.672-0.145-10.513-0.217-17.93-0.217h-6.624c-3.024,0-5.328,0.072-9.361,0.217
	c-0.432-0.217-0.576-1.369-0.144-1.801l2.16-0.216c4.177-0.433,4.32-1.44,4.32-9.001V-7.961z"/>
<path d="M0.561,9.284c1.656,3.385,3.24,6.696,4.968,9.865h0.145c1.944-3.385,3.744-7.129,5.544-10.801l6.769-13.754
	c3.24-6.552,5.329-10.513,5.473-13.825c2.448,0.217,3.961,0.217,5.4,0.217c1.801,0,4.177-0.072,6.409-0.217
	c0.432,0.288,0.432,1.513,0.071,1.801l-1.512,0.144c-4.536,0.433-5.112,1.801-5.04,6.841c0.144,7.633,0.216,20.954,0.792,31.322
	c0.216,3.601,0.144,5.545,3.528,5.833l2.304,0.216c0.433,0.432,0.36,1.513-0.144,1.8c-2.952-0.144-5.905-0.216-8.497-0.216
	c-2.521,0-5.761,0.072-8.713,0.216c-0.504-0.359-0.576-1.368-0.144-1.8l2.088-0.216c3.528-0.36,3.528-1.513,3.528-6.121
	L23.314-9.438H23.17c-0.504,0.792-3.24,6.553-4.68,9.361l-6.409,12.601c-3.24,6.337-6.48,13.105-7.776,16.418
	c-0.145,0.216-0.433,0.288-0.72,0.288c-0.145,0-0.505-0.072-0.648-0.288C1.712,25.126-1.744,18.069-3.4,14.541l-6.48-13.897
	c-1.512-3.312-3.024-7.057-4.608-10.369h-0.144c-0.288,4.465-0.504,8.641-0.721,12.817c-0.216,4.393-0.504,10.801-0.504,16.922
	c0,5.328,0.433,6.48,3.24,6.696l2.736,0.216c0.504,0.432,0.433,1.584-0.072,1.8c-2.448-0.144-5.256-0.216-7.992-0.216
	c-2.305,0-4.896,0.072-7.345,0.216c-0.432-0.359-0.576-1.439-0.144-1.8l1.584-0.216c3.024-0.433,4.032-0.864,4.464-5.904
	c0.433-4.753,0.792-8.713,1.225-15.842c0.359-5.977,0.647-12.097,0.792-16.058c0.144-4.536-0.433-5.616-4.824-6.192l-1.152-0.144
	c-0.36-0.433-0.288-1.513,0.288-1.801c2.16,0.145,3.888,0.217,5.688,0.217c1.656,0,3.601,0,5.977-0.217
	c-0.288,2.809,1.512,7.273,3.744,11.882L0.561,9.284z"/>
<path d="M25.018,16.053c0,2.16,0,10.729,0.216,12.602c-0.144,0.432-0.576,0.792-1.368,0.792c-0.863-1.224-2.952-3.745-9.217-10.873
	L-2.057-0.437c-1.944-2.232-6.841-8.137-8.353-9.721h-0.145c-0.288,0.864-0.359,2.52-0.359,4.68v15.698
	c0,3.384,0.071,12.744,1.296,14.904c0.432,0.793,1.872,1.225,3.672,1.369l2.232,0.216c0.432,0.575,0.36,1.44-0.144,1.8
	c-3.24-0.145-5.761-0.216-8.425-0.216c-3.024,0-4.969,0.071-7.489,0.216c-0.504-0.359-0.576-1.368-0.144-1.8l1.944-0.216
	c1.656-0.217,2.808-0.648,3.168-1.44c1.008-2.593,0.937-11.377,0.937-14.833v-20.81c0-2.016-0.072-3.528-1.585-5.185
	c-1.008-1.008-2.736-1.512-4.464-1.728l-1.225-0.144c-0.432-0.432-0.432-1.512,0.145-1.8c3.024,0.216,6.841,0.216,8.137,0.216
	c1.152,0,2.376-0.072,3.312-0.216C-8.105-15.774,0.392-6.269,2.768-3.605l6.984,7.849c4.969,5.545,8.497,9.577,11.882,13.034h0.144
	c0.288-0.36,0.288-1.513,0.288-3.024v-15.41c0-3.384-0.072-12.745-1.44-14.905c-0.432-0.648-1.584-1.08-4.464-1.44l-1.225-0.144
	c-0.504-0.432-0.432-1.584,0.145-1.8c3.312,0.144,5.761,0.216,8.496,0.216c3.097,0,4.969-0.072,7.417-0.216
	c0.576,0.36,0.576,1.368,0.145,1.8l-1.009,0.144c-2.304,0.36-3.744,0.936-4.032,1.512c-1.224,2.592-1.08,11.521-1.08,14.833V16.053z
	"/>
<path d="M-20.31,5.504c0-14.401,10.801-25.418,25.634-25.418c16.633,0,24.987,12.024,24.987,24.698
	c0,14.545-11.09,25.13-24.987,25.13C-10.662,29.914-20.31,18.465-20.31,5.504z M23.109,7.016c0-11.881-5.256-24.697-19.009-24.697
	c-7.489,0-17.21,5.112-17.21,20.882c0,10.656,5.185,24.481,19.37,24.481C14.9,27.682,23.109,21.201,23.109,7.016z"/>
<path d="M0.056,17.961c0,7.561,0.145,8.497,4.753,9.001l1.944,0.216c0.432,0.36,0.287,1.584-0.145,1.801
	c-4.104-0.145-6.48-0.217-9.36-0.217c-3.024,0-5.617,0.072-8.785,0.217c-0.432-0.217-0.576-1.369-0.144-1.801l1.512-0.216
	c4.177-0.575,4.32-1.44,4.32-9.001v-26.57c0-6.121-0.144-7.345-3.385-7.705l-2.592-0.288c-0.504-0.432-0.432-1.512,0.145-1.8
	c3.815-0.504,8.28-0.576,14.257-0.576s10.44,0.792,13.825,2.88c3.312,2.088,5.761,5.833,5.761,10.801
	c0,6.625-4.104,9.937-7.201,11.449c-3.168,1.512-6.984,2.16-9.937,2.16C4.521,8.096,4.521,7.016,4.952,6.873
	C12.729,5.432,15.537,1.04,15.537-5.225c0-6.985-4.104-11.521-11.593-11.521c-3.816,0-3.889,0.288-3.889,2.592V17.961z"/>
<path d="M25.4-2.524c0,11.881-7.345,21.025-17.426,24.05c-0.144,0.36,0.145,0.648,0.576,1.08
	c3.673,3.528,10.297,9.433,16.058,11.305c2.664,0.864,5.04,1.009,6.696,1.009c0.721,0,2.448-0.217,3.457-0.648
	c0.432,0.072,0.575,0.72,0.359,1.08c-2.304,1.296-5.544,1.872-8.064,1.872c-3.312,0-7.417-0.72-11.665-2.664
	C9.487,31.822,4.734,27.646,2.07,25.054c-2.16-2.16-2.809-2.305-4.824-2.664c-1.872-0.288-4.465-0.721-7.057-1.729
	C-19.388,17.061-25.22,8.492-25.22-1.805c0-14.401,10.801-25.418,25.634-25.418C17.048-27.223,25.4-15.198,25.4-2.524z M18.2-0.293
	c0-11.881-5.257-24.697-19.01-24.697c-7.489,0-17.21,5.112-17.21,20.882c0,10.656,5.185,24.481,19.37,24.481
	C9.991,20.373,18.2,13.893,18.2-0.293z"/>
<path d="M-11.693-8.177c0-6.84-0.216-8.064-3.168-8.424l-2.305-0.288c-0.504-0.36-0.504-1.512,0.072-1.8
	c4.032-0.36,9.001-0.576,16.058-0.576c4.464,0,8.713,0.36,12.024,2.16c3.457,1.8,5.977,5.041,5.977,10.081
	c0,6.84-5.4,10.585-9.001,12.025c-0.359,0.432,0,1.152,0.36,1.729c5.761,9.289,9.577,15.049,14.474,19.153
	c1.224,1.08,3.024,1.872,4.968,2.017c0.36,0.144,0.433,0.72,0.072,1.008c-0.647,0.216-1.8,0.359-3.168,0.359
	c-6.121,0-9.793-1.8-14.905-9.072C7.893,17.529,4.94,12.561,2.708,9.32c-1.08-1.584-2.232-2.305-5.112-2.305
	c-3.24,0-3.385,0.072-3.385,1.585v9.073c0,7.561,0.145,8.424,4.32,9l1.513,0.217c0.432,0.359,0.288,1.584-0.145,1.799
	c-3.24-0.144-5.688-0.215-8.568-0.215c-3.024,0-5.616,0.071-9.001,0.215c-0.432-0.215-0.576-1.295-0.144-1.799l1.8-0.217
	c4.177-0.504,4.32-1.439,4.32-9V-8.177z M-5.789,2.12c0,1.296,0,2.088,0.216,2.376c0.217,0.216,1.297,0.36,4.969,0.36
	c2.593,0,5.328-0.288,7.417-1.872c1.944-1.512,3.6-4.032,3.6-8.929c0-5.688-3.528-11.089-11.521-11.089
	c-4.465,0-4.681,0.288-4.681,2.304V2.12z"/>
<path d="M3.92,29.914c-6.049,0-9.865-1.872-11.233-2.664c-0.864-1.584-1.8-6.696-1.944-10.081c0.36-0.504,1.44-0.648,1.729-0.216
	c1.08,3.672,4.032,10.729,12.385,10.729c6.048,0,9.001-3.96,9.001-8.28c0-3.169-0.648-6.697-5.904-10.081L1.112,4.855
	c-3.601-2.376-7.776-6.48-7.776-12.385c0-6.841,5.328-12.385,14.688-12.385c2.232,0,4.826,0.432,6.697,0.936
	c0.936,0.288,1.943,0.433,2.52,0.433c0.648,1.728,1.297,5.761,1.297,8.784c-0.287,0.433-1.439,0.648-1.801,0.217
	c-0.936-3.457-2.879-8.137-9.793-8.137c-7.056,0-8.568,4.68-8.568,7.992c0,4.177,3.456,7.201,6.12,8.856l5.76,3.601
	c4.537,2.809,9.002,6.984,9.002,13.825C19.258,24.514,13.281,29.914,3.92,29.914z"/>
<path d="M7.844,19.037c0,7.561,0.145,8.641,4.32,9.001l2.305,0.216c0.432,0.288,0.289,1.584-0.145,1.8
	c-4.104-0.144-6.551-0.216-9.432-0.216c-2.88,0-5.4,0.072-10.009,0.216c-0.432-0.216-0.576-1.439,0-1.8l2.592-0.216
	c4.104-0.36,4.465-1.44,4.465-9.001v-32.187c0-2.232,0-2.304-2.16-2.304h-3.96c-3.097,0-7.057,0.144-8.857,1.8
	c-1.728,1.584-2.448,3.168-3.24,4.968c-0.576,0.432-1.584,0.072-1.872-0.504c1.152-3.24,2.232-7.849,2.736-10.729
	c0.216-0.144,1.152-0.216,1.368,0c0.432,2.304,2.809,2.232,6.12,2.232h29.164c3.887,0,4.535-0.144,5.615-2.016
	c0.361-0.144,1.152-0.072,1.297,0.216c-0.793,2.952-1.297,8.785-1.08,10.945c-0.289,0.576-1.512,0.576-1.873,0.144
	c-0.215-1.8-0.719-4.464-1.799-5.256c-1.656-1.224-4.393-1.8-8.354-1.8H9.934c-2.16,0-2.09,0.072-2.09,2.448V19.037z"/>
<path d="M20.868-1.157c0-4.464-0.144-12.745-1.368-14.905c-0.504-0.864-1.8-1.368-3.6-1.512L14.1-17.718
	c-0.432-0.504-0.288-1.44,0.145-1.728c2.736,0.144,5.4,0.216,8.208,0.216c3.024,0,4.969-0.072,7.562-0.216
	c0.575,0.36,0.504,1.296,0.144,1.728l-1.729,0.144c-1.8,0.144-3.168,0.792-3.6,1.729C23.82-13.47,23.82-5.189,23.82-1.157V6.98
	c0,6.264-1.008,12.889-5.04,17.209c-3.097,3.385-8.425,5.257-13.753,5.257c-4.969,0-9.938-0.937-13.466-3.96
	c-3.816-3.169-5.616-8.426-5.616-16.994V-8.501c0-7.488-0.144-8.712-4.32-9.073l-1.8-0.144c-0.433-0.288-0.288-1.512,0.144-1.728
	c3.601,0.144,6.049,0.216,8.929,0.216c2.952,0,5.329-0.072,8.857-0.216c0.432,0.216,0.575,1.44,0.144,1.728l-1.729,0.144
	c-4.176,0.36-4.32,1.584-4.32,9.073V7.053c0,11.592,3.601,19.225,14.617,19.225c10.441,0,14.401-8.209,14.401-19.153V-1.157z"/>
<path d="M-12.997-11.598c-1.655-4.032-2.735-5.544-5.832-5.904l-1.296-0.144c-0.504-0.432-0.433-1.44,0.144-1.8
	c2.088,0.144,4.393,0.216,7.489,0.216c3.168,0,5.688-0.072,8.712-0.216c0.505,0.288,0.648,1.368,0.145,1.8l-1.08,0.144
	c-2.736,0.36-3.312,0.792-3.385,1.368c0.145,0.72,1.368,4.608,3.601,10.081C-1.187,2.3,2.125,10.58,5.725,18.789
	c2.232-4.752,5.256-12.169,6.913-15.985c2.088-4.896,5.473-13.033,6.696-16.129c0.576-1.512,0.648-2.304,0.648-2.808
	s-0.721-1.08-3.24-1.368l-1.296-0.144c-0.505-0.432-0.36-1.512,0.144-1.8c2.017,0.144,4.752,0.216,7.488,0.216
	c2.377,0,4.608-0.072,6.985-0.216c0.504,0.288,0.504,1.44,0.144,1.8l-2.16,0.144c-1.729,0.144-2.809,1.008-3.744,2.52
	c-2.017,3.384-4.824,9.217-8.064,16.562l-3.889,8.857C9.47,17.061,6.085,25.414,4.862,29.23c-0.217,0.144-0.505,0.216-0.792,0.216
	c-0.36,0-0.721-0.072-1.081-0.216c-0.792-3.025-2.088-6.553-3.312-9.577L-12.997-11.598z"/>
<path d="M-30.744-17.718c-0.433-0.432-0.36-1.44,0.216-1.728c1.944,0.144,5.185,0.216,7.417,0.216c2.016,0,5.688-0.072,8.208-0.216
	c0.648,0.216,0.576,1.224,0.145,1.728l-1.656,0.144c-1.512,0.144-2.376,0.576-2.376,1.224c0,0.864,1.512,4.537,3.744,9.649
	C-11.015,2.3-6.767,11.301-2.59,20.157c1.729-3.601,3.672-7.633,5.544-11.665C3.603,7.124,4.106,5.9,4.106,5.54
	S3.891,4.532,3.53,3.668C1.011-2.093-1.654-7.853-4.39-13.614c-1.08-2.232-2.16-3.744-4.608-3.96l-1.729-0.144
	c-0.504-0.576-0.432-1.44,0.144-1.728c2.089,0.144,4.825,0.216,7.705,0.216c3.601,0,6.265-0.072,7.921-0.216
	c0.504,0.216,0.576,1.152,0.144,1.728l-1.872,0.144c-2.808,0.216-2.88,0.72-1.512,3.96c1.512,3.528,3.528,8.065,5.544,12.529
	c1.368-2.809,2.664-5.544,4.249-9.433c2.592-6.12,2.231-6.913-0.072-7.057l-2.16-0.144c-0.504-0.72-0.36-1.512,0.144-1.728
	c1.944,0.144,4.104,0.216,6.769,0.216c2.377,0,5.257-0.072,6.913-0.216c0.504,0.216,0.576,1.152,0.144,1.728l-2.088,0.144
	c-3.024,0.216-4.32,3.457-5.904,6.409c-1.513,2.664-4.536,8.929-5.616,11.449c-0.36,0.72-0.648,1.44-0.648,1.728
	S9.219,2.876,9.579,3.74c2.448,5.544,4.969,10.945,7.345,16.417c2.232-5.04,4.393-10.081,6.48-15.193
	c1.44-3.456,5.257-13.033,5.761-14.329c0.936-2.592,2.16-5.688,2.16-6.553c0-1.008-0.864-1.584-2.376-1.656l-2.089-0.144
	c-0.576-0.648-0.504-1.44,0.072-1.728c2.736,0.144,4.681,0.216,6.913,0.216c2.735,0,4.824-0.072,6.696-0.216
	c0.576,0.216,0.647,1.152,0.144,1.728l-1.368,0.144c-3.6,0.36-4.248,2.521-8.568,12.529L25.492,7.124
	c-3.168,7.345-6.048,14.401-9,22.106c-0.217,0.144-0.505,0.216-0.864,0.216c-0.36,0-0.721-0.072-1.009-0.216
	c-2.304-6.409-6.48-15.41-8.712-20.45c-2.593,5.257-6.913,14.474-9.001,20.45c-0.216,0.144-0.504,0.216-0.864,0.216
	s-0.72-0.072-1.08-0.216c-1.225-3.025-4.032-9.506-4.969-11.594C-14.615,7.628-19.079-2.381-23.76-12.39
	c-1.368-2.952-2.232-4.896-5.257-5.185L-30.744-17.718z"/>
<path d="M29.224,27.178c0.504,0.432,0.432,1.44-0.072,1.801c-3.312-0.145-6.12-0.217-9.072-0.217c-3.24,0-6.696,0.072-9.289,0.217
	c-0.432-0.432-0.504-1.369-0.144-1.801l2.088-0.216c1.656-0.144,2.448-0.433,2.448-0.937c0-0.432-0.145-1.151-1.584-3.168
	C10.502,18.465,6.47,12.488,3.302,8.385C1.357,10.832-3.971,18.682-6.852,23.722c-0.576,1.009-0.936,1.8-0.936,2.304
	c0,0.433,0.647,0.793,2.088,0.937l1.944,0.216c0.504,0.432,0.359,1.44-0.072,1.801c-2.592-0.145-5.328-0.217-7.776-0.217
	s-5.112,0.072-7.417,0.217c-0.648-0.288-0.72-1.369-0.216-1.801l1.8-0.216c3.889-0.433,6.409-3.528,8.569-6.408
	c0.863-1.152,5.832-7.489,9.792-13.249C1.43,6.584,1.573,6.08,1.573,5.864S1.285,5,0.709,4.208l-10.801-15.481
	c-2.376-3.384-3.744-4.824-6.265-5.4l-2.304-0.504c-0.36-0.432-0.288-1.584,0.144-1.8c3.385,0.144,5.761,0.216,8.353,0.216
	c2.809,0,6.049-0.072,8.137-0.216c0.505,0.216,0.576,1.296,0.145,1.8l-2.017,0.144c-1.296,0.072-2.16,0.504-2.16,0.936
	c0,0.648,0.721,1.872,2.16,3.96C-1.522-8.681,2.726-2.201,5.317,1.04c1.872-2.304,8.353-12.529,9.649-14.689
	c0.576-0.936,1.008-1.872,1.008-2.376c0-0.36-1.08-0.792-2.376-0.936l-1.872-0.216c-0.433-0.504-0.433-1.512,0.144-1.8
	c2.521,0.144,4.824,0.216,7.633,0.216c2.664,0,4.681-0.072,6.912-0.216c0.505,0.36,0.576,1.368,0.145,1.8l-1.729,0.144
	c-2.16,0.216-4.752,2.376-7.704,6.121c-2.809,3.6-5.905,7.92-9.361,12.745C7.334,2.48,7.046,2.984,7.046,3.2
	c0,0.216,0.072,0.72,0.936,1.872l12.17,17.137c2.448,3.385,4.32,4.537,6.552,4.753L29.224,27.178z"/>
<path d="M7.458,17.817c0,7.704,0.432,8.856,4.32,9.145l2.736,0.216c0.432,0.432,0.288,1.584-0.145,1.801
	c-4.464-0.145-6.912-0.217-9.793-0.217c-3.023,0-5.616,0.072-9.433,0.217c-0.432-0.217-0.576-1.369-0.144-1.801l2.231-0.216
	c4.177-0.433,4.321-1.44,4.321-9.145v-3.673c0-3.96-0.217-4.896-2.305-8.928l-8.497-16.562c-2.448-4.752-3.528-5.112-5.688-5.473
	l-2.016-0.36c-0.433-0.504-0.36-1.512,0.144-1.8c2.305,0.144,4.896,0.216,8.353,0.216c3.312,0,5.905-0.072,7.705-0.216
	c0.648,0.216,0.648,1.368,0.216,1.8l-0.936,0.144c-2.521,0.36-3.024,0.72-3.024,1.296c0,0.72,1.872,4.825,2.232,5.544
	C0.401-4.865,3.065,0.824,5.874,5.792c2.231-3.816,4.608-7.993,6.769-12.169c2.016-3.744,4.68-8.641,4.68-9.505
	c0-0.432-1.296-0.936-3.023-1.152l-1.297-0.144c-0.504-0.504-0.432-1.512,0.145-1.8c2.592,0.144,4.681,0.216,6.912,0.216
	c2.232,0,4.249-0.072,6.697-0.216c0.575,0.36,0.647,1.368,0.144,1.8l-2.017,0.36c-3.744,0.648-5.904,5.185-9.504,11.377
	l-4.537,7.849C7.674,7.881,7.458,8.528,7.458,14.072V17.817z"/>
<path d="M6.765-2.912c3.744-5.329,5.832-8.064,6.984-10.225c0.504-0.864,0.864-1.44,0.864-1.944c0-0.36-0.721-0.576-2.593-0.576
	H1.292c-5.761,0-9.001,0.504-10.729,2.376c-1.512,1.656-2.592,3.672-3.168,4.896c-0.648,0.288-1.512,0.072-1.8-0.504
	c0.863-2.52,2.088-6.84,2.952-10.801c0.288-0.216,0.864-0.216,1.224,0c0.216,1.728,1.296,1.8,7.129,1.8h19.01
	c5.185,0,7.488-0.072,8.28-0.216c0.288,0.072,0.433,0.36,0.433,0.648c-1.944,1.656-8.065,10.009-11.81,15.41L0.932,15.09
	C0.14,16.242-6.197,25.171-6.197,26.251c0,0.72,0.721,0.864,2.017,1.009c1.872,0.143,5.616,0.143,10.657,0.143
	c4.608,0,10.585-0.143,13.32-1.655c2.089-1.152,3.816-3.816,5.041-6.624c0.647-0.217,1.584-0.145,1.8,0.504
	c-0.647,3.312-2.088,8.424-3.24,10.225c-3.96-0.145-8.064-0.217-13.105-0.217H-8.213c-3.816,0-6.409,0.145-8.065,0.217
	c-0.287-0.145-0.359-0.504-0.359-0.864c1.512-1.44,5.616-6.553,7.849-9.793L6.765-2.912z"/>
</svg>
