<?xml version="1.0" encoding="utf-8"?>
<!-- Generator: Adobe Illustrator 15.0.2, SVG Export Plug-In . SVG Version: 6.00 Build 0)  -->
<!DOCTYPE svg PUBLIC "-//W3C//DTD SVG 1.1//EN" "http://www.w3.org/Graphics/SVG/1.1/DTD/svg11.dtd">
<svg version="1.1" id="Layer_1" xmlns="http://www.w3.org/2000/svg" xmlns:xlink="http://www.w3.org/1999/xlink" x="0px" y="0px"
	 width="468px" height="468px" viewBox="0 0 468 468" enable-background="new 0 0 468 468" xml:space="preserve">
<path fill-rule="evenodd" clip-rule="evenodd" fill="#E41B5B" d="M-65.268,57.186L3.548-11.627l10.898-10.895l5.449-5.448
	c0.499-0.506,0.818-0.802,1.072-1.188c0.254-0.389,0.488-0.797,0.617-1.247c0.29-0.887,0.306-1.863,0.059-2.763
	c-0.479-1.811-2.131-3.243-3.991-3.461c-0.926-0.127-1.891,0.032-2.725,0.442c-0.414,0.21-0.812,0.459-1.148,0.789
	c-0.371,0.339-0.885,0.876-1.32,1.305l1.365,1.363l-4.752-0.516L8.549-38l1.365,1.363c0.48-0.472,0.85-0.87,1.422-1.401
	c0.588-0.564,1.283-1.019,2.014-1.383c1.471-0.721,3.15-0.994,4.769-0.776c3.269,0.39,6.146,2.882,6.992,6.066
	c0.436,1.576,0.404,3.273-0.103,4.83c-0.236,0.784-0.629,1.515-1.084,2.191c-0.457,0.688-1.086,1.276-1.485,1.683l-5.448,5.448
	L6.092-9.083L-62.725,59.73L-65.268,57.186z"/>
<g>
	<path fill-rule="evenodd" clip-rule="evenodd" fill="#27A5CC" d="M-53.695,59.73l78.31-78.31l6.207,6.207l3.91-27.897L6.833-36.36
		l6.208,6.208l-78.309,78.31L-53.695,59.73z"/>
	<polygon fill-rule="evenodd" clip-rule="evenodd" fill="#E68A00" points="-53.695,58.537 -64.074,48.156 13.638,-29.556 
		14.236,-30.152 13.638,-30.749 8.628,-35.76 33.74,-39.278 30.22,-14.167 25.211,-19.176 24.615,-19.773 24.018,-19.176 
		-53.695,58.537 	"/>
	<polygon fill-rule="evenodd" clip-rule="evenodd" fill="#77C21D" points="-53.695,57.343 -62.88,48.157 14.236,-28.958 
		15.429,-30.152 14.236,-31.346 10.423,-35.158 32.75,-38.287 29.621,-15.962 25.808,-19.773 24.615,-20.967 23.421,-19.773 
		-53.695,57.343 	"/>
	<polygon fill-rule="evenodd" clip-rule="evenodd" fill="#616353" points="-53.695,56.149 -61.686,48.157 14.832,-28.361 
		16.025,-29.556 16.623,-30.152 16.025,-30.749 14.832,-31.942 12.217,-34.558 31.757,-37.296 29.019,-17.756 26.406,-20.37 
		25.211,-21.563 24.615,-22.159 24.017,-21.563 22.824,-20.37 -53.695,56.149 	"/>
</g>
<path fill-rule="evenodd" clip-rule="evenodd" fill="#282A1F" d="M-61.953,59.73l93.788-93.787l1.778,1.778l1.119-7.991l-7.99,1.12
	l1.777,1.777l-93.787,93.788L-61.953,59.73z"/>
<polygon fill-rule="evenodd" clip-rule="evenodd" fill="#77C21D" points="-62.797,59.73 -65.268,57.26 29.612,-37.621 
	30.062,-38.07 29.612,-38.52 28.707,-39.426 34.732,-40.27 33.888,-34.245 32.982,-35.15 32.532,-35.6 32.084,-35.15 -62.797,59.73 
	"/>
<g>
	<g>
		<path fill-rule="evenodd" clip-rule="evenodd" fill="#E68A00" d="M-65.268,30.132h90.2c1.439,0.028,1.925-0.024,2.796-0.367
			c0.765-0.334,1.429-0.893,1.904-1.583c0.46-0.7,0.729-1.511,0.744-2.354c0.017-1.137,0.005-2.462,0.009-3.683v-7.475V7.196
			c-0.021-1.24,0.06-2.622-0.101-3.273c-0.177-0.814-0.587-1.572-1.176-2.173c-0.594-0.593-1.345-1.019-2.158-1.2
			c-0.652-0.185-1.98-0.091-3.244-0.115h-7.475H8.758H5.021C3.692,0.504,1.777,0.187,0.384-0.609
			C-2.573-2.096-4.419-5.627-4.227-8.7v-7.475v-7.475v-3.737c0.002-0.633-0.003-1.223,0.004-1.891
			c0.014-0.825,0.14-1.651,0.374-2.447c0.939-3.202,3.836-5.692,7.149-6.123c0.408-0.076,0.824-0.07,1.233-0.094h0.935h1.869h3.737
			v-2.328l5.809,4.498l-5.809,4.498v-2.328H7.338H5.469H4.534c-0.21,0.023-0.423,0.004-0.627,0.052
			c-1.656,0.207-3.133,1.479-3.603,3.083c-0.114,0.4-0.178,0.813-0.188,1.235c-0.007,0.576-0.002,1.232-0.003,1.845v3.737v7.475
			V-8.7c-0.092,1.929,0.829,3.427,2.327,4.27c0.81,0.397,1.417,0.556,2.579,0.525h3.737h7.475h7.475
			c1.219,0.053,2.414-0.146,4.205,0.223c1.623,0.364,3.12,1.21,4.286,2.383c1.161,1.179,1.982,2.689,2.331,4.315
			c0.329,1.802,0.146,2.937,0.196,4.181v7.475v7.475c-0.004,1.27,0.009,2.437-0.01,3.791c-0.032,1.654-0.565,3.298-1.486,4.674
			c-0.934,1.369-2.244,2.469-3.768,3.133c-1.422,0.699-3.489,0.78-4.529,0.729h-90.2V30.132z"/>
	</g>
</g>
<path fill-rule="evenodd" clip-rule="evenodd" fill="#282A1F" d="M-61.953,59.73l93.788-93.787l1.778,1.778l1.119-7.991l-7.99,1.12
	l1.777,1.777l-93.787,93.788L-61.953,59.73z"/>
<polygon fill-rule="evenodd" clip-rule="evenodd" fill="#E68A00" points="-62.23,59.73 -65.268,56.693 28.88,-37.454 
	29.027,-37.603 28.88,-37.75 27.39,-39.24 34.732,-40.27 33.703,-32.927 32.213,-34.418 32.064,-34.565 31.916,-34.418 
	-62.23,59.73 "/>
<polygon fill-rule="evenodd" clip-rule="evenodd" fill="#77C21D" points="-62.512,59.73 -65.268,56.975 29.245,-37.537 
	29.543,-37.835 29.245,-38.133 28.046,-39.333 34.732,-40.27 33.796,-33.582 32.596,-34.782 32.298,-35.08 32,-34.782 
	-62.512,59.73 "/>
<polygon fill-rule="evenodd" clip-rule="evenodd" fill="#282A1F" points="-62.797,59.731 -65.268,57.26 29.613,-37.621 
	29.912,-37.92 30.062,-38.07 29.912,-38.22 29.613,-38.52 28.708,-39.425 34.732,-40.27 33.888,-34.244 32.982,-35.149 
	32.683,-35.449 32.533,-35.599 32.384,-35.449 32.084,-35.149 -62.797,59.731 "/>
<g>
	<polygon fill-rule="evenodd" clip-rule="evenodd" fill="#77C21D" points="-62.796,59.73 -65.268,57.259 29.613,-37.621 
		30.062,-38.07 29.613,-38.52 28.707,-39.426 34.732,-40.27 33.889,-34.245 32.982,-35.15 32.533,-35.6 32.084,-35.15 
		-62.796,59.73 	"/>
	<polygon fill-rule="evenodd" clip-rule="evenodd" fill="#E68A00" points="-62.796,58.976 -64.513,57.259 29.99,-37.244 
		30.438,-37.694 30.814,-38.07 30.438,-38.447 29.99,-38.896 29.84,-39.046 34.107,-39.645 33.509,-35.378 33.359,-35.527 
		32.91,-35.977 32.533,-36.353 32.156,-35.977 31.707,-35.527 -62.796,58.976 	"/>
</g>
<g>
	<g>
		<path fill-rule="evenodd" clip-rule="evenodd" fill="#666666" d="M34.732-38.099h-76.069c-0.625,0.01-1.322-0.03-1.65,0.05
			c-0.41,0.088-0.792,0.293-1.095,0.587c-0.299,0.297-0.514,0.672-0.605,1.078c-0.094,0.326-0.046,0.989-0.058,1.62v3.733v3.732
			v1.866c0.034,0.663-0.126,1.619-0.526,2.315c-0.75,1.477-2.53,2.398-4.079,2.302h-3.769h-3.769h-1.884
			c-0.319,0-0.617,0.002-0.954-0.002c-0.416-0.007-0.832-0.069-1.233-0.187c-1.615-0.469-2.87-1.915-3.087-3.569
			c-0.038-0.204-0.036-0.412-0.048-0.617v-0.466v-0.934v-1.866h-1.174l2.269-2.9l2.268,2.9h-1.174v1.866v0.934v0.466
			c0.012,0.105,0.002,0.212,0.026,0.313c0.104,0.827,0.745,1.565,1.554,1.799c0.202,0.058,0.41,0.089,0.623,0.094
			c0.291,0.004,0.621,0.001,0.931,0.002h1.884h3.769h3.769c0.972,0.046,1.728-0.414,2.152-1.162
			c0.199-0.404,0.279-0.708,0.265-1.288v-1.866v-3.732v-3.733c0.027-0.608-0.073-1.205,0.112-2.1c0.184-0.81,0.609-1.559,1.201-2.14
			c0.595-0.58,1.356-0.99,2.176-1.164c0.908-0.165,1.48-0.073,2.107-0.098h76.069"/>
	</g>
</g>
<g>
	<g>
		<path fill-rule="evenodd" clip-rule="evenodd" fill="#27A5CC" d="M-65.268,51.968L1.239-14.559l16.628-16.631
			c1.241-1.218,3.035-3.138,5.136-4.532c2.066-1.388,4.296-2.587,6.69-3.31c4.75-1.545,9.929-1.64,14.739-0.311
			c9.722,2.579,17.327,11.363,18.518,21.341c0.663,4.937-0.171,10.065-2.371,14.553c-1.111,2.229-2.496,4.351-4.219,6.147
			c-1.622,1.746-2.839,2.872-4.279,4.338l4.163,4.167L41.735,9.609L40.16-4.897l4.162,4.167c1.308-1.329,2.946-2.895,3.98-4.029
			c1.007-1.023,1.769-2.241,2.409-3.505c1.251-2.545,1.737-5.489,1.351-8.315c-0.664-5.676-5.038-10.718-10.563-12.182
			c-2.746-0.756-5.726-0.705-8.432,0.179c-1.374,0.394-2.622,1.107-3.807,1.883c-1.183,0.774-2.083,1.75-3.63,3.273L9.004-6.795
			L-57.502,59.73L-65.268,51.968z"/>
	</g>
</g>
<g>
	<g>
		<path fill-rule="evenodd" clip-rule="evenodd" fill="#27A5CC" d="M56.816-32.891L-6.4,30.342l-15.804,15.809
			c-1.181,1.158-2.885,2.983-4.883,4.309c-1.963,1.319-4.082,2.459-6.358,3.146c-4.515,1.468-9.438,1.559-14.011,0.296
			c-9.24-2.452-16.47-10.802-17.601-20.285c-0.631-4.692,0.162-9.567,2.254-13.833c1.056-2.119,2.372-4.136,4.009-5.843
			c1.543-1.66,2.699-2.73,4.068-4.124l-3.957-3.96l13.791,1.516l1.497,13.79l-3.956-3.961c-1.243,1.263-2.801,2.751-3.783,3.829
			c-0.958,0.974-1.682,2.131-2.29,3.332c-1.188,2.419-1.651,5.217-1.284,7.904c0.632,5.395,4.788,10.188,10.041,11.578
			c2.609,0.719,5.442,0.671,8.015-0.17c1.306-0.374,2.492-1.052,3.618-1.789c1.124-0.736,1.979-1.664,3.449-3.111l15.805-15.809
			L49.436-40.27L56.816-32.891z"/>
		<path fill-rule="evenodd" clip-rule="evenodd" fill="#BA00FF" d="M-40.93,52.782c-2.032,0-4.05-0.272-5.995-0.811
			c-8.479-2.25-15.109-9.893-16.146-18.591c-0.58-4.319,0.154-8.825,2.064-12.718c1.046-2.103,2.278-3.902,3.654-5.339
			c0.987-1.06,1.783-1.847,2.625-2.681c0.467-0.462,0.933-0.924,1.427-1.426l1.389-1.414l-1.336-1.338l6.542,0.72l0.709,6.539
			l-1.365-1.365l-1.416,1.438c-0.435,0.445-0.912,0.915-1.387,1.386c-0.876,0.87-1.781,1.767-2.448,2.499
			c-0.937,0.949-1.778,2.167-2.595,3.774c-1.378,2.805-1.899,6.021-1.481,9.078c0.722,6.179,5.457,11.641,11.509,13.242
			c1.365,0.377,2.802,0.569,4.25,0.569c1.684,0,3.332-0.26,4.897-0.771c1.565-0.447,2.952-1.27,4.094-2.017
			c1.116-0.732,1.95-1.564,3.104-2.714l0.654-0.648l15.813-15.817l61.801-61.821l4.554,4.552L-7.814,28.927l-15.804,15.81
			l-0.586,0.583c-1.1,1.098-2.467,2.465-3.988,3.474c-2.072,1.393-3.976,2.338-5.829,2.895
			C-36.267,52.418-38.577,52.782-40.93,52.782L-40.93,52.782z"/>
	</g>
</g>
<path fill-rule="evenodd" clip-rule="evenodd" fill="#FFFFFF" d="M-65.268,57.186L3.548-11.626l10.898-10.896l5.449-5.447
	c0.499-0.507,0.818-0.802,1.072-1.189s0.488-0.797,0.617-1.247c0.289-0.886,0.306-1.863,0.059-2.763
	c-0.479-1.811-2.132-3.243-3.991-3.461c-0.926-0.127-1.891,0.033-2.725,0.442c-0.414,0.21-0.812,0.46-1.148,0.789
	c-0.372,0.34-0.885,0.876-1.32,1.305l1.365,1.363l-4.753-0.516L8.549-38l1.365,1.364c0.48-0.472,0.85-0.87,1.422-1.402
	c0.588-0.564,1.283-1.018,2.014-1.382c1.471-0.721,3.15-0.995,4.769-0.777c3.269,0.391,6.146,2.882,6.992,6.067
	c0.436,1.576,0.404,3.272-0.103,4.829c-0.236,0.785-0.629,1.516-1.084,2.192c-0.457,0.688-1.086,1.275-1.485,1.683l-5.448,5.447
	L6.092-9.083L-62.725,59.73L-65.268,57.186z"/>
<path fill-rule="evenodd" clip-rule="evenodd" fill="#282A1F" d="M21.81-31.399l0.021-0.02L3.979-13.564L-30.645,21.07
	l-34.623,34.633l4.029,4.027l34.623-34.633L8.008-9.536L25.858-27.39c0.287-0.283,0.54-0.535,0.777-0.771
	c1.277-1.271,2.285-2.274,3.604-3.138c1.241-0.812,2.909-1.813,4.846-2.381c3.427-1.11,7.249-1.189,10.769-0.221
	c7.109,1.883,12.693,8.319,13.557,15.649c0.482,3.596-0.136,7.37-1.741,10.635l-0.008,0.018l-0.009,0.017
	c-0.943,1.858-1.924,3.283-3.087,4.475c-0.441,0.483-0.992,1.053-1.777,1.838c-0.328,0.328-0.667,0.665-1.006,1
	c-0.328,0.325-0.657,0.651-0.976,0.971c-0.191,0.19-0.379,0.38-0.561,0.564l-2.155,2.187l-0.521-0.522l0.492,4.54l4.541,0.499
	l-0.483-0.484l2.116-2.151c0.218-0.221,0.431-0.436,0.641-0.646c0.327-0.327,0.646-0.643,0.966-0.96
	c0.303-0.298,0.604-0.597,0.912-0.905c0.514-0.514,1.208-1.216,2.016-2.084l0.017-0.019l0.016-0.018
	c1.5-1.562,2.846-3.531,4.002-5.85c2.08-4.242,2.883-9.171,2.252-13.859l-0.002-0.022l-0.003-0.023
	c-0.567-4.757-2.664-9.226-5.775-12.812c-3.111-3.585-7.237-6.288-11.862-7.516L47.4-39.384l-0.015-0.005
	c-4.591-1.268-9.588-1.164-14.071,0.295l-0.031,0.01l-0.031,0.01c-2.018,0.608-4.099,1.644-6.363,3.165
	c-1.673,1.11-3.192,2.628-4.412,3.848C22.241-31.826,22.019-31.603,21.81-31.399L21.81-31.399z"/>
<g>
	<g>
		<path fill-rule="evenodd" clip-rule="evenodd" fill="#666666" d="M-48.042,59.73c-2.578,0-5.085-0.826-7.066-2.326
			c-0.397-0.277-0.724-0.578-0.987-0.822l-0.229-0.211l-0.047-0.042l-0.045-0.047l-0.722-0.719l-1.444-1.442l-1.25-1.254
			l-0.187,0.186l-3.339,3.336l-0.574-4.686l-0.978-7.982l-0.357-2.924l2.922,0.359l7.983,0.977l4.69,0.574l-3.342,3.34l-0.184,0.184
			l1.253,1.252l1.441,1.443l0.645,0.645c0.078,0.066,0.152,0.137,0.226,0.204l0.037,0.032l0.021,0.016l0.1,0.076
			c0.385,0.298,0.922,0.47,1.474,0.47c0.431,0,0.837-0.1,1.182-0.288c0.218-0.123,0.435-0.283,0.626-0.467
			c0.285-0.279,0.614-0.605,0.938-0.934l0.467-0.467l2.908-2.907l5.82-5.82l5.819-5.819l0.038-0.037l0.041-0.039
			c0.852-0.775,1.146-1.705,0.869-2.757c-0.18-0.516-0.332-0.794-0.957-1.387l-0.021-0.021l-0.021-0.02l-2.883-2.881l-5.765-5.767
			l-5.763-5.764l-0.038-0.036l-0.035-0.037c-0.224-0.246-0.485-0.496-0.763-0.764c-0.725-0.698-1.629-1.566-2.533-2.943
			c-1.223-1.94-1.847-4.156-1.828-6.445c0.028-2.282,0.697-4.488,1.934-6.393l0.02-0.029l0.018-0.029
			c0.924-1.332,1.803-2.179,2.507-2.859c0.274-0.265,0.54-0.519,0.798-0.798l0.031-0.034l0.033-0.032l33.237-33.237l1.629-1.629
			l1.629,1.629l3.35,3.347l1.629,1.629l-1.631,1.627L-37.953,1.201c-0.267,0.279-0.579,0.584-0.881,0.882
			c-0.438,0.43-1.1,1.082-1.256,1.319c-0.294,0.458-0.438,0.935-0.445,1.428c-0.001,0.467,0.131,0.95,0.373,1.334l0.037,0.056
			l0.033,0.06c0.13,0.2,0.733,0.792,1.133,1.183c0.304,0.3,0.621,0.611,0.924,0.925l5.733,5.734l5.766,5.765l2.834,2.836
			c1.184,1.081,2.76,3.123,3.392,5.411c1.323,4.145-0.093,9.251-3.382,12.193l-5.764,5.762l-5.819,5.819l-2.911,2.91l-0.504,0.504
			c-0.319,0.322-0.639,0.642-0.988,0.983c-0.814,0.788-1.719,1.455-2.699,1.991C-44.082,59.234-46.04,59.73-48.042,59.73
			L-48.042,59.73z"/>
		<path fill-rule="evenodd" clip-rule="evenodd" fill="#BA00FF" d="M-48.042,58.579c-2.327-0.001-4.589-0.743-6.373-2.093
			c-0.364-0.256-0.643-0.514-0.89-0.742l-0.245-0.223l-0.042-0.038l-0.014-0.015l-0.721-0.719l-1.442-1.444l-1.25-1.253
			l-0.815-0.814l-0.814,0.814l-0.185,0.186l-1.67,1.668l-0.287-2.344l-0.977-7.98l-0.18-1.465l1.461,0.182l7.984,0.976l2.343,0.288
			l-1.67,1.668l-0.184,0.186l-0.815,0.813l0.813,0.815l1.253,1.254l1.443,1.441l0.644,0.645l0.032,0.033l0.034,0.027
			c0.064,0.055,0.125,0.111,0.186,0.17l0.069,0.062l0.116,0.088l0.057,0.043c0.583,0.451,1.375,0.711,2.178,0.711
			c0.624,0,1.224-0.149,1.736-0.432c0.316-0.178,0.614-0.399,0.87-0.646c0.296-0.288,0.627-0.619,0.956-0.949l0.465-0.465
			l2.907-2.908l5.821-5.818l5.818-5.82c1.202-1.096,1.632-2.482,1.248-3.939l-0.012-0.045l-0.014-0.044
			c-0.263-0.747-0.555-1.177-1.251-1.839l-2.905-2.902l-5.764-5.766l-5.764-5.764c-0.274-0.301-0.553-0.569-0.85-0.855
			c-0.721-0.693-1.536-1.479-2.37-2.744c-1.083-1.721-1.652-3.735-1.637-5.801c0.025-2.057,0.631-4.056,1.749-5.777l0.009-0.014
			l0.026-0.044c0.836-1.202,1.63-1.968,2.33-2.646l0.1-0.098c0.259-0.249,0.513-0.494,0.757-0.758l33.27-33.271l0.813-0.814
			l0.814,0.814l3.348,3.348l0.814,0.814l-0.814,0.813l-33.236,33.24c-0.276,0.284-0.581,0.584-0.876,0.875
			c-0.782,0.769-1.215,1.214-1.407,1.505c-0.417,0.645-0.627,1.329-0.638,2.046c-0.002,0.706,0.193,1.399,0.55,1.965l0.016,0.023
			l0.015,0.029l0.024,0.041l0.024,0.041c0.156,0.238,0.47,0.571,1.292,1.374c0.297,0.292,0.605,0.596,0.901,0.902l5.75,5.748
			l5.764,5.767l2.834,2.834c1.097,1.002,2.532,2.856,3.096,4.904c1.202,3.764-0.083,8.383-3.039,11.027l-0.023,0.021l-0.022,0.022
			l-5.765,5.763l-5.818,5.82L-39,54.006l-0.504,0.506c-0.317,0.316-0.633,0.635-0.979,0.973c-0.734,0.709-1.558,1.316-2.446,1.803
			C-44.468,58.133-46.234,58.578-48.042,58.579L-48.042,58.579z"/>
		<path fill-rule="evenodd" clip-rule="evenodd" fill="#E68A00" d="M-6.343-33.666L-39.581-0.428
			c-0.95,0.981-2.089,1.995-2.472,2.626c-0.5,0.771-0.771,1.676-0.786,2.598c-0.002,0.92,0.244,1.831,0.73,2.6
			c0.358,0.647,1.457,1.599,2.411,2.591l5.764,5.765l5.766,5.766l2.883,2.881c1.077,0.971,2.307,2.695,2.762,4.389
			c1.123,3.438-0.201,7.611-2.743,9.854l-5.82,5.82l-5.819,5.82l-2.91,2.909c-0.495,0.492-0.95,0.955-1.477,1.471
			c-0.652,0.631-1.392,1.178-2.193,1.617c-3.219,1.768-7.39,1.473-10.281-0.746c-0.375-0.256-0.689-0.582-1.026-0.879l-0.72-0.721
			l-1.44-1.441l-2.883-2.883l-1.812,1.813l-0.977-7.982l7.982,0.978l-1.812,1.812l2.882,2.884l1.441,1.441l0.72,0.719
			c0.181,0.146,0.329,0.324,0.524,0.444c1.439,1.116,3.568,1.267,5.179,0.378c0.401-0.224,0.771-0.496,1.108-0.816
			c0.453-0.445,0.959-0.958,1.438-1.435l2.91-2.91l5.818-5.819l5.82-5.819c1.574-1.431,2.029-3.309,1.529-5.12
			c-0.316-0.934-0.66-1.525-1.579-2.398l-2.884-2.881l-5.764-5.766l-5.766-5.764c-0.898-0.982-1.974-1.748-3.067-3.417
			c-0.969-1.535-1.467-3.348-1.45-5.16c0.022-1.814,0.563-3.624,1.562-5.158c1.149-1.657,2.172-2.4,3.104-3.406l33.239-33.239"/>
		<path fill-rule="evenodd" clip-rule="evenodd" fill="#77C21D" d="M-48.042,56.275c-1.847,0-3.632-0.589-5.023-1.654l-0.024-0.021
			l-0.028-0.02c-0.203-0.139-0.411-0.33-0.628-0.531c-0.082-0.075-0.162-0.15-0.244-0.225l-0.706-0.705l-1.443-1.443l-2.883-2.881
			l-0.814-0.812l-0.815,0.813l-0.141,0.143l-0.511-4.175l4.176,0.51l-0.143,0.143l-0.815,0.815l0.813,0.813l2.883,2.882l1.442,1.441
			l0.72,0.721l0.046,0.044l0.05,0.04c0.046,0.038,0.086,0.079,0.13,0.118c0.118,0.109,0.261,0.244,0.452,0.37
			c0.987,0.75,2.245,1.161,3.547,1.161c1.01,0,1.995-0.247,2.848-0.718c0.494-0.276,0.944-0.61,1.347-0.993
			c0.314-0.309,0.645-0.64,0.976-0.969l0.481-0.482l2.911-2.911l5.82-5.819l5.821-5.82c1.787-1.625,2.465-3.913,1.824-6.24
			l-0.01-0.031l-0.012-0.031c-0.402-1.192-0.876-1.916-1.875-2.865l-2.863-2.861l-5.762-5.763l-5.767-5.767
			c-0.263-0.287-0.576-0.59-0.88-0.883c-0.665-0.637-1.351-1.297-2.041-2.351c-0.824-1.305-1.275-2.916-1.26-4.518
			c0.021-1.589,0.507-3.203,1.375-4.539c0.71-1.025,1.39-1.681,2.048-2.317c0.323-0.308,0.634-0.61,0.936-0.935l32.394-32.393
			l1.718,1.719L-40.395-1.241c-0.289,0.296-0.578,0.583-0.861,0.86c-0.77,0.76-1.435,1.414-1.781,1.98
			c-0.601,0.93-0.936,2.039-0.953,3.181c-0.006,1.155,0.301,2.253,0.883,3.191c0.333,0.593,0.976,1.224,1.721,1.955
			c0.284,0.278,0.578,0.567,0.857,0.86l5.783,5.781l5.765,5.765l2.881,2.881l0.022,0.022l0.022,0.02
			c0.885,0.797,2.02,2.336,2.422,3.832l0.009,0.03l0.009,0.028c0.938,2.88-0.098,6.59-2.412,8.634l-0.025,0.024l-0.028,0.025
			l-5.818,5.82l-5.819,5.818l-2.91,2.91l-0.507,0.507c-0.311,0.312-0.621,0.622-0.96,0.955c-0.578,0.56-1.234,1.042-1.942,1.429
			C-45.235,55.928-46.62,56.275-48.042,56.275L-48.042,56.275z"/>
	</g>
</g>
<path fill-rule="evenodd" clip-rule="evenodd" fill="#FFFFFF" d="M19.959-31.586l0.021-0.02L2.508-14.13L-31.38,19.769
	l-33.888,33.896l3.943,3.942l33.888-33.897L6.452-10.189l17.471-17.474c0.281-0.278,0.528-0.523,0.762-0.756
	c1.249-1.243,2.236-2.226,3.528-3.07c1.214-0.796,2.848-1.775,4.742-2.331c3.354-1.087,7.095-1.164,10.54-0.215
	c6.958,1.841,12.424,8.142,13.268,15.315c0.473,3.52-0.132,7.214-1.704,10.409l-0.007,0.018l-0.009,0.017
	c-0.923,1.819-1.884,3.213-3.021,4.379c-0.432,0.473-0.971,1.031-1.739,1.8c-0.321,0.321-0.653,0.65-0.984,0.979
	c-0.321,0.318-0.644,0.637-0.955,0.949c-0.188,0.188-0.371,0.372-0.549,0.554l-2.109,2.139l-0.51-0.51l0.482,4.442l4.444,0.489
	L49.627,6.47l2.071-2.105c0.213-0.216,0.422-0.428,0.627-0.633c0.32-0.319,0.633-0.629,0.945-0.938
	c0.296-0.293,0.592-0.584,0.893-0.887c0.504-0.502,1.184-1.189,1.974-2.039l0.016-0.018l0.016-0.018
	c1.469-1.529,2.785-3.456,3.917-5.726c2.035-4.152,2.822-8.977,2.204-13.565l-0.002-0.022l-0.003-0.021
	c-0.555-4.657-2.607-9.03-5.653-12.539c-3.045-3.511-7.082-6.157-11.609-7.357l-0.015-0.004l-0.015-0.005
	c-4.493-1.24-9.385-1.14-13.772,0.289l-0.029,0.009L31.16-39.1c-1.975,0.596-4.012,1.608-6.229,3.099
	c-1.638,1.086-3.124,2.572-4.317,3.765C20.382-32.004,20.165-31.788,19.959-31.586L19.959-31.586z"/>
<g>
	<g>
		<path fill-rule="evenodd" clip-rule="evenodd" fill="#666666" d="M-34.493,59.281c-1.62,0-3.201-0.521-4.46-1.471
			c-0.266-0.188-0.472-0.38-0.625-0.522l-0.104-0.096l-0.051-0.046l-0.047-0.047l-0.382-0.381l-20.835-20.834l-2.722,2.721
			l-0.621-4.88l-0.535-4.203l-0.393-3.091l3.091,0.394l4.203,0.534l4.882,0.622l-2.723,2.722l20.833,20.832l0.316,0.317
			c0.026,0.022,0.053,0.046,0.078,0.069l0.038,0.031c-0.003-0.003-0.002-0.004,0.001-0.004c0.007,0,0.026,0.004,0.052,0.004
			c0.023,0,0.04-0.004,0.044-0.005c0.01-0.007,0.037-0.026,0.062-0.052c0.138-0.133,0.304-0.301,0.471-0.467l0.247-0.247
			l1.521-1.522l3.048-3.047l3.049-3.049l0.04-0.039l0.043-0.039c0.101-0.092,0.117-0.135,0.106-0.197
			c-0.014-0.033-0.021-0.048-0.021-0.051c-0.002-0.002-0.042-0.053-0.168-0.174l-0.023-0.021l-0.022-0.024l-1.523-1.523
			l-3.048-3.048l-3.049-3.048l-0.038-0.037l-0.036-0.04c-0.093-0.101-0.212-0.217-0.351-0.351c-0.403-0.389-0.957-0.92-1.508-1.757
			l-0.012-0.019l-0.012-0.019c-0.758-1.196-1.155-2.585-1.15-4.018c0.011-1.437,0.425-2.821,1.198-4.014l0.019-0.029l0.02-0.028
			c0.553-0.802,1.062-1.293,1.472-1.687c0.125-0.122,0.248-0.238,0.367-0.366l0.031-0.035l0.034-0.034l61.53-61.532l1.706-1.705
			l1.706,1.705l1.771,1.771l1.706,1.706l-1.706,1.706L-28.505,28.15l0.028-0.03c-0.162,0.169-0.334,0.339-0.502,0.504
			c-0.164,0.162-0.406,0.4-0.504,0.513c-0.009,0.019-0.017,0.045-0.017,0.074c0,0.014,0.011,0.041,0.015,0.049l0.009,0.015
			c0.091,0.104,0.309,0.318,0.457,0.464c0.169,0.166,0.345,0.338,0.513,0.514l-0.033-0.033l3.049,3.048l3.048,3.05l1.494,1.492
			c0.766,0.71,1.695,1.941,2.099,3.355c0.83,2.599-0.031,5.777-2.064,7.624l-3.007,3.006l-3.048,3.048l-1.524,1.524l-0.291,0.29
			c-0.161,0.163-0.323,0.325-0.5,0.499c-0.512,0.493-1.074,0.906-1.684,1.239C-32.03,58.973-33.249,59.281-34.493,59.281
			L-34.493,59.281z"/>
		<path fill-rule="evenodd" clip-rule="evenodd" fill="#E41B5B" d="M-34.493,58.677c-1.488,0-2.943-0.479-4.097-1.35
			c-0.241-0.17-0.423-0.339-0.568-0.473l-0.115-0.106l-0.05-0.045l-0.031-0.031l-0.381-0.382l-20.836-20.834l-0.427-0.426
			l-0.426,0.426l-1.853,1.854l-0.466-3.662l-0.534-4.202l-0.295-2.317l2.318,0.293l4.203,0.535l3.662,0.467l-1.853,1.853
			l-0.428,0.427l0.428,0.426l20.832,20.832l0.317,0.318l0.012,0.012l0.012,0.01l0.037,0.035l0.04,0.035l0.016,0.014l0.017,0.014
			l0.039,0.03l0.132,0.103l0.178,0.018c0.027,0.004,0.067,0.008,0.113,0.008c0.082,0,0.163-0.013,0.234-0.036l0.077-0.025
			l0.066-0.045c0.024-0.016,0.09-0.062,0.15-0.121c0.122-0.118,0.27-0.267,0.419-0.417l0.057-0.057l0.246-0.248l1.521-1.521
			l3.048-3.047l3.048-3.048l0.038-0.036l0.024-0.022c0.093-0.085,0.368-0.338,0.295-0.75l-0.011-0.057l-0.021-0.053
			c-0.027-0.071-0.042-0.098-0.045-0.104l-0.024-0.049l-0.032-0.043c-0.025-0.034-0.09-0.111-0.234-0.249l-0.017-0.015l-0.013-0.014
			l-1.529-1.53l-3.049-3.046l-3.048-3.049l-0.038-0.038l-0.018-0.021c-0.102-0.109-0.229-0.233-0.378-0.377
			c-0.387-0.372-0.91-0.876-1.422-1.654l-0.018-0.026c-0.696-1.1-1.061-2.377-1.058-3.694c0.011-1.316,0.392-2.593,1.102-3.688
			l0.024-0.039l0.006-0.008c0.521-0.752,1.003-1.217,1.392-1.59l0.055-0.053c0.115-0.111,0.228-0.221,0.338-0.34l0.031-0.035
			l0.021-0.02L28.27-38.138l1.28-1.279l1.28,1.279l1.771,1.771l1.279,1.279l-1.279,1.28l-61.51,61.509l-0.002-0.001
			c-0.157,0.164-0.326,0.331-0.49,0.492c-0.213,0.21-0.43,0.426-0.537,0.549l-0.053,0.061l-0.034,0.073
			c-0.05,0.103-0.076,0.219-0.076,0.335c0,0.178,0.076,0.32,0.101,0.359l0.027,0.046l0.044,0.055c0.093,0.106,0.263,0.275,0.46,0.47
			l0.028,0.027c0.155,0.152,0.315,0.311,0.47,0.471l0.008,0.008l0.008,0.008l0.015,0.016h0.001l3.024,3.022l3.048,3.049l1.493,1.493
			c0.707,0.656,1.576,1.801,1.945,3.096c0.762,2.386-0.034,5.328-1.89,7.012l-3.028,3.025l-3.047,3.049l-1.524,1.523l-0.291,0.29
			c-0.161,0.163-0.321,0.323-0.496,0.494c-0.468,0.45-0.99,0.835-1.55,1.142C-32.231,58.396-33.351,58.677-34.493,58.677
			L-34.493,58.677z"/>
		<path fill-rule="evenodd" clip-rule="evenodd" fill="#E68A00" d="M31.32-35.088l-61.531,61.531
			c-0.497,0.515-1.094,1.045-1.294,1.377c-0.26,0.403-0.401,0.879-0.406,1.365c0,0.482,0.133,0.964,0.391,1.369
			c0.19,0.342,0.771,0.846,1.275,1.37l3.049,3.048l3.048,3.049l1.523,1.523c0.57,0.514,1.222,1.424,1.466,2.316
			c0.6,1.812-0.088,4.004-1.419,5.18l-3.049,3.047l-3.048,3.049l-1.524,1.523c-0.258,0.258-0.497,0.501-0.772,0.771
			c-0.343,0.331-0.73,0.616-1.15,0.845c-1.689,0.923-3.886,0.758-5.412-0.418c-0.198-0.136-0.365-0.308-0.542-0.465l-0.381-0.381
			l-21.017-21.016l-1.523-1.524l-0.95,0.95l-0.534-4.204l4.203,0.535l-0.949,0.948l1.523,1.525l21.017,21.015l0.381,0.381
			c0.096,0.077,0.175,0.171,0.277,0.235c0.76,0.59,1.881,0.675,2.726,0.211c0.211-0.116,0.405-0.259,0.581-0.427
			c0.238-0.231,0.503-0.501,0.754-0.751l1.523-1.523l3.049-3.049l3.048-3.048c0.824-0.749,1.06-1.735,0.792-2.69
			c-0.169-0.492-0.352-0.803-0.838-1.266l-1.524-1.523l-3.047-3.049l-3.049-3.048c-0.475-0.519-1.044-0.925-1.624-1.806
			c-0.513-0.811-0.779-1.766-0.776-2.72c0.008-0.954,0.288-1.905,0.81-2.71c0.601-0.869,1.138-1.258,1.625-1.785l61.53-61.531"/>
		<path fill-rule="evenodd" clip-rule="evenodd" fill="#F2F2F2" d="M-34.492,56.265c-0.982,0-1.932-0.314-2.675-0.887l-0.013-0.01
			l-0.015-0.01c-0.108-0.074-0.218-0.176-0.334-0.284c-0.045-0.04-0.089-0.081-0.134-0.121l-0.369-0.369l-21.016-21.016
			l-1.524-1.523l-0.426-0.427l-0.427,0.427l-0.08,0.079l-0.281-2.211l2.211,0.281l-0.08,0.08l-0.427,0.426l0.427,0.427l1.524,1.524
			l21.016,21.016l0.381,0.381l0.024,0.024l0.027,0.021c0.024,0.021,0.047,0.042,0.069,0.063c0.061,0.057,0.134,0.125,0.23,0.188
			c0.524,0.402,1.193,0.622,1.886,0.622c0.526,0,1.039-0.128,1.482-0.371c0.261-0.145,0.497-0.319,0.707-0.52
			c0.17-0.165,0.347-0.344,0.522-0.52l0.241-0.241l1.524-1.524l3.048-3.047l3.048-3.049c0.938-0.85,1.289-2.053,0.947-3.279
			l-0.005-0.016l-0.006-0.018c-0.215-0.627-0.466-1.008-0.993-1.508l-1.513-1.514l-3.048-3.047l-3.048-3.049
			c-0.14-0.152-0.305-0.312-0.465-0.466c-0.353-0.338-0.715-0.688-1.082-1.245c-0.437-0.69-0.68-1.54-0.677-2.385
			c0.007-0.838,0.26-1.686,0.713-2.385c0.371-0.538,0.728-0.881,1.072-1.214c0.168-0.163,0.331-0.319,0.488-0.491L29.55-36.005
			l0.918,0.917l-61.105,61.105c-0.152,0.158-0.307,0.311-0.457,0.459c-0.401,0.394-0.747,0.734-0.927,1.031
			c-0.313,0.487-0.486,1.069-0.493,1.671c0.001,0.612,0.166,1.194,0.479,1.69c0.179,0.309,0.515,0.639,0.903,1.021
			c0.149,0.146,0.304,0.298,0.452,0.451l3.058,3.057l3.047,3.049l1.524,1.524l0.011,0.011l0.012,0.01
			c0.47,0.424,1.072,1.238,1.287,2.028l0.004,0.015l0.005,0.016c0.503,1.518-0.033,3.469-1.245,4.537l-0.015,0.013l-0.013,0.013
			l-3.048,3.049l-3.048,3.047l-1.524,1.525l-0.244,0.243c-0.17,0.17-0.339,0.341-0.524,0.522c-0.302,0.291-0.645,0.544-1.018,0.746
			C-33.033,56.085-33.753,56.265-34.492,56.265L-34.492,56.265z"/>
	</g>
</g>
</svg>
