<?xml version="1.0" encoding="utf-8"?>
<!-- Generator: Adobe Illustrator 15.0.2, SVG Export Plug-In . SVG Version: 6.00 Build 0)  -->
<!DOCTYPE svg PUBLIC "-//W3C//DTD SVG 1.1//EN" "http://www.w3.org/Graphics/SVG/1.1/DTD/svg11.dtd">
<svg version="1.1" id="Layer_1" xmlns="http://www.w3.org/2000/svg" xmlns:xlink="http://www.w3.org/1999/xlink" x="0px" y="0px"
	 width="50px" height="50px" viewBox="0 0 50 50" enable-background="new 0 0 50 50" xml:space="preserve">
<polygon fill="#666666" points="31.5,16.5 33.5,18.5 27,25 33.5,31.5 31.5,33.5 25,27 18.5,33.5 16.5,31.5 23,25 16.5,18.5 
	18.5,16.5 25,23 "/>
<rect x="11.904" y="20.404" transform="matrix(-0.7071 0.7071 -0.7071 -0.7071 45.8449 31.0104)" fill="#999999" width="9.192" height="9.192"/>
<rect x="20.404" y="28.904" transform="matrix(-0.7071 0.7071 -0.7071 -0.7071 66.3664 39.5087)" fill="#999999" width="9.192" height="9.192"/>
<rect x="28.904" y="20.404" transform="matrix(-0.7071 0.7071 -0.7071 -0.7071 74.866 18.9912)" fill="#999999" width="9.192" height="9.192"/>
<rect x="20.404" y="11.904" transform="matrix(-0.7071 0.7071 -0.7071 -0.7071 54.3453 10.4894)" fill="#999999" width="9.192" height="9.192"/>
<polygon fill="#CCCCCC" points="18.5,33.5 25,40 15,50 8.5,43.5 6.5,41.5 0,35 10,25 16.5,31.5 "/>
<polygon fill="#CCCCCC" points="50,35 43.5,41.5 41.5,43.5 35,50 25,40 31.5,33.5 33.5,31.5 40,25 "/>
<polygon fill="#CCCCCC" points="50,15 40,25 33.5,18.5 31.5,16.5 25,10 35,0 41.5,6.5 43.5,8.5 "/>
<polygon fill="#CCCCCC" points="25,10 18.5,16.5 16.5,18.5 10,25 0,15 6.5,8.5 8.5,6.5 15,0 "/>
</svg>
