<?xml version="1.0" encoding="utf-8"?>
<!-- Generator: Adobe Illustrator 15.0.2, SVG Export Plug-In . SVG Version: 6.00 Build 0)  -->
<!DOCTYPE svg PUBLIC "-//W3C//DTD SVG 1.1//EN" "http://www.w3.org/Graphics/SVG/1.1/DTD/svg11.dtd">
<svg version="1.1" id="Layer_1" xmlns="http://www.w3.org/2000/svg" xmlns:xlink="http://www.w3.org/1999/xlink" x="0px" y="0px"
	 width="50px" height="50px" viewBox="0 0 50 50" enable-background="new 0 0 50 50" xml:space="preserve">
<g>
	<polygon fill="#CCCCCC" points="25,25 7.5,42.5 6.5,41.5 0,35 10,25 0,15 6.5,8.5 7.5,7.5 	"/>
	<polygon fill="#CCCCCC" points="50,15 40,25 50,35 43.5,41.5 42.5,42.5 25,25 42.5,7.5 43.5,8.5 	"/>
</g>
<g>
	<polygon fill="#CCCCCC" points="42.5,42.5 41.5,43.5 35,50 25,40 15,50 8.5,43.5 7.5,42.5 25,25 	"/>
	<polygon fill="#CCCCCC" points="42.5,7.5 25,25 7.5,7.5 8.5,6.5 15,0 25,10 35,0 41.5,6.5 	"/>
</g>
</svg>
