<?xml version="1.0" encoding="utf-8"?>
<!-- Generator: Adobe Illustrator 15.0.2, SVG Export Plug-In . SVG Version: 6.00 Build 0)  -->
<!DOCTYPE svg PUBLIC "-//W3C//DTD SVG 1.1//EN" "http://www.w3.org/Graphics/SVG/1.1/DTD/svg11.dtd">
<svg version="1.1" id="Layer_1" xmlns="http://www.w3.org/2000/svg" xmlns:xlink="http://www.w3.org/1999/xlink" x="0px" y="0px"
	 width="50px" height="50px" viewBox="0 0 50 50" enable-background="new 0 0 50 50" xml:space="preserve">
<g>
	<polygon fill="#CCCCCC" points="25,40 20,45 15,50 10,45 5,40 0,35 5,30 10,25 15,30 10,35 15,40 20,35 	"/>
	<polygon fill="#CCCCCC" points="50,35 45,40 40,45 35,50 30,45 25,40 30,35 35,40 40,35 35,30 40,25 45,30 	"/>
	<polygon fill="#CCCCCC" points="50,15 45,20 40,25 35,20 40,15 35,10 30,15 25,10 30,5 35,0 40,5 45,10 	"/>
	<polygon fill="#CCCCCC" points="25,10 20,15 15,10 10,15 15,20 10,25 5,20 0,15 5,10 10,5 15,0 20,5 	"/>
</g>
<path fill="#ECECEC" d="M40,15l-5,5l5,5l-5,5l5,5l-5,5l-5-5l-5,5l-5-5l-5,5l-5-5l5-5l-5-5l5-5l-5-5l5-5l5,5l5-5l5,5l5-5L40,15z
	 M25,30l5-5l-5-5l-5,5L25,30z"/>
</svg>
