<?xml version="1.0" encoding="utf-8"?>
<!-- Generator: Adobe Illustrator 15.0.2, SVG Export Plug-In . SVG Version: 6.00 Build 0)  -->
<!DOCTYPE svg PUBLIC "-//W3C//DTD SVG 1.1//EN" "http://www.w3.org/Graphics/SVG/1.1/DTD/svg11.dtd">
<svg version="1.1" id="Layer_1" xmlns="http://www.w3.org/2000/svg" xmlns:xlink="http://www.w3.org/1999/xlink" x="0px" y="0px"
	 width="50px" height="50px" viewBox="0 0 50 50" enable-background="new 0 0 50 50" xml:space="preserve">
<path fill="#ECECEC" stroke="#000000" stroke-miterlimit="10" d="M20,25l-5-5l-5,5L0,15L15,0l10,10l5,5l-5,5L20,25z M11.5,15
	l3.5,3.5l3.5-3.5L15,11.5L11.5,15z"/>
<path fill="#CCCCCC" stroke="#000000" stroke-miterlimit="10" d="M30,25l-5-5l5-5l-5-5L35,0l15,15L40,25l-5,5L30,25z M35,11.5
	L31.5,15l3.5,3.5l3.5-3.5L35,11.5z"/>
<path fill="#999999" stroke="#000000" stroke-miterlimit="10" d="M25,40l-5-5l5-5l5-5l5,5l5-5l10,10L35,50L25,40z M31.5,35l3.5,3.5
	l3.5-3.5L35,31.5L31.5,35z"/>
<path fill="#666666" stroke="#000000" stroke-miterlimit="10" d="M10,25l5-5l5,5l5,5l-5,5l5,5L15,50L0,35L10,25z M11.5,35l3.5,3.5
	l3.5-3.5L15,31.5L11.5,35z"/>
</svg>
