<?xml version="1.0" encoding="utf-8"?>
<!-- Generator: Adobe Illustrator 15.0.2, SVG Export Plug-In . SVG Version: 6.00 Build 0)  -->
<!DOCTYPE svg PUBLIC "-//W3C//DTD SVG 1.1//EN" "http://www.w3.org/Graphics/SVG/1.1/DTD/svg11.dtd">
<svg version="1.1" id="Layer_1" xmlns="http://www.w3.org/2000/svg" xmlns:xlink="http://www.w3.org/1999/xlink" x="0px" y="0px"
	 width="50px" height="50px" viewBox="0 0 50 50" enable-background="new 0 0 50 50" xml:space="preserve">
<polygon fill="none" stroke="#000000" stroke-miterlimit="3" points="50,15 40,25 50,35 35,50 25,40 15,50 0,35 10,25 0,15 15,0 
	25,10 35,0 "/>
<rect x="32.525" y="12.525" transform="matrix(-0.7071 0.7071 -0.7071 -0.7071 70.3553 0.8579)" fill="none" stroke="#000000" stroke-miterlimit="3" width="4.95" height="4.95"/>
<rect x="32.525" y="32.525" transform="matrix(0.7071 0.7071 -0.7071 0.7071 35 -14.4975)" fill="none" stroke="#000000" stroke-miterlimit="3" width="4.95" height="4.95"/>
<rect x="12.525" y="12.525" transform="matrix(-0.7071 0.7071 -0.7071 -0.7071 36.2132 15)" fill="none" stroke="#000000" stroke-miterlimit="3" width="4.95" height="4.95"/>
<rect x="12.525" y="32.525" transform="matrix(-0.7071 0.7071 -0.7071 -0.7071 50.3553 49.1421)" fill="none" stroke="#000000" stroke-miterlimit="3" width="4.95" height="4.95"/>
</svg>
