<?xml version="1.0" encoding="utf-8"?>
<!-- Generator: Adobe Illustrator 15.0.2, SVG Export Plug-In . SVG Version: 6.00 Build 0)  -->
<!DOCTYPE svg PUBLIC "-//W3C//DTD SVG 1.1//EN" "http://www.w3.org/Graphics/SVG/1.1/DTD/svg11.dtd">
<svg version="1.1" id="Layer_1" xmlns="http://www.w3.org/2000/svg" xmlns:xlink="http://www.w3.org/1999/xlink" x="0px" y="0px"
	 width="50px" height="50px" viewBox="0 0 50 50" enable-background="new 0 0 50 50" xml:space="preserve">
<path fill-rule="evenodd" clip-rule="evenodd" fill="#ECECEC" d="M25,10L35,0l15,15L40,25l10,10L35,50L25,40L15,50L0,35l10-10L0,15
	L15,0L25,10z M33.5,18.5l-1-1l-1-1L25,23l-6.5-6.5l-1,1l-1,1L23,25l-6.5,6.5l1,1l1,1L25,27l6.5,6.5l1-1l1-1L27,25L33.5,18.5z"/>
</svg>
