<?xml version="1.0" encoding="utf-8"?>
<!-- Generator: Adobe Illustrator 15.0.2, SVG Export Plug-In . SVG Version: 6.00 Build 0)  -->
<!DOCTYPE svg PUBLIC "-//W3C//DTD SVG 1.1//EN" "http://www.w3.org/Graphics/SVG/1.1/DTD/svg11.dtd">
<svg version="1.1" id="Layer_1" xmlns="http://www.w3.org/2000/svg" xmlns:xlink="http://www.w3.org/1999/xlink" x="0px" y="0px"
	 width="50px" height="50px" viewBox="0 0 50 50" enable-background="new 0 0 50 50" xml:space="preserve">
<polygon fill="#ECECEC" stroke="#000000" stroke-miterlimit="10" points="25,10 35,0 50,15 40,25 35,20 30,25 35,30 40,25 50,35 
	35,50 25,40 30,35 25,30 20,35 25,40 15,50 0,35 10,25 15,30 20,25 15,20 10,25 0,15 15,0 25,10 20,15 25,20 30,15 "/>
<path fill="#CCCCCC" stroke="#000000" stroke-miterlimit="10" d="M25,10l5,5l-5,5l-5-5L25,10z M10,25l5-5l5,5l-5,5L10,25z M25,40
	l-5-5l5-5l5,5L25,40z M40,25l-5,5l-5-5l5-5L40,25z"/>
</svg>
