<?xml version="1.0" encoding="utf-8"?>
<!-- Generator: Adobe Illustrator 15.0.2, SVG Export Plug-In . SVG Version: 6.00 Build 0)  -->
<!DOCTYPE svg PUBLIC "-//W3C//DTD SVG 1.1//EN" "http://www.w3.org/Graphics/SVG/1.1/DTD/svg11.dtd">
<svg version="1.1" id="Layer_1" xmlns="http://www.w3.org/2000/svg" xmlns:xlink="http://www.w3.org/1999/xlink" x="0px" y="0px"
	 width="10px" height="10px" viewBox="0 0 10 10" enable-background="new 0 0 10 10" xml:space="preserve">
<g>
	<g>
		<g>
			<path d="M-31.436-13.046c-1.086,0.154-2.172,0.274-3.244,0.298c-0.535,0.01-1.067-0.004-1.585-0.08
				c-0.259-0.039-0.513-0.094-0.758-0.184c-0.243-0.091-0.482-0.215-0.67-0.438c-0.191-0.218-0.29-0.571-0.246-0.923
				c0.038-0.352,0.174-0.685,0.333-0.986c0.327-0.604,0.752-1.112,1.191-1.587c0.442-0.474,0.911-0.909,1.395-1.324
				c0.242-0.207,0.488-0.409,0.741-0.606c0.259-0.199,0.497-0.387,0.807-0.584c-0.23,0.063-0.413,0.119-0.61,0.181
				c-0.194,0.062-0.385,0.125-0.576,0.191c-0.382,0.133-0.762,0.276-1.146,0.436c-0.771,0.327-1.544,0.683-2.406,1.289
				c-0.43,0.317-0.899,0.681-1.388,1.357c-0.238,0.34-0.484,0.784-0.625,1.354c-0.146,0.565-0.141,1.25,0.018,1.813
				c0.153,0.57,0.411,1.009,0.658,1.343c0.251,0.336,0.5,0.583,0.737,0.79c0.475,0.411,0.907,0.675,1.321,0.907
				c0.825,0.453,1.587,0.751,2.34,1.02c0.751,0.265,1.487,0.484,2.218,0.683c1.466,0.396,2.89,0.707,4.352,0.988
				c0.734,0.139,1.479,0.264,2.244,0.364c0.768,0.099,1.549,0.179,2.41,0.194c0.434,0.005,0.883-0.002,1.418-0.07
				c0.27-0.037,0.56-0.084,0.924-0.196c0.182-0.057,0.385-0.129,0.625-0.25c0.239-0.124,0.525-0.289,0.848-0.611
				c0.159-0.161,0.324-0.366,0.465-0.617c0.142-0.25,0.254-0.549,0.311-0.85c0.058-0.301,0.06-0.597,0.031-0.852
				c-0.03-0.256-0.089-0.475-0.154-0.66c-0.134-0.368-0.291-0.617-0.431-0.815c-0.143-0.2-0.276-0.349-0.404-0.481
				c-0.255-0.26-0.484-0.442-0.705-0.604c-0.221-0.161-0.432-0.295-0.639-0.417c-0.824-0.48-1.604-0.794-2.396-1.063
				c-0.789-0.264-1.58-0.464-2.379-0.613c-1.597-0.296-3.231-0.394-4.88-0.247c-1.645,0.147-3.311,0.552-4.866,1.285
				c-1.556,0.727-2.978,1.793-4.107,3.075c-0.517,0.595-0.98,1.163-1.446,1.768c-0.463,0.603-0.912,1.228-1.338,1.891
				c-0.425,0.664-0.829,1.365-1.182,2.148c-0.344,0.788-0.667,1.651-0.755,2.766c-0.038,0.555-0.001,1.193,0.219,1.859
				c0.214,0.665,0.648,1.319,1.168,1.773c0.519,0.461,1.081,0.744,1.599,0.928c0.521,0.186,1.012,0.281,1.479,0.339
				c0.933,0.11,1.779,0.073,2.592-0.012c0.812-0.088,1.587-0.233,2.343-0.409c0.756-0.176,1.491-0.386,2.212-0.618
				c0.36-0.116,0.718-0.238,1.072-0.365c0.347-0.125,0.721-0.261,1.125-0.438c0.777-0.345,1.562-0.781,2.3-1.409
				c0.729-0.625,1.433-1.482,1.792-2.593c0.179-0.55,0.261-1.149,0.228-1.741c-0.033-0.592-0.177-1.172-0.415-1.699
				c-0.476-1.054-1.295-1.921-2.378-2.43c-0.54-0.252-1.153-0.406-1.786-0.415c-0.632-0.01-1.272,0.13-1.826,0.384
				c-0.557,0.253-1.023,0.605-1.402,0.984c-0.38,0.38-0.677,0.787-0.921,1.195c-0.487,0.818-0.777,1.638-0.991,2.438
				c-0.054,0.201-0.1,0.4-0.144,0.599l-0.111,0.556l-0.204,1.042c-0.275,1.394-0.559,2.795-0.811,4.23
				c-0.125,0.718-0.242,1.445-0.335,2.193c-0.092,0.749-0.166,1.514-0.166,2.342c0.002,0.415,0.021,0.847,0.093,1.315
				c0.076,0.468,0.191,0.98,0.487,1.546c0.15,0.28,0.351,0.571,0.618,0.832c0.264,0.261,0.591,0.48,0.926,0.626
				c0.68,0.294,1.314,0.315,1.83,0.276c0.524-0.042,0.97-0.152,1.388-0.277c0.415-0.127,0.798-0.275,1.167-0.434
				c0.734-0.318,1.408-0.675,2.061-1.048c0.326-0.187,0.646-0.378,0.961-0.572l0.473-0.297c0.172-0.11,0.331-0.216,0.499-0.333
				c0.333-0.234,0.665-0.479,1.029-0.831c0.183-0.185,0.377-0.376,0.598-0.745c0.104-0.188,0.237-0.436,0.29-0.852
				c0.024-0.207,0.016-0.464-0.058-0.722c-0.071-0.258-0.208-0.5-0.354-0.675c-0.302-0.354-0.584-0.488-0.795-0.584
				c-0.216-0.091-0.39-0.135-0.547-0.167c-0.311-0.062-0.561-0.076-0.799-0.083c-0.47-0.009-0.881,0.028-1.285,0.077
				c-0.801,0.102-1.552,0.267-2.293,0.464c-1.477,0.404-2.902,0.932-4.292,1.693c-0.693,0.388-1.379,0.829-2.032,1.443
				c-0.325,0.31-0.643,0.667-0.916,1.118c-0.27,0.446-0.495,1.014-0.53,1.646c-0.041,0.631,0.13,1.263,0.389,1.748
				c0.259,0.491,0.582,0.872,0.909,1.191c0.661,0.635,1.354,1.062,2.044,1.44c1.385,0.738,2.784,1.243,4.186,1.689l2.053,0.622
				l2.027,0.629c2.699,0.853,5.382,1.76,8.06,2.699c2.681,0.935,5.348,1.915,8.07,2.832c1.365,0.453,2.74,0.896,4.194,1.231
				c0.73,0.162,1.478,0.304,2.294,0.337c0.408,0.016,0.838,0.003,1.296-0.088c0.452-0.089,0.952-0.271,1.384-0.613
				c0.435-0.337,0.745-0.811,0.918-1.26c0.178-0.453,0.252-0.892,0.289-1.307c0.034-0.416,0.03-0.814,0.008-1.202
				c-0.011-0.198-0.026-0.378-0.048-0.583c-0.017-0.163-0.048-0.396-0.078-0.578c-0.264-1.543-0.84-2.964-1.557-4.277
				c-0.722-1.313-1.597-2.523-2.592-3.628c-0.997-1.102-2.115-2.103-3.39-2.919c-0.638-0.406-1.318-0.766-2.052-1.035
				c-0.732-0.266-1.527-0.45-2.366-0.428c-0.833,0.014-1.709,0.278-2.404,0.785c-0.703,0.5-1.203,1.187-1.561,1.888
				c-0.707,1.418-0.936,2.928-1.062,4.373c-0.124,1.451-0.14,2.924,0.043,4.393c0.185,1.463,0.576,2.934,1.294,4.264
				c0.709,1.332,1.761,2.486,3.002,3.324c1.241,0.845,2.638,1.394,4.053,1.752c1.42,0.358,2.866,0.533,4.307,0.605
				c5.783,0.251,11.436-0.951,16.981-2.144c2.785-0.585,5.569-1.173,8.36-1.716c2.793-0.536,5.595-1.042,8.425-1.328
				c1.414-0.14,2.837-0.221,4.26-0.179c1.421,0.043,2.847,0.215,4.223,0.602c1.377,0.382,2.692,0.99,3.882,1.79
				c0.298,0.197,0.587,0.414,0.871,0.625c0.284,0.21,0.574,0.414,0.867,0.612c0.588,0.395,1.191,0.766,1.811,1.106
				c1.237,0.681,2.539,1.253,3.893,1.627c1.346,0.364,2.777,0.548,4.108,0.229c0.66-0.159,1.279-0.46,1.779-0.901
				c0.501-0.439,0.877-1.012,1.131-1.638c0.508-1.262,0.582-2.683,0.499-4.067c0.053,1.321-0.041,2.667-0.504,3.86
				c-0.232,0.592-0.565,1.136-1.007,1.564c-0.438,0.431-0.983,0.741-1.578,0.922c-1.197,0.363-2.533,0.247-3.795-0.062
				c-1.271-0.313-2.499-0.828-3.669-1.447c-1.171-0.62-2.289-1.353-3.338-2.161c-1.079-0.864-2.309-1.611-3.619-2.133
				c-1.311-0.527-2.697-0.842-4.083-1.002c-1.389-0.161-2.779-0.179-4.156-0.122c-2.755,0.118-5.465,0.504-8.153,0.934
				c-2.689,0.437-5.359,0.936-8.025,1.437l-3.997,0.757c-1.335,0.251-2.659,0.511-3.98,0.726c-2.648,0.433-5.313,0.748-7.965,0.816
				c-1.325,0.032-2.646,0.001-3.946-0.13c-1.298-0.131-2.578-0.36-3.785-0.745c-1.206-0.385-2.338-0.93-3.289-1.675
				c-0.953-0.742-1.709-1.688-2.229-2.774c-0.523-1.086-0.817-2.302-0.945-3.554c-0.128-1.253-0.098-2.544,0.031-3.835l0.052-0.48
				l0.062-0.48c0.045-0.312,0.1-0.619,0.165-0.92c0.131-0.601,0.308-1.179,0.545-1.69c0.237-0.513,0.538-0.954,0.887-1.265
				c0.35-0.312,0.742-0.495,1.197-0.563c0.913-0.143,2.054,0.229,3.084,0.824c1.041,0.599,2.014,1.409,2.887,2.313
				c0.875,0.906,1.655,1.916,2.312,2.987c0.656,1.071,1.189,2.211,1.52,3.366c0.165,0.579,0.274,1.153,0.315,1.727
				C-3.99,20.482-4,21.071-4.101,21.492c-0.049,0.21-0.119,0.359-0.18,0.439c-0.062,0.079-0.104,0.111-0.212,0.161
				c-0.212,0.102-0.729,0.144-1.283,0.077c-0.56-0.06-1.169-0.19-1.783-0.351c-0.615-0.16-1.239-0.351-1.865-0.555
				c-1.253-0.409-2.514-0.869-3.776-1.338c-2.526-0.942-5.065-1.919-7.622-2.857c-2.557-0.94-5.131-1.85-7.724-2.709l-1.949-0.636
				c-0.65-0.206-1.247-0.404-1.854-0.631c-1.195-0.445-2.37-0.963-3.291-1.585c-0.452-0.302-0.833-0.655-0.98-0.901
				c-0.076-0.121-0.088-0.189-0.086-0.205c0.002-0.018-0.001-0.021,0.033-0.102c0.062-0.162,0.361-0.517,0.771-0.816
				c0.409-0.309,0.911-0.599,1.443-0.856c1.07-0.515,2.267-0.918,3.459-1.197c0.595-0.139,1.197-0.247,1.751-0.296
				c0.272-0.024,0.541-0.032,0.726-0.018c0.045,0.003,0.084,0.007,0.109,0.012c0.012,0.002,0.022,0.004,0.026,0.005
				c0.009-0.024-0.01,0.058,0.015-0.055c0.021-0.087,0.039-0.168,0.062-0.25c0.084-0.318,0.187-0.587,0.291-0.772
				c0.102-0.189,0.211-0.285,0.248-0.3c0.036-0.016-0.032,0.022-0.187-0.018c-0.152-0.036-0.375-0.135-0.628-0.298
				c-0.123-0.08-0.265-0.177-0.402-0.285c-0.077-0.058-0.161-0.127-0.132-0.103l-0.005,0.005L-29.19,5.12
				c-0.125,0.116-0.343,0.281-0.574,0.436c-0.236,0.159-0.482,0.309-0.77,0.479c-0.277,0.164-0.555,0.323-0.833,0.477
				c-0.555,0.307-1.111,0.59-1.651,0.821c-0.534,0.23-1.075,0.41-1.462,0.464c-0.19,0.03-0.328,0.017-0.332,0.01l-0.032,0.135
				c-0.015,0.052-0.026,0.091-0.04,0.131c-0.028,0.077-0.049,0.123-0.067,0.155c-0.032,0.06-0.028,0.028,0.064-0.055
				c0.047-0.043,0.109-0.09,0.202-0.15l0.072-0.046c0.035-0.021,0.035-0.02,0.032-0.02l-0.003-0.009
				c-0.007-0.019-0.025-0.066-0.042-0.136c-0.036-0.141-0.065-0.359-0.075-0.605c-0.022-0.497,0.021-1.095,0.093-1.703
				c0.073-0.613,0.176-1.246,0.293-1.887c0.235-1.283,0.521-2.593,0.809-3.914l0.434-1.993l0.101-0.459
				c0.033-0.137,0.067-0.273,0.105-0.405c0.075-0.264,0.159-0.517,0.254-0.749c0.187-0.465,0.424-0.856,0.641-1.077
				c0.107-0.111,0.203-0.18,0.271-0.214c0.07-0.035,0.11-0.04,0.146-0.042c0.062-0.001,0.189,0.024,0.344,0.157
				c0.15,0.127,0.268,0.332,0.295,0.503c0.028,0.176,0.008,0.32-0.102,0.532c-0.11,0.209-0.349,0.477-0.704,0.727
				c-0.35,0.25-0.813,0.486-1.301,0.672l-0.201,0.074l-0.21,0.074l-0.451,0.152c-0.301,0.099-0.602,0.193-0.903,0.281
				c-1.2,0.352-2.415,0.622-3.549,0.723c-0.562,0.05-1.107,0.054-1.554-0.002c-0.222-0.028-0.417-0.071-0.559-0.119
				c-0.142-0.047-0.222-0.1-0.231-0.112c-0.004,0.003,0.007-0.014-0.011,0.009l-0.067,0.077c-0.041,0.043-0.078,0.077-0.1,0.096
				c-0.051,0.043-0.053,0.035-0.005,0.012c0.028-0.013,0.066-0.029,0.122-0.048c0.028-0.01,0.06-0.019,0.094-0.028l0.047-0.012
				c0,0,0-0.001,0-0.001c0-0.004-0.003-0.028-0.001-0.07c-0.006-0.171,0.089-0.602,0.283-1.05c0.389-0.923,1.068-1.955,1.818-2.932
				c0.377-0.492,0.781-0.982,1.197-1.462l0.322-0.367c0.084-0.095,0.177-0.195,0.269-0.289c0.184-0.189,0.376-0.367,0.575-0.536
				c0.796-0.674,1.716-1.181,2.73-1.516c2.022-0.672,4.42-0.648,6.642-0.088c0.553,0.14,1.094,0.315,1.594,0.521
				c0.249,0.102,0.487,0.212,0.702,0.326c0.213,0.112,0.406,0.232,0.528,0.326c0.03,0.022,0.055,0.043,0.072,0.059l0.019,0.018
				l0.004,0.005c0.011-0.008-0.029,0.031,0.054-0.053c0.453-0.46,0.913-0.819,1.263-0.983c0.174-0.083,0.315-0.115,0.388-0.115
				c0.076-0.002,0.07,0.02,0.006-0.022c-0.062-0.039-0.168-0.14-0.277-0.308c-0.106-0.165-0.222-0.394-0.324-0.665
				c-0.054-0.138-0.101-0.283-0.151-0.442l-0.07-0.244l-0.058-0.22l-0.046,0.006c-0.055,0.007-0.144,0.016-0.247,0.02
				c-0.208,0.009-0.469,0.005-0.741-0.012c-1.11-0.069-2.381-0.292-3.63-0.554C-28.94-12.386-30.223-12.696-31.436-13.046z"/>
		</g>
	</g>
</g>
</svg>
