<?xml version="1.0" encoding="utf-8"?>
<!-- Generator: Adobe Illustrator 15.0.2, SVG Export Plug-In . SVG Version: 6.00 Build 0)  -->
<!DOCTYPE svg PUBLIC "-//W3C//DTD SVG 1.1//EN" "http://www.w3.org/Graphics/SVG/1.1/DTD/svg11.dtd">
<svg version="1.1" id="Layer_1" xmlns="http://www.w3.org/2000/svg" xmlns:xlink="http://www.w3.org/1999/xlink" x="0px" y="0px"
	 width="10px" height="10px" viewBox="0 0 10 10" enable-background="new 0 0 10 10" xml:space="preserve">
<g>
	<g>
		<g>
			<path d="M-44.618,14.176c-0.176,1.869-0.289,3.723-0.345,5.561c-0.027,0.92-0.04,1.834-0.037,2.744
				c0.006,0.902,0.017,1.822,0.079,2.682c0.177-0.477,0.382-0.986,0.585-1.484c0.206-0.5,0.417-0.998,0.635-1.496
				c0.434-0.996,0.888-1.986,1.36-2.967c0.943-1.963,1.956-3.893,3.042-5.773c2.175-3.754,4.639-7.346,7.541-10.462
				c1.452-1.553,3.016-2.98,4.709-4.176c1.691-1.195,3.516-2.153,5.433-2.717c1.914-0.568,3.915-0.726,5.885-0.431
				c0.985,0.146,1.961,0.398,2.915,0.743c0.477,0.172,0.949,0.368,1.415,0.583c0.471,0.218,0.909,0.447,1.401,0.715
				c3.833,2.077,7.508,4.52,11.121,7.076c3.615,2.558,7.169,5.245,10.808,7.858c3.642,2.604,7.362,5.169,11.406,7.278
				c2.022,1.049,4.132,1.977,6.354,2.639c2.217,0.664,4.561,1.049,6.921,0.951c2.358-0.09,4.7-0.697,6.802-1.729
				c2.11-1.027,3.979-2.436,5.637-4.023c1.65-1.582,3.14-3.393,4.229-5.454c1.09-2.054,1.745-4.386,1.721-6.739
				c-0.009-2.353-0.692-4.663-1.81-6.68c-1.118-2.026-2.641-3.782-4.354-5.277c-1.719-1.495-3.634-2.737-5.648-3.758
				c-2.017-1.02-4.136-1.82-6.305-2.417c-4.341-1.192-8.883-1.576-13.345-1.188c-2.231,0.195-4.443,0.585-6.603,1.164
				c-0.27,0.072-0.539,0.147-0.807,0.226c-0.258,0.079-0.536,0.129-0.807,0.188c-0.544,0.111-1.092,0.21-1.641,0.3
				c-1.098,0.179-2.203,0.323-3.311,0.436C5.939-11.007,1.45-11.03-2.982-11.602c-4.428-0.574-8.805-1.718-12.901-3.56
				c3.864,1.836,8.012,3.05,12.232,3.74c4.225,0.689,8.526,0.87,12.8,0.619c2.139-0.13,4.27-0.358,6.393-0.746l0.4-0.078
				l0.101-0.021l0.053-0.011l0.078-0.019l0.189-0.051c0.252-0.068,0.506-0.132,0.76-0.194c0.507-0.125,1.018-0.238,1.529-0.341
				c1.024-0.206,2.057-0.37,3.094-0.489c4.148-0.481,8.371-0.271,12.432,0.636c4.053,0.909,7.968,2.508,11.339,4.867
				c1.68,1.179,3.218,2.554,4.492,4.124c1.272,1.566,2.275,3.338,2.824,5.229c0.554,1.887,0.626,3.883,0.195,5.786
				c-0.424,1.906-1.326,3.704-2.512,5.312c-1.186,1.606-2.651,3.054-4.234,4.312c-1.584,1.248-3.322,2.268-5.177,2.912
				c-1.853,0.648-3.815,0.908-5.779,0.793c-1.965-0.111-3.925-0.58-5.825-1.268c-1.903-0.689-3.751-1.592-5.551-2.605
				s-3.554-2.143-5.279-3.326c-3.449-2.372-6.791-4.961-10.162-7.545C5.137,3.886,1.737,1.29-1.816-1.144
				C-3.593-2.36-5.409-3.536-7.279-4.641C-7.746-4.917-8.218-5.19-8.692-5.456C-9.177-5.73-9.699-6.002-10.22-6.248
				c-1.048-0.494-2.147-0.908-3.288-1.215c-2.277-0.62-4.727-0.776-7.083-0.41c-2.361,0.356-4.602,1.202-6.623,2.316
				c-2.026,1.117-3.853,2.494-5.521,3.996c-1.668,1.504-3.184,3.138-4.587,4.841C-40.126,6.692-42.502,10.375-44.618,14.176z"/>
		</g>
	</g>
</g>
</svg>
