<?xml version="1.0" encoding="utf-8"?>
<!-- Generator: Adobe Illustrator 15.0.2, SVG Export Plug-In . SVG Version: 6.00 Build 0)  -->
<!DOCTYPE svg PUBLIC "-//W3C//DTD SVG 1.1//EN" "http://www.w3.org/Graphics/SVG/1.1/DTD/svg11.dtd">
<svg version="1.1" id="Layer_1" xmlns="http://www.w3.org/2000/svg" xmlns:xlink="http://www.w3.org/1999/xlink" x="0px" y="0px"
	 width="10px" height="10px" viewBox="0 0 10 10" enable-background="new 0 0 10 10" xml:space="preserve">
<path d="M50.675-8.757c0,28.767-23.237,52.085-51.902,52.085c-22.932,0-41.521-18.655-41.521-41.668
	c0-18.41,14.872-33.334,33.217-33.334c14.676,0,26.573,11.939,26.573,26.667c0,11.782-9.519,21.334-21.259,21.334
	c-9.393,0-17.007-7.641-17.007-17.067c0-7.54,6.092-13.653,13.606-13.653c6.011,0,10.884,4.891,10.884,10.923
	c0,4.826-3.898,8.739-8.707,8.739c-3.848,0-6.966-3.131-6.966-6.991l-0.116-1.358c0,4.133,3.338,7.483,7.457,7.483
	c5.147,0,9.32-4.188,9.32-9.354c0-6.457-5.216-11.692-11.65-11.692c-8.043,0-14.563,6.544-14.563,14.615
	c0,10.09,8.15,18.269,18.205,18.269c12.566,0,22.755-10.224,22.755-22.836c0-15.765-12.734-28.545-28.444-28.545
	C-29.082-35.141-45-19.166-45,0.541c0,24.632,19.898,44.6,44.444,44.6C30.127,45.141,55,20.181,55-10.609L50.675-8.757z"/>
</svg>
