<?xml version="1.0" encoding="utf-8"?>
<!-- Generator: Adobe Illustrator 15.0.2, SVG Export Plug-In . SVG Version: 6.00 Build 0)  -->
<!DOCTYPE svg PUBLIC "-//W3C//DTD SVG 1.1//EN" "http://www.w3.org/Graphics/SVG/1.1/DTD/svg11.dtd">
<svg version="1.1" id="Layer_1" xmlns="http://www.w3.org/2000/svg" xmlns:xlink="http://www.w3.org/1999/xlink" x="0px" y="0px"
	 width="10px" height="10px" viewBox="0 0 10 10" enable-background="new 0 0 10 10" xml:space="preserve">
<g>
	<g>
		<g>
			<path d="M5.544-34.044c-0.129-1.767-0.2-3.558-0.198-5.374c0.002-0.908,0.021-1.823,0.063-2.746
				c0.022-0.462,0.051-0.926,0.088-1.394C5.538-44.03,5.573-44.491,5.662-45c-0.327,0.431-0.596,0.815-0.875,1.218
				c-0.275,0.398-0.543,0.796-0.805,1.196c-0.523,0.799-1.025,1.605-1.514,2.417c-0.974,1.625-1.886,3.277-2.745,4.955
				c-1.716,3.355-3.22,6.81-4.503,10.344c-2.565,7.065-4.244,14.463-4.84,21.957c-0.601,7.491-0.094,15.066,1.53,22.375
				c0.809,3.653,1.891,7.241,3.217,10.727c0.662,1.742,1.386,3.46,2.165,5.149c0.786,1.698,1.607,3.324,2.434,4.97
				c1.67,3.276,3.378,6.535,5.382,9.694c0.506,0.789,1.034,1.57,1.623,2.338c0.296,0.383,0.606,0.763,0.956,1.137
				c0.356,0.373,0.725,0.745,1.272,1.093c0.278,0.168,0.61,0.352,1.117,0.417c0.248,0.031,0.554,0.013,0.838-0.085
				c0.287-0.097,0.534-0.264,0.712-0.437c0.356-0.353,0.506-0.691,0.627-0.989c0.114-0.301,0.183-0.577,0.234-0.845
				c0.195-1.061,0.19-2.013,0.173-2.968c-0.056-1.896-0.267-3.734-0.512-5.565c-0.25-1.828-0.549-3.642-0.874-5.448
				c-0.652-3.613-1.404-7.198-2.21-10.769c-0.403-1.785-0.821-3.566-1.254-5.345l-0.663-2.664l-0.342-1.326
				c-0.106-0.423-0.194-0.856-0.259-1.29c-0.257-1.732-0.178-3.543,0.42-5.174c0.301-0.809,0.737-1.573,1.344-2.152
				c0.6-0.58,1.392-0.938,2.212-0.89c0.822,0.038,1.618,0.449,2.286,1.005c0.674,0.56,1.244,1.258,1.742,2.002
				c0.994,1.498,1.719,3.18,2.319,4.893c1.187,3.442,1.882,7.049,2.386,10.664v0.001v0.002c0.082,1.602,0.129,3.208-0.023,4.818
				c-0.046,0.402-0.1,0.806-0.229,1.207c-0.075,0.196-0.14,0.412-0.369,0.581c-0.118,0.085-0.304,0.095-0.427,0.04
				c-0.126-0.05-0.219-0.125-0.301-0.201c-0.314-0.314-0.51-0.676-0.706-1.034c-0.191-0.36-0.36-0.729-0.521-1.101
				c-0.633-1.487-1.146-3.013-1.642-4.541c-0.49-1.53-0.948-3.07-1.391-4.613c0.395,1.556,0.805,3.109,1.249,4.655
				c0.449,1.547,0.916,3.088,1.511,4.611c0.15,0.381,0.311,0.761,0.496,1.139c0.094,0.189,0.193,0.379,0.309,0.568
				c0.118,0.19,0.242,0.382,0.437,0.579c0.101,0.097,0.217,0.204,0.421,0.29c0.101,0.041,0.233,0.072,0.379,0.062
				c0.146-0.008,0.289-0.062,0.394-0.128c0.211-0.139,0.302-0.287,0.379-0.413c0.074-0.128,0.123-0.246,0.166-0.36
				c0.159-0.455,0.225-0.87,0.285-1.288c0.11-0.831,0.151-1.646,0.176-2.46c0.021-0.815,0.021-1.619-0.002-2.44v-0.015l-0.004-0.031
				c-0.374-3.465-0.924-6.93-1.919-10.322c-0.506-1.693-1.121-3.371-1.99-4.971c-0.438-0.798-0.941-1.576-1.566-2.295
				c-0.625-0.712-1.378-1.384-2.356-1.812c-0.485-0.211-1.031-0.35-1.595-0.366c-0.564-0.02-1.139,0.089-1.654,0.302
				c-1.042,0.43-1.813,1.211-2.369,2.04c-0.558,0.839-0.922,1.753-1.164,2.679c-0.239,0.929-0.353,1.874-0.367,2.813
				c-0.014,0.94,0.07,1.876,0.238,2.793l0.066,0.343l0.073,0.337l0.145,0.634l0.279,1.261c0.368,1.684,0.721,3.371,1.061,5.062
				c0.679,3.381,1.31,6.771,1.865,10.166c0.55,3.393,1.044,6.8,1.316,10.176c0.065,0.842,0.115,1.682,0.135,2.51
				c0.019,0.824,0.011,1.646-0.066,2.398c-0.038,0.372-0.098,0.731-0.178,0.998c-0.037,0.132-0.085,0.235-0.104,0.264
				c-0.002,0.004-0.004,0.006-0.004,0.006c-0.009-0.005,0.001,0.002,0.04,0.027l0.08,0.052c0.107,0.074,0.193,0.138,0.268,0.205
				c0.146,0.129,0.218,0.231,0.244,0.284c0.022,0.043,0.005,0.037,0.001-0.062c-0.004-0.097,0.016-0.257,0.083-0.476
				c0.017-0.06,0.037-0.11,0.06-0.171l0.036-0.095c0.017-0.041,0.024-0.053,0.019-0.045c-0.001-0.002-0.009-0.007-0.019-0.013
				c-0.022-0.014-0.061-0.039-0.104-0.072c-0.182-0.136-0.432-0.385-0.666-0.658c-0.479-0.556-0.946-1.227-1.392-1.912
				c-0.446-0.689-0.875-1.408-1.292-2.14c-0.832-1.463-1.62-2.976-2.384-4.503c-0.764-1.528-1.503-3.075-2.228-4.632
				c-0.721-1.561-1.446-3.123-2.097-4.671c-1.309-3.115-2.415-6.309-3.295-9.559c-1.764-6.496-2.603-13.219-2.477-19.92
				C-5.199-9.227-1.13-22.465,5.544-34.044z"/>
		</g>
	</g>
</g>
</svg>
