<?xml version="1.0" encoding="utf-8"?>
<!-- Generator: Adobe Illustrator 15.0.2, SVG Export Plug-In . SVG Version: 6.00 Build 0)  -->
<!DOCTYPE svg PUBLIC "-//W3C//DTD SVG 1.1//EN" "http://www.w3.org/Graphics/SVG/1.1/DTD/svg11.dtd">
<svg version="1.1" id="Layer_1" xmlns="http://www.w3.org/2000/svg" xmlns:xlink="http://www.w3.org/1999/xlink" x="0px" y="0px"
	 width="10px" height="10px" viewBox="0 0 10 10" enable-background="new 0 0 10 10" xml:space="preserve">
<g>
	<g>
		<g>
			<path d="M0.38-42.072c-2.224,1.964-4.293,3.997-6.288,6.071c-0.996,1.037-1.972,2.085-2.928,3.142
				c-0.951,1.056-1.904,2.128-2.782,3.193c1.486-0.812,3.048-1.616,4.597-2.385c1.556-0.77,3.122-1.514,4.699-2.224
				c3.15-1.412,6.352-2.715,9.544-3.683c1.589-0.477,3.19-0.87,4.676-1.045c0.735-0.086,1.445-0.111,2.008-0.05
				c0.279,0.029,0.517,0.08,0.677,0.133c0.162,0.054,0.235,0.102,0.247,0.109c0.014,0.009-0.002-0.025,0.022,0.015
				c0.022,0.035,0.062,0.162,0.075,0.363c0.032,0.405-0.059,1.055-0.245,1.728c-0.376,1.37-1.061,2.869-1.834,4.326
				c-1.568,2.934-3.513,5.811-5.544,8.621c-2.041,2.812-4.201,5.567-6.418,8.285c-2.222,2.716-4.488,5.409-6.813,8.006
				c-1.164,1.297-2.345,2.572-3.552,3.787c-0.603,0.606-1.213,1.198-1.828,1.754c-0.611,0.553-1.241,1.085-1.822,1.487
				c-0.278,0.196-0.58,0.364-0.68,0.402c-0.021,0.01-0.021,0.007,0.021,0c0.046-0.006,0.14-0.027,0.346-0.007
				c0.195,0.018,0.55,0.116,0.845,0.354c0.297,0.234,0.449,0.518,0.507,0.674c0.062,0.167,0.064,0.24,0.068,0.274
				c0.002,0.029-0.002,0.022-0.001-0.008c0-0.059,0.013-0.185,0.039-0.326c0.052-0.288,0.149-0.645,0.267-1.004
				c0.236-0.728,0.549-1.495,0.888-2.257c0.341-0.764,0.712-1.528,1.101-2.289c1.566-3.046,3.378-6.027,5.31-8.91
				c1.939-2.878,4.014-5.674,6.265-8.268c1.126-1.294,2.299-2.537,3.533-3.661c0.616-0.561,1.249-1.09,1.894-1.562
				c0.645-0.47,1.307-0.885,1.946-1.176c0.635-0.294,1.253-0.435,1.64-0.392c0.196,0.02,0.338,0.065,0.486,0.154
				c0.146,0.087,0.306,0.233,0.465,0.448c0.319,0.43,0.592,1.1,0.78,1.828c0.191,0.732,0.314,1.532,0.394,2.349
				c0.158,1.639,0.152,3.352,0.074,5.067c-0.08,1.719-0.236,3.45-0.438,5.181C11.8-6.633,10.346,0.276,8.801,7.166
				c-0.779,3.442-1.604,6.871-2.519,10.269c-0.922,3.391-1.907,6.775-3.166,9.996c-0.317,0.802-0.655,1.591-1.029,2.339
				c-0.188,0.373-0.384,0.736-0.593,1.074c-0.208,0.335-0.433,0.652-0.65,0.882c-0.106,0.114-0.214,0.201-0.275,0.239
				c-0.068,0.043-0.044,0.009,0.061,0.022c0.106,0.019,0.132,0.07,0.079,0.019c-0.048-0.045-0.127-0.156-0.197-0.293
				c-0.145-0.278-0.271-0.646-0.371-1.028c-0.102-0.384-0.184-0.788-0.251-1.2c-0.267-1.657-0.348-3.401-0.365-5.138
				c-0.014-1.74,0.051-3.489,0.168-5.236c0.238-3.494,0.684-6.984,1.337-10.429C1.688,5.24,2.546,1.827,3.782-1.43
				c0.622-1.624,1.341-3.21,2.232-4.675C6.906-7.559,7.98-8.927,9.347-9.824c0.681-0.444,1.432-0.751,2.217-0.856
				c0.784-0.109,1.595-0.012,2.372,0.241c1.563,0.514,2.963,1.577,4.203,2.769c1.247,1.205,2.34,2.562,3.383,3.991
				c1.007,1.379,1.805,2.959,2.434,4.577c1.255,3.254,1.774,6.792,1.545,10.29c-0.221,3.503-1.18,6.945-2.64,10.152
				c-1.459,3.213-3.402,6.198-5.613,8.959c-1.1,1.387-2.308,2.685-3.45,4.038c-1.149,1.348-2.275,2.715-3.361,4.112
				c-1.084,1.398-2.131,2.827-3.089,4.312c-0.95,1.485-1.837,3.026-2.429,4.674c-0.288,0.822-0.499,1.679-0.501,2.532
				c-0.008,0.851,0.244,1.689,0.782,2.329c0.531,0.645,1.285,1.09,2.076,1.415c0.797,0.326,1.645,0.541,2.501,0.706
				c1.718,0.322,3.479,0.447,5.237,0.521c1.761,0.068,3.527,0.072,5.295,0.055c-1.684-0.015-3.366-0.05-5.041-0.141
				c-1.673-0.094-3.344-0.237-4.971-0.537c-0.811-0.151-1.611-0.344-2.37-0.616c-0.755-0.272-1.476-0.626-2.039-1.119
				c-0.567-0.488-0.941-1.121-1.062-1.841c-0.126-0.719-0.029-1.5,0.178-2.262c0.426-1.532,1.225-2.999,2.092-4.402
				c0.88-1.405,1.862-2.757,2.887-4.078c2.058-2.645,4.275-5.151,6.559-7.646c2.279-2.545,4.352-5.303,6.048-8.307
				c1.693-2.998,3.005-6.256,3.684-9.68c0.685-3.418,0.714-6.994,0-10.437c-0.354-1.72-0.887-3.405-1.597-5.02
				c-0.356-0.808-0.756-1.597-1.211-2.365c-0.23-0.386-0.466-0.759-0.746-1.145l-0.081-0.11l-0.093-0.133l-0.188-0.265l-0.383-0.526
				c-1.036-1.393-2.169-2.74-3.507-3.944c-0.671-0.599-1.395-1.162-2.202-1.643c-0.805-0.479-1.699-0.877-2.681-1.09
				c-0.977-0.215-2.041-0.218-3.038,0.029c-0.999,0.243-1.909,0.714-2.69,1.283C6.29-9.848,5.17-8.367,4.228-6.856
				C3.292-5.334,2.545-3.742,1.893-2.127c-0.65,1.614-1.198,3.257-1.681,4.911c-0.961,3.312-1.665,6.673-2.194,10.061
				c-0.522,3.389-0.874,6.801-0.985,10.252c-0.052,1.728-0.047,3.462,0.095,5.232c0.075,0.887,0.18,1.779,0.382,2.714
				c0.104,0.468,0.23,0.945,0.437,1.462c0.104,0.259,0.229,0.528,0.413,0.821c0.188,0.287,0.429,0.619,0.875,0.93
				c0.222,0.151,0.507,0.29,0.825,0.362c0.317,0.076,0.653,0.077,0.942,0.027c0.585-0.105,0.965-0.347,1.26-0.558
				c0.575-0.438,0.9-0.862,1.21-1.275c0.593-0.824,1.015-1.628,1.412-2.436c0.78-1.613,1.403-3.229,1.988-4.851
				c1.156-3.246,2.124-6.514,3.032-9.793c0.905-3.278,1.737-6.568,2.531-9.865c0.79-3.293,1.556-6.605,2.229-9.948
				c0.672-3.343,1.269-6.71,1.696-10.133c0.211-1.712,0.38-3.438,0.468-5.191c0.083-1.755,0.1-3.532-0.089-5.379
				c-0.1-0.925-0.248-1.868-0.526-2.849c-0.288-0.975-0.68-2.02-1.513-3.042c-0.418-0.503-0.97-0.99-1.635-1.334
				c-0.662-0.349-1.41-0.531-2.097-0.567c-0.69-0.039-1.324,0.049-1.894,0.186c-0.571,0.138-1.088,0.328-1.568,0.54
				c-0.96,0.426-1.788,0.938-2.563,1.477c-0.773,0.541-1.489,1.115-2.174,1.707c-1.365,1.186-2.608,2.441-3.793,3.732
				c-2.363,2.586-4.495,5.311-6.504,8.12C-9.529-14-11.405-11.107-13.12-8.072C-13.974-6.549-14.79-5-15.521-3.329
				c-0.362,0.845-0.708,1.701-0.988,2.724c-0.069,0.259-0.133,0.529-0.187,0.832c-0.052,0.306-0.098,0.635-0.101,1.062
				c0,0.213,0.012,0.456,0.062,0.749c0.055,0.297,0.139,0.65,0.373,1.084c0.223,0.426,0.663,0.93,1.212,1.226
				c0.547,0.303,1.082,0.387,1.477,0.397c0.795,0.003,1.218-0.167,1.592-0.295c0.365-0.139,0.647-0.283,0.909-0.427
				c0.515-0.287,0.935-0.575,1.333-0.865c0.791-0.58,1.481-1.169,2.153-1.766c1.334-1.195,2.563-2.421,3.768-3.662
				c2.397-2.484,4.669-5.032,6.901-7.605c2.23-2.574,4.423-5.19,6.551-7.88c2.127-2.693,4.194-5.451,6.117-8.387
				c0.958-1.472,1.882-2.986,2.724-4.607c0.42-0.812,0.819-1.651,1.182-2.543c0.359-0.894,0.688-1.836,0.917-2.902
				c0.113-0.535,0.203-1.101,0.233-1.723c0.03-0.621,0.007-1.301-0.153-2.043c-0.158-0.737-0.473-1.546-0.989-2.262
				c-0.509-0.72-1.195-1.301-1.874-1.693c-0.683-0.395-1.354-0.629-1.978-0.784c-0.625-0.153-1.211-0.229-1.769-0.268
				c-1.114-0.075-2.125-0.009-3.094,0.101c-1.933,0.231-3.705,0.655-5.435,1.14C3.691-43.238,2.021-42.675,0.38-42.072z"/>
		</g>
	</g>
</g>
</svg>
