<?xml version="1.0" encoding="utf-8"?>
<!-- Generator: Adobe Illustrator 15.0.2, SVG Export Plug-In . SVG Version: 6.00 Build 0)  -->
<!DOCTYPE svg PUBLIC "-//W3C//DTD SVG 1.1//EN" "http://www.w3.org/Graphics/SVG/1.1/DTD/svg11.dtd">
<svg version="1.1" id="Layer_1" xmlns="http://www.w3.org/2000/svg" xmlns:xlink="http://www.w3.org/1999/xlink" x="0px" y="0px"
	 width="10px" height="10px" viewBox="0 0 10 10" enable-background="new 0 0 10 10" xml:space="preserve">
<g>
	<g>
		<g>
			<path d="M-40.74,8.493c-0.93,1.911-1.755,3.833-2.481,5.758c-0.362,0.962-0.7,1.926-1.007,2.887
				c-0.153,0.48-0.299,0.961-0.434,1.438c-0.129,0.475-0.27,0.962-0.338,1.404c0.305-0.265,0.685-0.571,1.047-0.857
				c0.368-0.29,0.744-0.578,1.124-0.863c0.76-0.569,1.538-1.125,2.328-1.664c1.58-1.079,3.206-2.095,4.869-3.036
				c3.325-1.88,6.801-3.472,10.378-4.602c3.573-1.126,7.257-1.783,10.885-1.699c3.625,0.075,7.173,0.928,10.367,2.6
				c1.599,0.831,3.109,1.857,4.515,3.039c0.358,0.302,0.681,0.589,1.049,0.929l1.128,1.028c0.756,0.684,1.521,1.361,2.295,2.032
				c1.549,1.34,3.134,2.652,4.801,3.906c1.672,1.249,3.404,2.455,5.393,3.475c0.999,0.503,2.067,0.964,3.307,1.255
				c0.621,0.142,1.288,0.237,2.003,0.229c0.712-0.008,1.472-0.132,2.186-0.399c0.714-0.266,1.36-0.665,1.891-1.108
				c0.534-0.443,0.966-0.926,1.339-1.4c0.742-0.956,1.273-1.896,1.781-2.788c0.502-0.894,0.968-1.747,1.46-2.546
				c0.245-0.399,0.496-0.785,0.758-1.152l0.868-1.204c1.163-1.589,2.351-3.143,3.638-4.468c1.277-1.316,2.71-2.382,4.05-2.509
				c0.67-0.074,1.367,0.061,2.094,0.392c0.18,0.084,0.361,0.174,0.541,0.278c0.091,0.05,0.181,0.107,0.271,0.161l0.289,0.188
				c0.479,0.314,0.959,0.592,1.461,0.845c1,0.503,2.055,0.899,3.175,1.149c1.118,0.244,2.315,0.352,3.557,0.134
				c0.617-0.109,1.244-0.308,1.831-0.618c0.587-0.309,1.125-0.731,1.562-1.226c0.884-0.997,1.332-2.2,1.554-3.328
				c0.223-1.14,0.24-2.25,0.176-3.325c-0.068-1.076-0.226-2.123-0.434-3.147c-0.207-1.025-0.465-2.029-0.756-3.018l-0.227-0.748
				l-0.115-0.358l-0.13-0.384c-0.174-0.498-0.365-0.991-0.577-1.477c-0.842-1.941-2.008-3.782-3.536-5.299
				c-1.521-1.52-3.403-2.68-5.428-3.354c-2.026-0.68-4.168-0.892-6.251-0.746c-2.087,0.146-4.123,0.64-6.048,1.376
				c-3.852,1.483-7.273,3.911-10.026,6.911c-0.688,0.749-1.332,1.547-1.933,2.355c-0.605,0.807-1.196,1.625-1.76,2.465
				c-0.562,0.84-1.101,1.699-1.566,2.605c-0.23,0.454-0.445,0.919-0.609,1.409c-0.158,0.488-0.295,1.009-0.215,1.561
				c0.041,0.272,0.164,0.552,0.373,0.75c0.206,0.201,0.469,0.313,0.725,0.378c0.52,0.124,1.039,0.095,1.542,0.04
				c1.011-0.126,1.984-0.397,2.944-0.694c1.917-0.607,3.781-1.357,5.636-2.127l-0.006,0.003c1.494-0.787,3.016-1.521,4.557-2.213
				c1.543-0.689,3.108-1.335,4.714-1.887c0.803-0.275,1.616-0.526,2.447-0.731c0.83-0.202,1.678-0.368,2.56-0.405
				c0.441-0.017,0.893,0,1.354,0.104c0.452,0.102,0.944,0.312,1.296,0.729c0.354,0.416,0.48,0.962,0.48,1.438
				c0.003,0.485-0.091,0.937-0.212,1.37c0.135-0.429,0.243-0.878,0.255-1.369c0.015-0.481-0.097-1.048-0.456-1.494
				c-0.356-0.447-0.867-0.681-1.332-0.8c-0.474-0.122-0.937-0.152-1.388-0.15c-0.902,0.009-1.767,0.149-2.614,0.325
				c-0.848,0.179-1.677,0.405-2.496,0.655c-1.638,0.502-3.234,1.098-4.811,1.739c-1.577,0.645-3.124,1.327-4.669,2.074l0.066-0.03
				c-1.771,0.666-3.551,1.311-5.339,1.826c-0.892,0.254-1.791,0.478-2.66,0.596c-0.431,0.057-0.86,0.086-1.225,0.053
				c-0.181-0.015-0.341-0.051-0.451-0.094c-0.111-0.045-0.151-0.087-0.16-0.107c-0.011-0.019-0.03-0.058-0.038-0.169
				c-0.006-0.108,0.009-0.264,0.047-0.436C16.573,2,16.729,1.606,16.914,1.219c0.376-0.78,0.864-1.558,1.383-2.318
				c0.521-0.76,1.079-1.508,1.653-2.246c0.58-0.736,1.165-1.476,1.768-2.148c2.434-2.719,5.437-4.931,8.745-6.375
				c3.294-1.436,6.953-2.101,10.348-1.48c1.69,0.307,3.289,0.944,4.669,1.896c1.384,0.947,2.539,2.207,3.438,3.655
				C49.818-6.342,50.461-4.725,50.912-3c0.471,1.766,0.837,3.55,0.96,5.277c0.061,0.861,0.055,1.706-0.048,2.484
				c-0.102,0.777-0.31,1.483-0.618,2.001c-0.312,0.521-0.685,0.838-1.18,1.041c-0.496,0.202-1.149,0.271-1.862,0.195
				c-1.434-0.149-3.012-0.811-4.321-1.708l-0.26-0.183c-0.117-0.081-0.232-0.163-0.355-0.241c-0.24-0.16-0.495-0.311-0.757-0.456
				c-0.527-0.286-1.101-0.539-1.724-0.722c-1.238-0.383-2.698-0.41-3.968-0.062c-1.279,0.337-2.35,0.951-3.265,1.606
				c-0.919,0.663-1.706,1.387-2.435,2.123c-1.451,1.479-2.685,3.016-3.883,4.546l-0.446,0.576l-0.456,0.6
				c-0.315,0.428-0.611,0.859-0.892,1.287c-0.561,0.857-1.06,1.706-1.542,2.495c-0.48,0.787-0.949,1.521-1.412,2.084
				c-0.466,0.57-0.9,0.907-1.236,1.03c-0.174,0.066-0.344,0.102-0.561,0.11c-0.214,0.008-0.475-0.015-0.771-0.078
				c-0.593-0.125-1.301-0.404-2.013-0.77c-1.437-0.737-2.903-1.771-4.323-2.878c-2.849-2.237-5.579-4.797-8.253-7.422L4.751,9.411
				L4.179,8.879C3.792,8.528,3.397,8.186,2.992,7.853c-0.81-0.665-1.656-1.296-2.538-1.879c-1.763-1.169-3.668-2.153-5.663-2.907
				c-3.993-1.523-8.304-2.08-12.469-1.879c-4.177,0.195-8.225,1.091-12.067,2.379C-33.592,4.86-37.25,6.547-40.74,8.493z"/>
		</g>
	</g>
</g>
</svg>
