<?xml version="1.0" encoding="utf-8"?>
<!-- Generator: Adobe Illustrator 15.0.2, SVG Export Plug-In . SVG Version: 6.00 Build 0)  -->
<!DOCTYPE svg PUBLIC "-//W3C//DTD SVG 1.1//EN" "http://www.w3.org/Graphics/SVG/1.1/DTD/svg11.dtd">
<svg version="1.1" id="Layer_1" xmlns="http://www.w3.org/2000/svg" xmlns:xlink="http://www.w3.org/1999/xlink" x="0px" y="0px"
	 width="10px" height="10px" viewBox="0 0 10 10" enable-background="new 0 0 10 10" xml:space="preserve">
<g>
	<g>
		<g>
			<path d="M-35.828-8.158c-1.668-2.803-3.249-5.717-4.751-8.708c-0.751-1.496-1.483-3.01-2.193-4.547
				c-0.708-1.545-1.403-3.072-2.051-4.72c-0.111,2.106-0.153,4.102-0.171,6.141c-0.016,2.029,0.004,4.056,0.061,6.084
				c0.115,4.057,0.37,8.121,0.839,12.197c0.476,4.076,1.147,8.167,2.262,12.267c0.562,2.049,1.239,4.101,2.124,6.142
				c0.891,2.036,1.982,4.076,3.515,5.999c0.766,0.958,1.652,1.883,2.684,2.709c1.029,0.825,2.212,1.548,3.501,2.067
				c1.286,0.521,2.666,0.836,4.017,0.932c1.354,0.101,2.672-0.002,3.909-0.23c2.482-0.467,4.646-1.395,6.615-2.454
				c1.967-1.07,3.747-2.298,5.424-3.596c1.676-1.3,3.243-2.676,4.747-4.092c1.474-1.394,2.916-2.813,4.33-4.274
				c2.823-2.925,5.528-5.996,7.999-9.315c2.456-3.33,4.73-6.876,6.341-10.978c0.784-2.058,1.422-4.265,1.514-6.763
				c0.035-1.247-0.074-2.581-0.517-3.948c-0.432-1.357-1.26-2.755-2.465-3.786c-1.195-1.042-2.67-1.647-4.052-1.888
				c-1.394-0.247-2.718-0.18-3.945,0.029c-2.456,0.439-4.565,1.427-6.465,2.595c-3.784,2.375-6.746,5.536-9.21,8.935
				c-1.227,1.699-2.332,3.499-3.305,5.298c-0.991,1.822-1.894,3.698-2.644,5.695c-0.742,1.995-1.344,4.112-1.515,6.427
				c-0.079,1.156-0.043,2.366,0.212,3.595c0.251,1.225,0.738,2.467,1.479,3.554c0.736,1.091,1.707,1.998,2.748,2.678
				c1.044,0.682,2.151,1.159,3.251,1.497c2.208,0.676,4.395,0.854,6.521,0.843c4.255-0.06,8.32-0.895,12.241-2.102
				c1.958-0.612,3.88-1.333,5.757-2.17c0.938-0.42,1.865-0.866,2.777-1.35l0.688-0.373c0.258-0.145,0.483-0.278,0.72-0.428
				c0.468-0.293,0.919-0.607,1.354-0.938c1.744-1.327,3.209-2.928,4.452-4.624c1.243-1.699,2.276-3.498,3.193-5.319
				c1.837-3.64,3.178-7.43,4.735-10.944c0.394-0.872,0.806-1.723,1.262-2.502c0.452-0.772,0.966-1.487,1.503-1.932
				c0.553-0.445,0.971-0.571,1.575-0.459c0.611,0.12,1.346,0.551,2.024,1.098c0.686,0.549,1.343,1.208,1.972,1.907
				c0.637,0.705,1.217,1.433,1.832,2.221c1.23,1.563,2.478,3.102,3.721,4.637c1.241,1.535,2.481,3.062,3.647,4.617
				c1.155,1.555,2.265,3.144,3.013,4.812c0.369,0.833,0.635,1.684,0.717,2.531c0.083,0.847-0.02,1.688-0.312,2.5
				c-0.584,1.634-1.828,3.105-3.193,4.425c-1.381,1.322-2.92,2.522-4.501,3.668c-1.585,1.144-3.222,2.23-4.879,3.288
				c-3.319,2.11-6.712,4.135-10.138,6.079c-1.715,0.968-3.444,1.909-5.2,2.794c-1.756,0.88-3.535,1.721-5.367,2.383
				c-0.915,0.323-1.849,0.612-2.783,0.734c-0.464,0.057-0.935,0.073-1.346-0.032c-0.414-0.102-0.718-0.343-0.851-0.728
				c-0.136-0.384-0.122-0.857-0.051-1.317c0.073-0.464,0.202-0.93,0.356-1.389c0.31-0.917,0.714-1.813,1.146-2.694
				c0.87-1.761,1.862-3.468,2.884-5.156c1.025-1.687,2.087-3.353,3.164-5.009c1.073-1.654,2.198-3.297,3.014-5.1
				c0.188-0.451,0.386-0.922,0.39-1.408c-0.004-0.119-0.028-0.241-0.101-0.329c-0.07-0.089-0.183-0.134-0.299-0.143
				c-0.236-0.014-0.476,0.061-0.702,0.143c-0.909,0.366-1.729,0.931-2.536,1.491c-1.605,1.144-3.124,2.406-4.616,3.695
				c-1.491,1.292-2.948,2.623-4.383,3.978c-2.869,2.713-5.649,5.516-8.34,8.396c-2.685,2.886-5.297,5.845-7.69,8.954
				c2.352-2.905,4.897-5.665,7.51-8.354c2.617-2.686,5.315-5.295,8.084-7.82c2.772-2.515,5.609-4.982,8.586-7.188
				c0.744-0.546,1.5-1.073,2.265-1.537c0.381-0.229,0.768-0.445,1.134-0.607c0.182-0.08,0.361-0.146,0.495-0.178
				c0.062-0.021,0.115,0.001,0.115-0.036c-0.006-0.343,0.072-0.548,0.103-0.579c0.032-0.033-0.06,0.073-0.331,0.113
				c-0.053,0.002-0.148,0.022-0.225,0.023c-0.091,0-0.026-0.001-0.048,0.009c0.002,0.007-0.004,0.033-0.007,0.057
				c-0.018,0.111-0.072,0.292-0.141,0.47c-0.14,0.364-0.339,0.759-0.549,1.147c-0.429,0.779-0.922,1.557-1.433,2.323
				c-2.11,3.082-4.276,6.214-6.23,9.492c-0.971,1.654-1.921,3.321-2.649,5.227c-0.178,0.482-0.341,0.98-0.456,1.529
				c-0.11,0.551-0.202,1.151-0.074,1.896c0.07,0.371,0.216,0.787,0.49,1.165c0.273,0.378,0.66,0.673,1.034,0.846
				c0.76,0.344,1.412,0.353,1.992,0.341c1.159-0.058,2.137-0.324,3.1-0.608c0.955-0.294,1.87-0.637,2.769-1.001
				c1.795-0.73,3.524-1.548,5.23-2.396c3.408-1.702,6.728-3.539,10.01-5.417c3.284-1.89,6.551-3.832,9.714-6.051
				c1.577-1.118,3.133-2.304,4.595-3.705c0.729-0.703,1.433-1.466,2.072-2.331c0.634-0.868,1.209-1.852,1.582-2.976
				c0.377-1.118,0.512-2.366,0.389-3.539c-0.117-1.177-0.454-2.263-0.866-3.25c-0.841-1.973-1.947-3.627-3.058-5.22
				c-2.251-3.156-4.608-6.064-6.85-9.058l-0.841-1.122c-0.292-0.391-0.595-0.786-0.908-1.175c-0.627-0.779-1.294-1.546-2.049-2.289
				c-0.763-0.736-1.597-1.466-2.717-2.073c-0.56-0.297-1.208-0.563-1.965-0.696c-0.751-0.137-1.619-0.102-2.397,0.141
				c-0.783,0.237-1.44,0.642-1.969,1.068c-0.53,0.431-0.951,0.889-1.318,1.344c-0.728,0.914-1.259,1.823-1.745,2.721
				c-0.955,1.795-1.704,3.557-2.464,5.285c-1.498,3.448-2.978,6.795-4.883,9.74c-0.949,1.467-2.003,2.824-3.182,3.981
				c-0.59,0.578-1.211,1.106-1.862,1.572c-0.325,0.233-0.658,0.451-0.999,0.653c-0.166,0.099-0.352,0.203-0.506,0.285l-0.574,0.294
				c-3.165,1.573-6.58,2.774-10.042,3.597c-3.455,0.807-7.024,1.258-10.338,0.983c-1.643-0.14-3.219-0.486-4.461-1.091
				c-0.618-0.302-1.147-0.66-1.556-1.066c-0.414-0.406-0.715-0.856-0.934-1.377c-0.441-1.03-0.518-2.426-0.269-3.938
				c0.242-1.512,0.769-3.107,1.436-4.68c0.67-1.57,1.498-3.154,2.381-4.666c0.913-1.569,1.861-3.004,2.919-4.396
				c2.1-2.753,4.57-5.208,7.31-6.903c1.36-0.84,2.798-1.478,4.137-1.765c0.665-0.143,1.301-0.194,1.833-0.148
				c0.536,0.043,0.948,0.183,1.221,0.351c0.274,0.174,0.444,0.361,0.61,0.676c0.162,0.313,0.29,0.777,0.329,1.354
				c0.088,1.159-0.193,2.661-0.705,4.147C7.162-8.775,6.435-7.254,5.59-5.766c-0.847,1.489-1.813,2.952-2.856,4.38
				c-2.089,2.858-4.47,5.581-6.994,8.19c-1.264,1.305-2.565,2.582-3.897,3.833l-1.005,0.935l-1.02,0.93
				c-0.656,0.592-1.334,1.18-2.011,1.743c-1.358,1.13-2.749,2.187-4.165,3.115c-1.414,0.929-2.859,1.73-4.279,2.307
				c-1.417,0.576-2.805,0.909-3.995,0.913c-1.198,0.003-2.165-0.277-3.1-0.873c-0.932-0.595-1.837-1.561-2.632-2.786
				c-0.796-1.222-1.479-2.673-2.054-4.219c-1.15-3.105-1.897-6.565-2.425-10.083C-35.366-0.907-35.667-4.522-35.828-8.158z"/>
		</g>
	</g>
</g>
</svg>
