<?xml version="1.0" encoding="utf-8"?>
<!-- Generator: Adobe Illustrator 15.0.2, SVG Export Plug-In . SVG Version: 6.00 Build 0)  -->
<!DOCTYPE svg PUBLIC "-//W3C//DTD SVG 1.1//EN" "http://www.w3.org/Graphics/SVG/1.1/DTD/svg11.dtd">
<svg version="1.1" id="Layer_1" xmlns="http://www.w3.org/2000/svg" xmlns:xlink="http://www.w3.org/1999/xlink" x="0px" y="0px"
	 width="10px" height="10px" viewBox="0 0 10 10" enable-background="new 0 0 10 10" xml:space="preserve">
<g>
	<g>
		<g>
			<path d="M-44.836,3.154c-0.274,2.78-0.188,5.452,0.145,7.994c0.167,1.271,0.398,2.51,0.689,3.708
				c0.146,0.599,0.307,1.188,0.486,1.759c0.09,0.285,0.184,0.566,0.285,0.839c0.102,0.269,0.205,0.545,0.333,0.749
				c0.045-0.225,0.125-0.54,0.203-0.833c0.081-0.298,0.168-0.602,0.261-0.906c0.186-0.609,0.393-1.22,0.616-1.825
				c0.448-1.212,0.963-2.403,1.539-3.555c1.153-2.305,2.557-4.455,4.21-6.322c1.653-1.868,3.56-3.442,5.683-4.612
				c2.122-1.173,4.461-1.937,6.923-2.283c4.938-0.708,10.266,0.251,15.36,2.042C-2.989,1.71,1.957,4.313,6.697,7.279
				c2.372,1.486,4.697,3.072,6.979,4.729l1.704,1.256l0.847,0.638l0.211,0.16c-0.226-0.191-0.033-0.028-0.07-0.06l0.051,0.044
				l0.12,0.102l0.437,0.365c1.156,0.954,2.322,1.859,3.514,2.742c2.382,1.761,4.846,3.415,7.435,4.916
				c2.591,1.492,5.302,2.849,8.253,3.842c1.477,0.491,3.019,0.889,4.647,1.089c1.624,0.196,3.36,0.196,5.107-0.24
				c0.869-0.217,1.732-0.549,2.537-0.997c0.805-0.45,1.548-1.013,2.187-1.653c1.288-1.283,2.157-2.815,2.76-4.339
				c0.603-1.531,0.961-3.077,1.197-4.606c0.233-1.529,0.341-3.046,0.376-4.549c0.064-3.004-0.154-5.954-0.499-8.869
				c-0.35-2.914-0.836-5.792-1.403-8.645c-0.569-2.847-1.191-5.684-1.961-8.513c-0.388-1.415-0.812-2.826-1.324-4.233
				c-0.258-0.703-0.536-1.405-0.864-2.106c-0.329-0.701-0.694-1.403-1.197-2.101c-0.254-0.349-0.544-0.698-0.925-1.032
				c-0.38-0.327-0.881-0.66-1.539-0.802c-0.66-0.149-1.384-0.006-1.89,0.253c-0.519,0.257-0.891,0.583-1.211,0.907
				c-0.626,0.654-1.053,1.329-1.443,2.003c-0.385,0.676-0.713,1.355-1.018,2.038c-1.196,2.731-2.071,5.498-2.914,8.27
				c-0.832,2.773-1.592,5.555-2.339,8.336c-1.492,5.561-2.916,11.128-4.53,16.632c-0.811,2.751-1.665,5.486-2.644,8.174
				c-0.99,2.676-2.063,5.345-3.562,7.743c-0.379,0.595-0.79,1.167-1.253,1.687c-0.462,0.518-0.981,0.983-1.573,1.302
				c-0.589,0.319-1.261,0.453-1.912,0.317c-0.324-0.065-0.64-0.189-0.939-0.353c-0.294-0.169-0.62-0.37-0.942-0.533
				c-1.296-0.676-2.715-1.111-4.158-1.282c-1.445-0.172-2.906-0.088-4.325,0.162c-2.851,0.505-5.52,1.63-8.152,2.771
				c-1.32,0.568-2.635,1.156-4.005,1.627c-0.686,0.231-1.388,0.434-2.117,0.542c-0.725,0.105-1.498,0.116-2.23-0.138
				c-0.736-0.245-1.355-0.792-1.765-1.429c-0.417-0.639-0.676-1.349-0.867-2.062c-0.373-1.432-0.491-2.893-0.546-4.343
				c-0.088-2.906,0.12-5.795,0.395-8.669c-0.345,2.729-0.627,5.474-0.655,8.259c-0.006,1.393,0.045,2.796,0.295,4.215
				c0.129,0.708,0.31,1.423,0.616,2.125c0.305,0.694,0.76,1.403,1.456,1.912c0.691,0.517,1.56,0.737,2.343,0.758
				c0.792,0.025,1.534-0.101,2.241-0.267c1.413-0.345,2.712-0.855,3.997-1.356c2.557-1.014,5.057-2.053,7.628-2.631
				c2.555-0.588,5.189-0.661,7.543,0.188c0.586,0.208,1.155,0.467,1.699,0.773c0.136,0.075,0.273,0.156,0.402,0.236l0.448,0.28
				c0.37,0.218,0.779,0.407,1.233,0.521c0.905,0.25,1.942,0.124,2.747-0.246c0.817-0.364,1.46-0.887,2.014-1.431
				c1.098-1.103,1.892-2.327,2.614-3.562c0.714-1.24,1.33-2.508,1.904-3.786c1.14-2.558,2.105-5.158,3.013-7.77
				c1.804-5.226,3.358-10.499,4.926-15.75c1.572-5.243,3.099-10.506,4.945-15.554c0.466-1.258,0.956-2.498,1.492-3.684
				c0.535-1.174,1.133-2.34,1.788-3.205c0.161-0.213,0.325-0.398,0.471-0.536c0.145-0.137,0.274-0.216,0.302-0.222
				c-0.002-0.009,0.014,0.02-0.004-0.022c-0.021-0.047-0.041-0.109-0.056-0.151c-0.03-0.09-0.048-0.167-0.057-0.219
				c-0.018-0.105-0.003-0.123-0.016-0.051c-0.012,0.071-0.056,0.229-0.17,0.448c-0.002,0.004,0.024,0.02,0.065,0.057
				c0.18,0.151,0.496,0.583,0.751,1.066c0.265,0.489,0.51,1.05,0.734,1.63c0.894,2.354,1.524,4.977,2.085,7.591
				c0.552,2.623,1.03,5.303,1.438,7.959c0.403,2.66,0.723,5.323,0.903,7.972c0.178,2.646,0.223,5.285,0.008,7.835
				c-0.22,2.53-0.708,5.027-1.703,6.975c-0.495,0.969-1.109,1.763-1.821,2.318c-0.712,0.559-1.53,0.903-2.494,1.061
				c-1.933,0.32-4.32-0.176-6.618-1.032c-2.317-0.861-4.609-2.068-6.83-3.426c-2.222-1.361-4.382-2.884-6.473-4.501
				c-1.045-0.81-2.073-1.645-3.073-2.497l-0.74-0.643l-0.357-0.318l-0.079-0.072l-0.048-0.043l-0.191-0.159l-0.204-0.165
				l-1.64-1.307C13.808,4.492,9.201,1.24,4.264-1.602C-0.672-4.429-5.949-6.889-11.727-8.353c-2.885-0.725-5.901-1.182-8.997-1.205
				c-3.091-0.025-6.267,0.406-9.303,1.406c-3.038,0.991-5.905,2.551-8.396,4.512C-40.922-1.682-43.052,0.649-44.836,3.154z"/>
		</g>
	</g>
</g>
</svg>
