<?xml version="1.0" encoding="utf-8"?>
<!-- Generator: Adobe Illustrator 15.0.2, SVG Export Plug-In . SVG Version: 6.00 Build 0)  -->
<!DOCTYPE svg PUBLIC "-//W3C//DTD SVG 1.1//EN" "http://www.w3.org/Graphics/SVG/1.1/DTD/svg11.dtd">
<svg version="1.1" id="Layer_1" xmlns="http://www.w3.org/2000/svg" xmlns:xlink="http://www.w3.org/1999/xlink" x="0px" y="0px"
	 width="10px" height="10px" viewBox="0 0 10 10" enable-background="new 0 0 10 10" xml:space="preserve">
<g>
	<g>
		<g>
			<path d="M4.935-36.343c5.45-2.979,10.979-5.869,16.66-8.647c-4.945-0.034-9.829,0.022-14.746,0.145
				c-4.911,0.126-9.825,0.325-14.76,0.662c-2.467,0.17-4.94,0.376-7.426,0.646c-2.488,0.273-4.983,0.6-7.535,1.09
				c-1.279,0.25-2.569,0.537-3.918,0.941c-0.676,0.205-1.367,0.438-2.102,0.751c-0.739,0.326-1.516,0.682-2.447,1.412
				c-0.459,0.375-0.987,0.861-1.47,1.667c-0.237,0.401-0.451,0.892-0.577,1.438c-0.128,0.545-0.159,1.136-0.097,1.669
				c0.128,1.086,0.542,1.865,0.91,2.425c0.379,0.565,0.756,0.962,1.111,1.301c0.713,0.668,1.368,1.114,2.007,1.519
				c0.637,0.399,1.256,0.737,1.869,1.048c2.442,1.224,4.811,2.102,7.192,2.934c2.377,0.821,4.751,1.551,7.127,2.241
				c4.751,1.374,9.508,2.583,14.273,3.727c4.712,1.126,9.401,2.302,14.051,3.579c4.644,1.282,9.267,2.646,13.723,4.261
				c2.217,0.812,4.416,1.688,6.386,2.713c0.486,0.257,0.959,0.522,1.388,0.797c0.427,0.272,0.823,0.559,1.099,0.813
				c0.14,0.125,0.243,0.241,0.295,0.306c0.054,0.063,0.033,0.068-0.003-0.091c-0.044-0.15-0.019-0.5,0.078-0.684
				c0.091-0.189,0.15-0.206,0.105-0.165c-0.082,0.093-0.445,0.322-0.858,0.496c-0.42,0.183-0.911,0.35-1.423,0.498
				c-1.03,0.297-2.152,0.523-3.289,0.712c-2.282,0.374-4.648,0.598-7.022,0.752c-4.757,0.298-9.574,0.321-14.367,0.141
				C8.77-5.339,6.375-5.487,4.006-5.721c-1.184-0.117-2.362-0.256-3.52-0.432c-0.578-0.088-1.151-0.185-1.712-0.296
				c-0.28-0.056-0.557-0.115-0.828-0.178l-0.88-0.216c-2.509-0.595-5.058-0.925-7.653-0.945c-1.3-0.003-2.61,0.066-3.962,0.307
				c-0.678,0.125-1.365,0.288-2.088,0.568c-0.362,0.143-0.733,0.314-1.119,0.561c-0.382,0.248-0.796,0.57-1.157,1.085
				c-0.365,0.502-0.602,1.268-0.543,1.939c0.048,0.673,0.283,1.193,0.522,1.602c0.496,0.81,1.054,1.312,1.602,1.773
				c1.102,0.895,2.225,1.537,3.358,2.136c2.268,1.175,4.573,2.097,6.895,2.952C-2.432,6.823,2.276,8.189,7.002,9.45
				c4.728,1.253,9.479,2.38,14.242,3.434l-0.432-0.21c0.402,0.319,0.842,0.73,1.195,1.128c0.356,0.399,0.666,0.843,0.792,1.195
				c0.064,0.175,0.069,0.297,0.061,0.348c-0.01,0.048-0.021,0.095-0.132,0.194c-0.221,0.197-0.729,0.386-1.25,0.49
				c-1.068,0.217-2.275,0.243-3.466,0.218c-1.197-0.029-2.408-0.125-3.618-0.25c-4.849-0.527-9.689-1.478-14.5-2.507
				c-4.806-1.054-9.631-2.228-14.56-2.914c-1.241-0.152-2.472-0.315-3.793-0.217c-0.336,0.045-0.674,0.067-1.079,0.307
				c-0.1,0.066-0.208,0.158-0.291,0.292c-0.084,0.134-0.125,0.305-0.119,0.449c0.014,0.293,0.126,0.477,0.225,0.64
				c0.209,0.315,0.447,0.543,0.688,0.765c0.241,0.218,0.49,0.416,0.743,0.606c1.011,0.756,2.068,1.406,3.133,2.044
				c1.066,0.634,2.144,1.24,3.227,1.837c4.335,2.377,8.737,4.611,13.106,6.907c2.185,1.147,4.365,2.305,6.524,3.502
				c2.158,1.198,4.3,2.434,6.362,3.798c1.034,0.678,2.057,1.374,3.053,2.111c0.992,0.742,1.968,1.517,2.841,2.425
				c0.433,0.457,0.843,0.95,1.147,1.534c0.307,0.573,0.463,1.309,0.275,1.983c-0.177,0.673-0.567,1.216-0.947,1.714
				c-0.389,0.498-0.794,0.961-1.17,1.438c-0.758,0.947-1.395,1.967-1.768,3.088c-0.353,1.145-0.685,2.349-0.809,3.511
				c-0.058,0.581-0.049,1.154,0.11,1.652c0.153,0.499,0.479,0.922,0.895,1.34c0.413,0.417,0.885,0.832,1.331,1.278
				c0.449,0.446,0.881,0.921,1.279,1.419c-0.386-0.509-0.806-0.994-1.245-1.451c-0.437-0.458-0.899-0.887-1.297-1.311
				c-0.401-0.426-0.699-0.842-0.829-1.315c-0.136-0.474-0.13-1.025-0.059-1.591c0.15-1.129,0.513-2.327,0.888-3.438
				c0.391-1.074,1.025-2.035,1.792-2.946c0.382-0.46,0.797-0.909,1.209-1.413c0.402-0.504,0.843-1.07,1.069-1.854
				c0.111-0.387,0.142-0.819,0.084-1.224c-0.058-0.405-0.189-0.777-0.35-1.109c-0.328-0.662-0.755-1.195-1.195-1.686
				c-0.892-0.973-1.866-1.783-2.855-2.562c-0.992-0.775-2.007-1.504-3.031-2.212c-2.047-1.427-4.182-2.732-6.316-3.988
				c-2.141-1.256-4.297-2.471-6.457-3.674c-4.315-2.41-8.662-4.756-12.902-7.222c-1.059-0.618-2.108-1.245-3.135-1.891
				c-1.021-0.646-2.04-1.313-2.933-2.019c-0.221-0.177-0.432-0.355-0.615-0.53c-0.179-0.167-0.345-0.359-0.384-0.435l-0.005-0.008
				c-0.001-0.002,0-0.002,0-0.002c-0.004,0.002,0.014-0.008-0.03,0.015c-0.114,0.061-0.223,0.11-0.321,0.149
				c-0.198,0.077-0.354,0.108-0.443,0.109c-0.096,0.001-0.11-0.022-0.07,0.003c0.042,0.024,0.133,0.106,0.226,0.254
				c0.047,0.073,0.096,0.163,0.145,0.267l0.073,0.166l0.035,0.09c0.002,0.004,0.001,0.001,0.002,0.002l0.062-0.014
				c0.066-0.015,0.17-0.026,0.282-0.034c0.462-0.031,1.044,0.005,1.615,0.062c0.576,0.059,1.165,0.141,1.756,0.234
				c2.37,0.383,4.764,0.916,7.147,1.476c1.192,0.282,2.384,0.575,3.574,0.875l3.606,0.898c4.83,1.16,9.682,2.245,14.695,2.919
				c1.256,0.162,2.524,0.295,3.824,0.36c1.307,0.055,2.619,0.081,4.097-0.174c0.372-0.068,0.759-0.159,1.172-0.305
				c0.413-0.15,0.863-0.347,1.339-0.722c0.235-0.188,0.478-0.429,0.683-0.732c0.208-0.301,0.37-0.666,0.455-1.035
				c0.171-0.75,0.046-1.409-0.114-1.903c-0.348-0.991-0.832-1.607-1.308-2.19c-0.241-0.286-0.488-0.551-0.743-0.803
				c-0.127-0.126-0.257-0.248-0.39-0.37c-0.139-0.126-0.252-0.228-0.433-0.377l-0.306-0.251l-0.433-0.106
				c-4.37-1.084-8.721-2.228-13.033-3.47C4.587,5.267,0.309,3.93-3.852,2.389c-2.077-0.773-4.127-1.598-6.083-2.523
				c-0.976-0.463-1.929-0.952-2.816-1.478c-0.878-0.519-1.728-1.102-2.286-1.653c-0.136-0.134-0.25-0.264-0.322-0.365
				c-0.036-0.05-0.062-0.092-0.076-0.119c-0.007-0.014-0.011-0.022-0.012-0.027v-0.001l-0.074,0.034l-0.185,0.075
				c-0.472,0.186-0.772,0.161-0.776,0.153c-0.014-0.01,0.248,0.067,0.592,0.402c0.08,0.077,0.186,0.187,0.262,0.277
				c0,0,0.007-0.003,0.016-0.009c0.021-0.013,0.057-0.035,0.107-0.061c0.102-0.052,0.25-0.115,0.422-0.173
				c0.347-0.117,0.783-0.213,1.239-0.283c0.921-0.14,1.937-0.184,2.957-0.162c1.024,0.021,2.064,0.109,3.098,0.248
				c1.035,0.14,2.065,0.333,3.079,0.577l0.756,0.193l0.834,0.228c0.608,0.158,1.203,0.289,1.792,0.408
				c2.354,0.467,4.651,0.759,6.956,1.001c4.601,0.469,9.185,0.702,13.791,0.751c2.303,0.021,4.61-0.007,6.931-0.109
				c2.322-0.105,4.651-0.272,7.028-0.602c1.19-0.167,2.392-0.373,3.637-0.681c0.623-0.156,1.258-0.336,1.924-0.579
				c0.667-0.249,1.361-0.535,2.148-1.046c0.392-0.26,0.816-0.584,1.252-1.075c0.427-0.482,0.886-1.201,1.078-2.109
				c0.203-0.905,0.065-1.847-0.185-2.512c-0.25-0.684-0.569-1.164-0.874-1.567c-0.615-0.785-1.207-1.284-1.777-1.734
				c-0.572-0.443-1.13-0.812-1.683-1.152c-2.206-1.333-4.364-2.283-6.537-3.192c-2.17-0.894-4.343-1.694-6.52-2.451
				c-4.354-1.508-8.725-2.845-13.105-4.112c-2.191-0.633-4.384-1.246-6.58-1.844l-6.542-1.763C-4.705-27.833-9-29.08-13.203-30.463
				c-2.099-0.693-4.175-1.421-6.183-2.212c-1.002-0.395-1.987-0.807-2.931-1.24c-0.94-0.432-1.851-0.89-2.631-1.36
				c-0.387-0.233-0.743-0.472-1.009-0.683c-0.132-0.104-0.242-0.203-0.308-0.271c-0.034-0.034-0.057-0.061-0.065-0.073
				c-0.001-0.002-0.005-0.006-0.004-0.006c-0.012,0.01,0.029-0.024-0.035,0.027l-0.124,0.101c-0.167,0.132-0.324,0.25-0.477,0.356
				c-0.61,0.43-1.114,0.642-1.395,0.696c-0.282,0.061-0.292-0.022-0.054,0.078c0.234,0.094,0.67,0.384,1.16,0.911
				c0.124,0.131,0.249,0.275,0.38,0.434l0.196,0.247c0.047,0.059,0.052,0.066,0.046,0.059l0.002-0.001l0.071-0.041
				c0.156-0.09,0.49-0.242,0.868-0.375c0.382-0.136,0.82-0.267,1.279-0.387c0.923-0.24,1.932-0.44,2.962-0.612
				c2.067-0.343,4.231-0.583,6.411-0.773c2.182-0.189,4.389-0.327,6.604-0.433C-4.006-36.231,0.462-36.32,4.935-36.343z"/>
		</g>
	</g>
</g>
</svg>
