<?xml version="1.0" encoding="utf-8"?>
<!-- Generator: Adobe Illustrator 15.0.2, SVG Export Plug-In . SVG Version: 6.00 Build 0)  -->
<!DOCTYPE svg PUBLIC "-//W3C//DTD SVG 1.1//EN" "http://www.w3.org/Graphics/SVG/1.1/DTD/svg11.dtd">
<svg version="1.1" id="Layer_1" xmlns="http://www.w3.org/2000/svg" xmlns:xlink="http://www.w3.org/1999/xlink" x="0px" y="0px"
	 width="10px" height="10px" viewBox="0 0 10 10" enable-background="new 0 0 10 10" xml:space="preserve">
<g>
	<g>
		<g>
			<path d="M-36.172-9.182c-0.78,0.626-1.604,1.216-2.468,1.742c-0.426,0.261-0.863,0.501-1.321,0.697
				c-0.459,0.191-0.937,0.354-1.478,0.353c-0.269-0.004-0.562-0.058-0.847-0.222c-0.285-0.16-0.54-0.443-0.706-0.77
				c-0.169-0.326-0.262-0.682-0.314-1.026c-0.051-0.345-0.063-0.685-0.056-1.016c0.017-0.663,0.11-1.294,0.237-1.912
				c0.064-0.309,0.138-0.613,0.223-0.918c0.042-0.152,0.087-0.304,0.137-0.458c0.054-0.159,0.093-0.298,0.184-0.489
				c-0.092,0.108-0.149,0.179-0.216,0.264l-0.186,0.241c-0.121,0.16-0.238,0.321-0.352,0.486c-0.228,0.33-0.447,0.673-0.655,1.045
				s-0.407,0.772-0.584,1.232c-0.174,0.462-0.337,0.983-0.404,1.656c-0.031,0.335-0.035,0.713,0.028,1.131
				c0.062,0.416,0.198,0.875,0.427,1.305c0.226,0.431,0.541,0.818,0.873,1.112c0.332,0.296,0.677,0.511,0.995,0.667
				c0.643,0.312,1.194,0.432,1.689,0.512c0.495,0.075,0.941,0.097,1.363,0.098c0.421,0,0.819-0.021,1.205-0.055l0.286-0.027
				l0.269-0.03l0.55-0.072c0.72-0.102,1.425-0.234,2.117-0.386c1.379-0.304,2.713-0.701,3.953-1.078l0.895-0.265
				c0.281-0.08,0.555-0.151,0.749-0.191c0.094-0.02,0.17-0.029,0.157-0.029c-0.008-0.001-0.041,0.001-0.139-0.009
				c-0.044-0.006-0.121-0.016-0.208-0.039c-0.102-0.025-0.218-0.062-0.377-0.138c-0.159-0.078-0.349-0.197-0.532-0.375
				c-0.186-0.177-0.347-0.407-0.448-0.625c-0.205-0.455-0.195-0.753-0.191-0.923c0.009-0.166,0.03-0.233,0.04-0.27
				c0.011-0.036,0.012-0.033,0.007-0.02c-0.02,0.07-0.127,0.297-0.25,0.516c-0.126,0.226-0.276,0.471-0.434,0.719
				c-0.318,0.498-0.671,1.012-1.033,1.525l-0.552,0.772l-0.578,0.796c-0.401,0.559-0.788,1.119-1.166,1.693
				c-0.754,1.146-1.463,2.329-2.11,3.566c-0.645,1.239-1.233,2.527-1.699,3.925c-0.231,0.7-0.432,1.428-0.571,2.208
				c-0.136,0.779-0.219,1.613-0.14,2.539c0.042,0.462,0.128,0.95,0.292,1.451c0.163,0.5,0.41,1.015,0.754,1.484
				c0.342,0.471,0.779,0.885,1.247,1.197c0.468,0.317,0.96,0.535,1.433,0.687c0.952,0.299,1.825,0.354,2.634,0.341
				c0.81-0.019,1.565-0.119,2.291-0.256c0.725-0.138,1.42-0.313,2.098-0.512c0.338-0.1,0.673-0.203,1.003-0.312l0.927-0.309
				c1.232-0.408,2.461-0.812,3.689-1.2c2.456-0.773,4.915-1.504,7.357-2.041c1.218-0.265,2.436-0.48,3.609-0.58
				c0.585-0.05,1.159-0.069,1.695-0.041c0.534,0.027,1.033,0.104,1.422,0.235c0.395,0.132,0.638,0.298,0.79,0.476
				c0.152,0.178,0.271,0.443,0.323,0.855c0.052,0.405,0.022,0.912-0.065,1.44c-0.044,0.266-0.103,0.538-0.173,0.813l-0.114,0.421
				l-0.134,0.465l-0.55,1.871c-0.184,0.633-0.371,1.267-0.543,1.956c-0.084,0.349-0.168,0.705-0.229,1.136
				c-0.029,0.216-0.055,0.452-0.051,0.752c0.002,0.149,0.014,0.321,0.051,0.525c0.039,0.203,0.104,0.447,0.252,0.724
				c0.146,0.276,0.397,0.571,0.69,0.769c0.292,0.198,0.586,0.296,0.823,0.346c0.477,0.092,0.785,0.053,1.049,0.022
				c0.519-0.075,0.882-0.195,1.243-0.312c0.705-0.237,1.323-0.497,1.94-0.758l1.813-0.79l3.568-1.572
				c2.376-1.033,4.765-2.026,7.174-2.976l1.818-0.71c0.645-0.255,1.267-0.525,1.889-0.822c1.238-0.594,2.442-1.285,3.577-2.093
				c1.133-0.806,2.195-1.729,3.142-2.762c0.948-1.031,1.777-2.17,2.476-3.367c0.701-1.196,1.271-2.45,1.762-3.701
				c0.492-1.25,0.902-2.507,1.35-3.677c0.446-1.16,0.957-2.261,1.661-2.868c0.349-0.304,0.745-0.497,1.226-0.595
				c0.479-0.099,1.029-0.097,1.598-0.029c1.144,0.14,2.34,0.517,3.512,0.96c0.587,0.223,1.172,0.469,1.754,0.727l0.877,0.4
				l0.87,0.411c2.317,1.114,4.581,2.342,6.739,3.722c2.153,1.383,4.218,2.915,6.021,4.685c0.897,0.886,1.729,1.835,2.415,2.861
				c0.682,1.023,1.223,2.137,1.416,3.283c0.201,1.144-0.005,2.299-0.636,3.267c-0.622,0.975-1.599,1.751-2.672,2.362
				c-1.078,0.613-2.267,1.073-3.483,1.446c-1.225,0.371-2.478,0.679-3.739,0.93c-2.525,0.5-5.101,0.774-7.68,0.806
				c-2.573,0.021-5.17-0.177-7.651-0.827c-1.23-0.333-2.448-0.779-3.479-1.491c-0.509-0.357-0.967-0.79-1.268-1.312
				c-0.302-0.519-0.418-1.127-0.318-1.725c0.095-0.599,0.37-1.175,0.721-1.697c0.354-0.524,0.78-1.005,1.241-1.451
				c0.461-0.445,0.954-0.869,1.472-1.248c0.519-0.382,1.066-0.727,1.629-1.046c2.261-1.271,4.723-2.166,7.198-2.965
				c2.481-0.792,5.002-1.465,7.521-2.133c2.517-0.67,5.044-1.317,7.515-2.126c1.231-0.41,2.455-0.856,3.597-1.447
				c0.566-0.297,1.116-0.634,1.577-1.052c0.458-0.413,0.817-0.938,0.846-1.51c0.035-0.571-0.244-1.14-0.613-1.629
				c-0.373-0.495-0.837-0.933-1.327-1.339c-0.986-0.81-2.082-1.5-3.199-2.146c1.051,0.639,2.079,1.318,3.007,2.095
				c0.462,0.389,0.898,0.805,1.261,1.26c0.358,0.452,0.645,0.959,0.696,1.456c0.059,0.495-0.147,0.964-0.519,1.365
				c-0.368,0.403-0.858,0.734-1.374,1.022c-1.042,0.573-2.196,0.996-3.358,1.376c-2.336,0.751-4.748,1.326-7.157,1.913
				c-2.412,0.583-4.834,1.159-7.243,1.825c-2.406,0.672-4.808,1.417-7.135,2.444c-1.161,0.518-2.305,1.109-3.381,1.853
				c-0.543,0.376-1.045,0.783-1.532,1.221c-0.485,0.44-0.951,0.919-1.365,1.465c-0.412,0.545-0.783,1.165-0.996,1.895
				c-0.218,0.722-0.223,1.581,0.062,2.332c0.279,0.754,0.775,1.355,1.31,1.827c0.54,0.474,1.128,0.837,1.727,1.143
				c1.203,0.605,2.455,0.992,3.712,1.284c1.259,0.29,2.527,0.476,3.798,0.594c2.542,0.231,5.091,0.193,7.62-0.048
				c2.53-0.249,5.032-0.7,7.502-1.403c1.244-0.363,2.481-0.819,3.672-1.464c1.18-0.646,2.343-1.491,3.214-2.708
				c0.431-0.605,0.772-1.303,0.97-2.045c0.198-0.742,0.249-1.516,0.182-2.256c-0.14-1.487-0.699-2.813-1.378-3.985
				c-0.686-1.176-1.512-2.22-2.394-3.185c-0.885-0.964-1.831-1.849-2.813-2.679C45.976,1.615,43.87,0.168,41.7-1.148
				c-2.177-1.317-4.401-2.494-6.709-3.577c-1.168-0.537-2.367-1.038-3.661-1.428c-0.647-0.193-1.32-0.357-2.039-0.457
				c-0.717-0.096-1.489-0.131-2.311,0.006c-0.816,0.131-1.683,0.484-2.37,1.023c-0.693,0.536-1.195,1.191-1.582,1.821
				c-0.388,0.635-0.678,1.262-0.938,1.872c-0.259,0.61-0.485,1.206-0.708,1.788c-0.441,1.164-0.87,2.277-1.368,3.335
				c-0.495,1.058-1.055,2.058-1.705,2.982c-1.294,1.854-2.966,3.393-4.903,4.596c-0.968,0.603-1.995,1.126-3.063,1.579
				c-0.267,0.113-0.536,0.223-0.809,0.327L9.13,12.871l-0.433,0.157l-1.763,0.646c-2.347,0.871-4.681,1.784-6.995,2.731
				l-3.452,1.431l-1.702,0.7c-0.56,0.225-1.12,0.444-1.636,0.618c-0.255,0.086-0.504,0.159-0.689,0.199
				c-0.092,0.021-0.162,0.027-0.176,0.027c-0.002-0.028,0.003,0.013,0.008,0.123l0.009,0.232c0,0.153,0,0.278-0.009,0.402
				c-0.016,0.24-0.053,0.422-0.092,0.536c-0.079,0.237-0.159,0.168,0.09,0.064c0.118-0.049,0.302-0.099,0.544-0.13
				c0.064-0.01,0.129-0.017,0.194-0.021c0.071-0.007,0.147-0.014,0.22-0.016c0.133-0.011,0.402-0.007,0.326-0.012
				c0-0.036,0.034-0.277,0.091-0.511c0.115-0.49,0.291-1.067,0.47-1.643l0.561-1.765c0.187-0.605,0.379-1.16,0.571-1.882
				c0.18-0.695,0.324-1.43,0.371-2.238c0.042-0.805-0.007-1.71-0.353-2.664C-4.888,9.387-5.141,8.91-5.47,8.486
				c-0.327-0.423-0.724-0.79-1.138-1.076c-0.836-0.577-1.7-0.857-2.489-1.027c-0.795-0.166-1.543-0.222-2.263-0.232
				c-1.438-0.018-2.774,0.139-4.079,0.343c-2.602,0.421-5.067,1.058-7.502,1.732c-1.217,0.34-2.422,0.695-3.62,1.057l-1.793,0.546
				l-0.893,0.275c-0.292,0.09-0.553,0.168-0.83,0.244c-1.086,0.302-2.176,0.519-3.132,0.559c-0.473,0.021-0.909-0.012-1.226-0.087
				c-0.324-0.076-0.484-0.185-0.536-0.242c-0.03-0.032-0.048-0.06-0.074-0.113c-0.025-0.054-0.057-0.137-0.082-0.259
				c-0.051-0.241-0.063-0.624-0.01-1.056c0.104-0.873,0.426-1.901,0.846-2.907c0.854-2.032,2.075-4.048,3.429-5.958l0.517-0.713
				l0.538-0.712c0.385-0.504,0.769-1.014,1.15-1.539c0.382-0.525,0.761-1.06,1.142-1.649c0.191-0.296,0.381-0.604,0.577-0.961
				c0.098-0.181,0.197-0.371,0.299-0.601c0.101-0.232,0.209-0.486,0.309-0.886c0.047-0.203,0.097-0.445,0.104-0.798
				c0.004-0.168-0.008-0.39-0.049-0.624c-0.047-0.251-0.127-0.529-0.276-0.827c-0.149-0.297-0.364-0.588-0.612-0.82
				c-0.247-0.232-0.503-0.396-0.738-0.512c-0.461-0.222-0.814-0.28-1.075-0.314c-0.523-0.056-0.823-0.018-1.094,0.008
				c-0.265,0.032-0.481,0.071-0.682,0.111c-0.785,0.165-1.385,0.343-1.994,0.509C-33.943-9.706-35.061-9.404-36.172-9.182z"/>
		</g>
	</g>
</g>
</svg>
